<svg width="40" height="40" viewBox="0 0 40 40" fill="none" xmlns="http://www.w3.org/2000/svg">
<path d="M24.7156 33.6154L25.4651 32.615L25.4651 32.615L24.7156 33.6154ZM27.5007 21.9306L26.6223 22.82C27.1092 23.3008 27.8921 23.3008 28.379 22.82L27.5007 21.9306ZM30.2857 33.6154L29.5362 32.615L29.5362 32.615L30.2857 33.6154ZM35.2462 21.5295L36.1504 20.6664L36.1504 20.6664L35.2462 21.5295ZM24.0037 33.0897L23.265 34.0981L23.265 34.0981L24.0037 33.0897ZM18.334 25.0992H19.584C19.584 23.484 20.5439 22.1204 21.8686 21.5448C23.1296 20.9969 24.8854 21.1047 26.6223 22.82L27.5007 21.9306L28.379 21.0412C25.991 18.6829 23.1635 18.2564 20.8724 19.2519C18.645 20.2197 17.084 22.4771 17.084 25.0992H18.334ZM24.7156 33.6154L23.966 34.6157C24.4307 34.9639 24.9648 35.3627 25.5143 35.6679C26.0647 35.9736 26.7406 36.25 27.5007 36.25V35V33.75C27.344 33.75 27.1032 33.6907 26.7282 33.4824C26.3523 33.2735 25.9522 32.98 25.4651 32.615L24.7156 33.6154ZM30.2857 33.6154L31.0353 34.6157C32.3083 33.6618 34.0443 32.4942 35.4013 31.0417C36.8012 29.5433 37.9173 27.6293 37.9173 25.0992H36.6673H35.4173C35.4173 26.8063 34.6912 28.1398 33.5746 29.335C32.4151 30.576 30.9603 31.5479 29.5362 32.615L30.2857 33.6154ZM30.2857 33.6154L29.5362 32.615C29.0491 32.98 28.649 33.2735 28.2731 33.4824C27.8981 33.6907 27.6573 33.75 27.5007 33.75V35V36.25C28.2607 36.25 28.9366 35.9736 29.487 35.6679C30.0365 35.3627 30.5706 34.9639 31.0353 34.6157L30.2857 33.6154ZM36.6673 25.0992H37.9173C37.9173 23.376 37.2426 21.8105 36.1504 20.6664L35.2462 21.5295L34.342 22.3926C35.0038 23.0859 35.4173 24.0384 35.4173 25.0992H36.6673ZM35.2462 21.5295L36.1504 20.6664C35.0346 19.4974 33.4726 18.7588 31.7462 18.7501C30.0061 18.7413 28.2103 19.473 26.6223 21.0412L27.5007 21.9306L28.379 22.82C29.5608 21.6529 30.7415 21.245 31.7336 21.25C32.7394 21.2551 33.6653 21.6836 34.342 22.3926L35.2462 21.5295ZM24.7156 33.6154L25.4651 32.615C25.228 32.4374 24.9848 32.2588 24.7423 32.0813L24.0037 33.0897L23.265 34.0981C23.5078 34.2759 23.741 34.4471 23.966 34.6157L24.7156 33.6154ZM24.0037 33.0897L24.7423 32.0813C22.0324 30.0963 19.584 28.2372 19.584 25.0992H18.334H17.084C17.084 29.7097 20.7961 32.2897 23.265 34.0981L24.0037 33.0897Z" fill="#1D2126"/>
<path opacity="0.5" d="M14.9369 32.2307L15.7319 31.2661L15.7319 31.2661L14.9369 32.2307ZM20.0007 8.86124L19.081 9.70782C19.3177 9.96494 19.6512 10.1112 20.0007 10.1112C20.3501 10.1112 20.6836 9.96494 20.9203 9.70782L20.0007 8.86124ZM14.9369 32.2307L15.7319 31.2661C10.642 27.0707 4.58398 22.9544 4.58398 15.1984H3.33398H2.08398C2.08398 24.3911 9.4241 29.3066 14.1418 33.1953L14.9369 32.2307ZM3.33398 15.1984H4.58398C4.58398 11.3983 6.63778 8.24178 9.39395 6.92449C12.0545 5.6529 15.6446 5.97482 19.081 9.70782L20.0007 8.86124L20.9203 8.01466C16.8569 3.60045 12.1138 2.85371 8.31589 4.66887C4.61366 6.43833 2.08398 10.524 2.08398 15.1984H3.33398ZM14.9369 32.2307L14.1418 33.1953C14.9953 33.8987 15.9117 34.6491 16.841 35.2169C17.7683 35.7835 18.8356 36.25 20.0007 36.25V35V33.75C19.499 33.75 18.8996 33.545 18.1444 33.0836C17.391 32.6233 16.6089 31.989 15.7319 31.2661L14.9369 32.2307ZM36.6673 15.1984H37.9173C37.9173 10.524 35.3876 6.43833 31.6854 4.66887C27.8875 2.85371 23.1444 3.60045 19.081 8.01466L20.0007 8.86124L20.9203 9.70782C24.3567 5.97482 27.9468 5.6529 30.6074 6.92449C33.3635 8.24178 35.4173 11.3983 35.4173 15.1984H36.6673ZM35.2462 21.5295L36.3738 22.069C37.3331 20.0641 37.9173 17.7965 37.9173 15.1984H36.6673H35.4173C35.4173 17.4041 34.9252 19.3044 34.1187 20.99L35.2462 21.5295ZM24.0037 33.0897L23.2323 32.1061C21.8538 33.1872 20.8433 33.75 20.0007 33.75V35V36.25C21.8054 36.25 23.4423 35.1186 24.7751 34.0733L24.0037 33.0897Z" fill="#1D2126"/>
</svg>
