<svg width="41" height="40" viewBox="0 0 41 40" fill="none" xmlns="http://www.w3.org/2000/svg">
<rect x="0.599609" width="40" height="40" rx="20" fill="url(#paint0_radial_1314_618)"/>
<path d="M20.6275 13.5547C17.0561 13.5547 14.2101 16.4565 14.2101 19.9721C14.2101 23.5435 17.0561 26.3895 20.6275 26.3895C24.1431 26.3895 27.0449 23.5435 27.0449 19.9721C27.0449 16.4565 24.1431 13.5547 20.6275 13.5547ZM20.6275 24.1574C18.3396 24.1574 16.4422 22.3158 16.4422 19.9721C16.4422 17.6842 18.2838 15.8426 20.6275 15.8426C22.9155 15.8426 24.757 17.6842 24.757 19.9721C24.757 22.3158 22.9155 24.1574 20.6275 24.1574ZM28.7748 13.3315C28.7748 12.4944 28.1052 11.8248 27.2681 11.8248C26.4311 11.8248 25.7614 12.4944 25.7614 13.3315C25.7614 14.1685 26.4311 14.8382 27.2681 14.8382C28.1052 14.8382 28.7748 14.1685 28.7748 13.3315ZM33.0159 14.8382C32.9043 12.8292 32.4579 11.0435 31.007 9.59263C29.5561 8.14174 27.7704 7.69531 25.7614 7.58371C23.6967 7.4721 17.5025 7.4721 15.4378 7.58371C13.4289 7.69531 11.6989 8.14174 10.1922 9.59263C8.74135 11.0435 8.29492 12.8292 8.18331 14.8382C8.07171 16.9029 8.07171 23.0971 8.18331 25.1618C8.29492 27.1708 8.74135 28.9007 10.1922 30.4074C11.6989 31.8583 13.4289 32.3047 15.4378 32.4163C17.5025 32.5279 23.6967 32.5279 25.7614 32.4163C27.7704 32.3047 29.5561 31.8583 31.007 30.4074C32.4579 28.9007 32.9043 27.1708 33.0159 25.1618C33.1275 23.0971 33.1275 16.9029 33.0159 14.8382ZM30.3373 27.3382C29.9467 28.4542 29.0539 29.2913 27.9936 29.7377C26.3195 30.4074 22.4132 30.24 20.6275 30.24C18.786 30.24 14.8797 30.4074 13.2614 29.7377C12.1454 29.2913 11.3083 28.4542 10.8619 27.3382C10.1922 25.7199 10.3597 21.8136 10.3597 19.9721C10.3597 18.1864 10.1922 14.2801 10.8619 12.606C11.3083 11.5458 12.1454 10.7087 13.2614 10.2623C14.8797 9.59263 18.786 9.76004 20.6275 9.76004C22.4132 9.76004 26.3195 9.59263 27.9936 10.2623C29.0539 10.6529 29.8909 11.5458 30.3373 12.606C31.007 14.2801 30.8396 18.1864 30.8396 19.9721C30.8396 21.8136 31.007 25.7199 30.3373 27.3382Z" fill="white"/>
<defs>
<radialGradient id="paint0_radial_1314_618" cx="0" cy="0" r="1" gradientUnits="userSpaceOnUse" gradientTransform="translate(0.599609 40) rotate(-45) scale(56.5685 51.1721)">
<stop stop-color="#FECF6E"/>
<stop offset="0.666667" stop-color="#DC2D7A"/>
<stop offset="1" stop-color="#6A41BF"/>
</radialGradient>
</defs>
</svg>
