<svg width="24" height="24" viewBox="0 0 24 24" fill="none" xmlns="http://www.w3.org/2000/svg">
<g clip-path="url(#clip0_1909_2191)">
<path d="M12 24C18.6274 24 24 18.6274 24 12C24 5.37258 18.6274 0 12 0C5.37258 0 0 5.37258 0 12C0 18.6274 5.37258 24 12 24Z" fill="#39CD00"/>
<path d="M19.5 11.7259C19.4893 11.8782 19.4698 12.0299 19.4414 12.1799C19.3465 12.7546 19.1522 13.3083 18.8673 13.8163C18.7309 14.059 18.075 14.9809 17.8745 15.2236C16.7659 16.5586 14.9086 18.0995 11.805 19.5981C11.7395 19.6298 11.6668 19.6434 11.5943 19.6375C11.5218 19.6317 11.4522 19.6067 11.3926 19.565C11.333 19.5233 11.2856 19.4665 11.2553 19.4005C11.2249 19.3344 11.2128 19.2614 11.22 19.189L11.3768 17.7804C11.3887 17.6726 11.3573 17.5646 11.2895 17.4799C11.2218 17.3953 11.1232 17.341 11.0155 17.329C9.98295 17.2257 8.97718 16.939 8.04545 16.4822C5.91818 15.4309 4.5 13.5531 4.5 11.4136C4.5 8.11903 7.85727 5.45312 12 5.45312C14.0809 5.45312 15.9627 6.13494 17.3182 7.21631C18.5877 8.23222 19.4005 9.61085 19.4877 11.1409C19.5023 11.3355 19.5064 11.5308 19.5 11.7259Z" fill="white"/>
<path d="M9.93278 12.733C9.96906 12.7685 9.99779 12.811 10.0172 12.8578C10.0367 12.9047 10.0465 12.955 10.046 13.0058C10.0461 13.0562 10.0364 13.1062 10.0172 13.1528C9.99801 13.1995 9.96982 13.2419 9.93422 13.2776C9.89862 13.3133 9.85632 13.3417 9.80974 13.361C9.76316 13.3804 9.71322 13.3903 9.66279 13.3903H8.12869C8.02682 13.3899 7.92922 13.3493 7.85718 13.2773C7.78514 13.2052 7.74451 13.1076 7.74415 13.0058V10.108C7.74381 10.0573 7.75365 10.007 7.77309 9.9602C7.79254 9.91335 7.82118 9.87088 7.85733 9.83531C7.911 9.78147 7.97948 9.74481 8.05405 9.73C8.12861 9.71519 8.2059 9.72289 8.27608 9.75213C8.34625 9.78137 8.40615 9.83083 8.44814 9.8942C8.49012 9.95758 8.51231 10.032 8.51188 10.108V12.6212H9.66279C9.71298 12.6208 9.76275 12.6305 9.80913 12.6497C9.85551 12.669 9.89756 12.6973 9.93278 12.733Z" fill="#00C200"/>
<path d="M11.182 10.0266V13.0907C11.1816 13.1701 11.1499 13.2462 11.0937 13.3024C11.0375 13.3586 10.9614 13.3903 10.882 13.3907H10.7102C10.6306 13.3907 10.5543 13.3591 10.498 13.3028C10.4418 13.2465 10.4102 13.1702 10.4102 13.0907V10.0266C10.4102 9.94701 10.4418 9.8707 10.498 9.81444C10.5543 9.75818 10.6306 9.72657 10.7102 9.72657H10.8779C10.9176 9.72622 10.9569 9.7337 10.9937 9.7486C11.0305 9.7635 11.064 9.78552 11.0923 9.81339C11.1205 9.84127 11.143 9.87445 11.1584 9.91103C11.1738 9.94762 11.1818 9.98688 11.182 10.0266Z" fill="#00C200"/>
<path d="M14.7438 10.1098V12.9912C14.7439 13.0948 14.7036 13.1944 14.6316 13.269C14.5596 13.3435 14.4615 13.3872 14.3579 13.3907C14.2608 13.3892 14.1679 13.3512 14.0974 13.2843C14.0838 13.2734 13.5683 12.6025 13.1306 12.038C12.8033 11.6166 12.5197 11.2484 12.5197 11.2484V13.0062C12.52 13.0807 12.4985 13.1536 12.4579 13.2161C12.4174 13.2786 12.3595 13.3279 12.2913 13.358C12.2232 13.3881 12.1477 13.3977 12.0742 13.3856C12.0007 13.3735 11.9323 13.3402 11.8774 13.2898C11.8378 13.2539 11.8062 13.2101 11.7846 13.1613C11.763 13.1124 11.7519 13.0596 11.752 13.0062V10.1262C11.7507 10.0249 11.7883 9.92704 11.8571 9.8527C11.9258 9.77837 12.0205 9.73324 12.1215 9.72661C12.1787 9.72568 12.2354 9.73742 12.2875 9.761C12.3396 9.78458 12.3858 9.81941 12.4229 9.86298C12.4393 9.88207 13.2315 10.913 13.6774 11.4993C13.8547 11.7284 13.9774 11.8893 13.9774 11.8893V10.1166C13.9782 10.0152 14.0188 9.91816 14.0905 9.84645C14.1622 9.77475 14.2592 9.73415 14.3606 9.73343C14.4611 9.73342 14.5575 9.77285 14.6292 9.84324C14.7009 9.91363 14.742 10.0094 14.7438 10.1098Z" fill="#00C200"/>
<path d="M16.0902 11.9418V12.6236H17.2397C17.2921 12.6205 17.3445 12.6281 17.3938 12.646C17.443 12.6639 17.4882 12.6916 17.5263 12.7276C17.5645 12.7635 17.5949 12.8069 17.6157 12.855C17.6364 12.9032 17.6472 12.955 17.6472 13.0075C17.6472 13.0599 17.6364 13.1118 17.6157 13.1599C17.5949 13.208 17.5645 13.2514 17.5263 13.2874C17.4882 13.3233 17.443 13.3511 17.3938 13.369C17.3445 13.3868 17.2921 13.3945 17.2397 13.3913H15.7015C15.5998 13.391 15.5023 13.3503 15.4305 13.2782C15.3587 13.2061 15.3184 13.1085 15.3184 13.0068V10.1104C15.3187 10.0089 15.3592 9.91166 15.431 9.83987C15.5028 9.76809 15.6 9.7276 15.7015 9.72724H17.2356C17.288 9.72412 17.3404 9.73174 17.3897 9.74962C17.439 9.7675 17.4841 9.79527 17.5222 9.83122C17.5604 9.86717 17.5908 9.91054 17.6116 9.95868C17.6323 10.0068 17.6431 10.0587 17.6431 10.1111C17.6431 10.1635 17.6323 10.2154 17.6116 10.2635C17.5908 10.3117 17.5604 10.355 17.5222 10.391C17.4841 10.4269 17.439 10.4547 17.3897 10.4726C17.3404 10.4905 17.288 10.4981 17.2356 10.495H16.0902V11.1768H17.2397C17.3413 11.1768 17.4388 11.2172 17.5107 11.289C17.5825 11.3609 17.6229 11.4583 17.6229 11.56C17.6229 11.6616 17.5825 11.7591 17.5107 11.8309C17.4388 11.9028 17.3413 11.9432 17.2397 11.9432L16.0902 11.9418Z" fill="#00C200"/>
</g>
<defs>
<clipPath id="clip0_1909_2191">
<rect width="24" height="24" fill="white"/>
</clipPath>
</defs>
</svg>
