<svg width="41" height="40" viewBox="0 0 41 40" fill="none" xmlns="http://www.w3.org/2000/svg">
<path d="M30.8001 13.4002L31.5725 12.6278C32.8522 11.348 34.9271 11.348 36.2069 12.6278C37.4866 13.9075 37.4866 15.9824 36.2069 17.2622L35.4345 18.0346M30.8001 13.4002C30.8001 13.4002 30.8966 15.0415 32.3449 16.4898C33.7931 17.938 35.4345 18.0346 35.4345 18.0346M30.8001 13.4002L23.699 20.5012C23.2181 20.9822 22.9776 21.2227 22.7707 21.4878C22.5268 21.8006 22.3176 22.1391 22.147 22.4972C22.0023 22.8007 21.8947 23.1234 21.6796 23.7687L20.991 25.8346L20.7682 26.503M35.4345 18.0346L28.3334 25.1356C27.8525 25.6166 27.612 25.8571 27.3468 26.0639C27.034 26.3079 26.6956 26.517 26.3375 26.6877C26.0339 26.8324 25.7113 26.9399 25.066 27.155L23 27.8437L22.3316 28.0665M22.3316 28.0665L21.6632 28.2893C21.3456 28.3951 20.9955 28.3125 20.7589 28.0758C20.5222 27.8391 20.4395 27.489 20.5454 27.1714L20.7682 26.503M22.3316 28.0665L20.7682 26.503" stroke="#1D2126" stroke-width="2.5"/>
<path d="M13.834 21.668H18.0007" stroke="#1D2126" stroke-width="2.5" stroke-linecap="round"/>
<path d="M13.834 15H24.6673" stroke="#1D2126" stroke-width="2.5" stroke-linecap="round"/>
<path d="M13.834 28.332H16.334" stroke="#1D2126" stroke-width="2.5" stroke-linecap="round"/>
<path opacity="0.5" d="M5.5 16.6654C5.5 10.38 5.5 7.23727 7.45262 5.28465C9.40524 3.33203 12.5479 3.33203 18.8333 3.33203H22.1667C28.4521 3.33203 31.5948 3.33203 33.5474 5.28465C35.5 7.23727 35.5 10.38 35.5 16.6654V23.332C35.5 29.6174 35.5 32.7601 33.5474 34.7127C31.5948 36.6654 28.4521 36.6654 22.1667 36.6654H18.8333C12.5479 36.6654 9.40524 36.6654 7.45262 34.7127C5.5 32.7601 5.5 29.6174 5.5 23.332V16.6654Z" stroke="#1D2126" stroke-width="2.5"/>
</svg>
