<svg width="41" height="40" viewBox="0 0 41 40" fill="none" xmlns="http://www.w3.org/2000/svg">
<path opacity="0.5" d="M3.83398 19.9987C3.83398 12.142 3.83398 8.21359 6.27476 5.77281C8.71554 3.33203 12.6439 3.33203 20.5007 3.33203C28.3574 3.33203 32.2858 3.33203 34.7265 5.77281C37.1673 8.21359 37.1673 12.142 37.1673 19.9987C37.1673 27.8554 37.1673 31.7838 34.7265 34.2246C32.2858 36.6654 28.3574 36.6654 20.5007 36.6654C12.6439 36.6654 8.71554 36.6654 6.27476 34.2246C3.83398 31.7838 3.83398 27.8554 3.83398 19.9987Z" stroke="#1D2126" stroke-width="2.5"/>
<path d="M17.375 14.793C17.375 13.0671 18.7741 11.668 20.5 11.668C22.2259 11.668 23.625 13.0671 23.625 14.793C23.625 15.9387 23.0084 16.9404 22.0889 17.4844C21.2967 17.9531 20.5 18.6642 20.5 19.5846V21.668" stroke="#1D2126" stroke-width="2.5" stroke-linecap="round"/>
<mask id="path-3-inside-1_1231_5489" fill="white">
<ellipse cx="20.5007" cy="26.6667" rx="1.66667" ry="1.66667"/>
</mask>
<ellipse cx="20.5007" cy="26.6667" rx="1.66667" ry="1.66667" fill="#1D2126"/>
<path d="M22.1673 26.6667H19.6673C19.6673 26.2064 20.0404 25.8333 20.5007 25.8333V28.3333V30.8333C22.8018 30.8333 24.6673 28.9679 24.6673 26.6667H22.1673ZM20.5007 28.3333V25.8333C20.9609 25.8333 21.334 26.2064 21.334 26.6667H18.834H16.334C16.334 28.9679 18.1995 30.8333 20.5007 30.8333V28.3333ZM18.834 26.6667H21.334C21.334 27.1269 20.9609 27.5 20.5007 27.5V25V22.5C18.1995 22.5 16.334 24.3655 16.334 26.6667H18.834ZM20.5007 25V27.5C20.0404 27.5 19.6673 27.1269 19.6673 26.6667H22.1673H24.6673C24.6673 24.3655 22.8018 22.5 20.5007 22.5V25Z" fill="#1D2126" mask="url(#path-3-inside-1_1231_5489)"/>
</svg>
