<svg width="16" height="16" viewBox="0 0 16 16" fill="none" xmlns="http://www.w3.org/2000/svg">
<path d="M12 10.746C11.4933 10.746 11.04 10.946 10.6933 11.2594L5.94 8.49271C5.97333 8.33938 6 8.18604 6 8.02604C6 7.86604 5.97333 7.71271 5.94 7.55938L10.64 4.81938C11 5.15271 11.4733 5.35938 12 5.35938C13.1067 5.35938 14 4.46604 14 3.35938C14 2.25271 13.1067 1.35938 12 1.35938C10.8933 1.35938 10 2.25271 10 3.35938C10 3.51938 10.0267 3.67271 10.06 3.82604L5.36 6.56604C5 6.23271 4.52667 6.02604 4 6.02604C2.89333 6.02604 2 6.91938 2 8.02604C2 9.13271 2.89333 10.026 4 10.026C4.52667 10.026 5 9.81938 5.36 9.48604L10.1067 12.2594C10.0733 12.3994 10.0533 12.546 10.0533 12.6927C10.0533 13.766 10.9267 14.6394 12 14.6394C13.0733 14.6394 13.9467 13.766 13.9467 12.6927C13.9467 11.6194 13.0733 10.746 12 10.746ZM12 2.69271C12.3667 2.69271 12.6667 2.99271 12.6667 3.35938C12.6667 3.72604 12.3667 4.02604 12 4.02604C11.6333 4.02604 11.3333 3.72604 11.3333 3.35938C11.3333 2.99271 11.6333 2.69271 12 2.69271ZM4 8.69271C3.63333 8.69271 3.33333 8.39271 3.33333 8.02604C3.33333 7.65938 3.63333 7.35938 4 7.35938C4.36667 7.35938 4.66667 7.65938 4.66667 8.02604C4.66667 8.39271 4.36667 8.69271 4 8.69271ZM12 13.3727C11.6333 13.3727 11.3333 13.0727 11.3333 12.706C11.3333 12.3394 11.6333 12.0394 12 12.0394C12.3667 12.0394 12.6667 12.3394 12.6667 12.706C12.6667 13.0727 12.3667 13.3727 12 13.3727Z" fill="#101828"/>
</svg>
