<svg width="41" height="40" viewBox="0 0 41 40" fill="none" xmlns="http://www.w3.org/2000/svg">
<rect x="0.199219" width="40" height="40" rx="20" fill="black"/>
<path d="M17.5507 17.3424V16.3674C17.2124 16.3194 16.871 16.2946 16.5293 16.293C12.3497 16.293 8.94922 19.694 8.94922 23.8736C8.94922 26.4375 10.2306 28.7071 12.1853 30.0796C10.8764 28.6799 10.1486 26.835 10.1497 24.9186C10.1497 20.7984 13.4536 17.4385 17.5507 17.3424Z" fill="#69C9D0"/>
<path d="M17.7302 28.3818C19.5951 28.3818 21.1162 26.8982 21.1856 25.0493L21.192 8.54498H24.2072C24.1428 8.20026 24.1103 7.85055 24.11 7.5H19.9918L19.9848 24.0049C19.9162 25.8532 18.3943 27.3362 16.5299 27.3362C15.9702 27.3365 15.4188 27.2001 14.9238 26.9387C15.5724 27.8437 16.6168 28.3806 17.7302 28.3818ZM29.8393 14.1474V13.2302C28.7313 13.2313 27.6469 12.9088 26.7194 12.3027C27.5327 13.239 28.6274 13.8862 29.8399 14.1474" fill="#69C9D0"/>
<path d="M26.7197 12.3029C25.8109 11.2629 25.31 9.92823 25.3106 8.54688H24.2073C24.4959 10.0896 25.4039 11.4471 26.7197 12.3029ZM16.5302 20.4138C14.6192 20.4161 13.0706 21.9646 13.0684 23.8757C13.0695 25.1623 13.7839 26.3423 14.9236 26.9401C14.4978 26.3529 14.2686 25.6465 14.2686 24.9212C14.2706 23.0102 15.8191 21.461 17.7305 21.4588C18.0871 21.4588 18.4291 21.5177 18.7518 21.6191V17.4147C18.4135 17.3667 18.0721 17.342 17.7305 17.3403C17.6705 17.3403 17.6113 17.3436 17.5519 17.3447V20.5741C17.2213 20.4691 16.8769 20.4149 16.5302 20.4138Z" fill="#EE1D52"/>
<path d="M29.8388 14.1493V17.35C27.703 17.35 25.725 16.667 24.1092 15.5076V23.8768C24.1092 28.0565 20.7092 31.4569 16.5296 31.4569C14.9144 31.4569 13.4166 30.9472 12.1855 30.0828C13.6163 31.6258 15.6255 32.5025 17.7296 32.5019C21.9092 32.5019 25.3097 29.1014 25.3097 24.9224V16.5531C26.9788 17.7534 28.9835 18.3981 31.0393 18.3956V14.2762C30.6271 14.2762 30.2263 14.2315 29.8385 14.1484" fill="#EE1D52"/>
<path d="M24.1076 23.8757V15.5064C25.7767 16.707 27.7814 17.3514 29.8372 17.3489V14.1484C28.625 13.887 27.5303 13.2395 26.7172 12.3029C25.4014 11.4471 24.4934 10.0896 24.2048 8.54688H21.1899L21.1835 25.0512C21.1143 26.8995 19.593 28.3831 17.728 28.3831C16.615 28.382 15.5703 27.8448 14.9219 26.9404C13.7822 26.3429 13.0675 25.1629 13.0662 23.876C13.0684 21.9649 14.617 20.4163 16.528 20.4141C16.8841 20.4141 17.2261 20.4724 17.5494 20.5744V17.345C13.4523 17.4411 10.1484 20.801 10.1484 24.9212C10.1484 26.9137 10.9226 28.7275 12.1839 30.0822C13.4556 30.9775 14.9731 31.4572 16.528 31.4558C20.7079 31.4558 24.1076 28.0553 24.1076 23.8757Z" fill="white"/>
</svg>
