<svg width="148" height="113" viewBox="0 0 148 113" fill="none" xmlns="http://www.w3.org/2000/svg">
<path opacity="0.7" d="M145.919 24.6055C145.919 24.6055 143.734 39.5257 127.74 48.0759V61.864C127.74 61.864 145.272 52.0277 146.15 41.7198L145.919 24.6055Z" fill="#A9FFF0"/>
<path opacity="0.4" d="M24.2501 54.3517C24.2501 54.3517 4.20624 44.9145 1.44021 23.4375L0 38.4557C0 38.4557 1.55825e-05 55.8736 24.6119 65.2897L24.2501 54.3517Z" fill="#A9FFF0"/>
<path opacity="0.4" d="M48.1711 6.08616L48.1523 11.2728C48.1523 11.2728 61.4457 6.70939 85.5697 8.77283V4.29583C85.5697 4.29583 68.8871 0.834198 48.1711 6.08616Z" fill="#A9FFF0"/>
<path opacity="0.5" d="M0.536605 65.198C3.86518 58.779 12.2286 49.3324 21.2106 44.4796C30.4471 39.4844 42.3281 34.4379 53.9758 33.0047L53.8288 12.9492C42.1834 14.3824 31.1193 17.5639 21.8852 22.5568C3.03653 32.7479 -1.73458 47.283 0.536605 65.198Z" fill="#6AF0D9"/>
<path opacity="0.5" d="M146.32 67.3921C150.998 49.9813 146.003 35.3248 127.577 23.9106C120.831 19.73 113.007 16.5111 104.622 14.2539L103.945 36.1721C112.327 38.434 120.149 41.6528 126.9 45.8287C135.744 51.3071 143.358 60.6789 146.32 67.3921Z" fill="#6AF0D9"/>
<path opacity="0.5" d="M97.9242 35.1522L98.6012 13.2341C86.0666 10.9302 72.7545 10.6408 60.2105 12.4288L59.5312 34.3516C72.0729 32.5589 85.3895 32.8483 97.9242 35.1522Z" fill="#6AF0D9"/>
<path d="M123.87 67.4545C125.11 47.1773 99.6994 7.27876 56.1782 22.5141C31.2769 31.2253 25.4602 45.2656 51.9114 64.6091C51.9114 64.6091 51.6289 75.4188 72.3893 73.7079C72.3893 73.7079 85.7573 73.1383 94.7883 79.9659C104.347 87.1949 123.312 76.6046 123.87 67.4545Z" fill="#0FC1A1"/>
<path d="M43.9192 33.0072C43.9869 32.9371 50.8401 25.9929 60.1909 25.5844C63.2487 25.449 66.645 25.7081 70.242 25.9788C77.9682 26.5554 87.3354 26.8705 95.0079 23.6493L92.9679 22.7227C85.6735 25.7921 77.8982 24.8421 70.3657 24.2749C66.7197 24.0042 63.2721 23.745 60.1139 23.8804C50.0745 24.3193 42.9902 31.5133 42.6914 31.8167L43.9192 33.0072Z" fill="#A2FFF0"/>
<path d="M72.2447 25.1084L73.7105 24.868C73.7059 25.4983 73.6732 24.1374 73.8016 23.9367C74.1517 23.3508 77.0205 21.2733 84.49 20.0852L81.7332 19.5391C75.3235 20.5591 73.0336 21.4297 72.1863 23.3391C71.8618 24.0767 72.0136 24.7536 72.2447 25.1084Z" fill="#A2FFF0"/>
<path d="M94.7314 37.9029L96.4213 36.6798C93.7697 32.7817 86.5056 27.2426 82.2714 25.4009C81.4007 25.0205 81.961 25.2866 81.06 24.8711L78.8984 25.7721C79.8088 26.1922 80.7075 26.582 81.5875 26.9672C85.7658 28.7808 92.3575 34.4133 94.7314 37.9029Z" fill="#A2FFF0"/>
<path d="M119.216 48.204L118.28 46.3927C117.631 46.2713 115.68 45.9585 111.418 44.4109C109.587 43.7434 108.479 42.3872 107.307 40.9517C105.913 39.243 104.331 37.3033 101.341 36.4957C96.8032 35.2632 93.7057 38.0176 92.709 39.6445L94.1654 40.5408C94.2541 40.3961 96.4717 36.9508 100.89 38.1413C103.355 38.8065 104.634 40.3774 105.988 42.0347C107.251 43.5869 108.563 45.1882 110.836 46.0122C115.25 47.6205 119.081 48.1807 119.216 48.204Z" fill="#A2FFF0"/>
<path d="M110.045 44.6049C114.387 36.2345 102.041 29.4957 101.523 29.2109L100.713 30.7165C100.823 30.7772 112.104 36.9394 108.533 43.8207L110.045 44.6049Z" fill="#A2FFF0"/>
<path d="M116.476 77.8533C116.833 77.5335 124.321 71.2732 120.979 64.5203C119.462 61.4602 117.386 59.4481 115.717 57.8305C113.901 56.0682 112.59 54.8007 112.641 53.0243C112.716 50.1813 110.071 47.4596 107.424 46.2412C104.854 45.0554 102.426 45.2351 100.771 46.7313L101.911 47.9988C103.512 46.5516 105.795 47.3732 106.71 47.7934C109.126 48.9045 110.981 51.1827 110.937 52.9777C110.869 55.5033 112.564 57.1535 114.527 59.0536C116.184 60.6595 118.066 62.4779 119.45 65.2766C122.221 70.8694 113.663 79.3402 113.582 79.4102L116.476 77.8533Z" fill="#A2FFF0"/>
<path d="M122.682 57.3306L121.97 54.9311C117.735 51.4228 112.094 53.7313 111.783 53.8597L112.4 55.447C112.458 55.4213 119.691 53.0404 122.682 57.3306Z" fill="#A2FFF0"/>
<path d="M111.13 74.7019C118.347 67.9934 118.139 61.0725 118.114 61.0165L116.333 60.6523L116.52 61.6234C116.585 61.8078 114.356 69.0508 110.287 72.6409L111.13 74.7019Z" fill="#A2FFF0"/>
<path opacity="0.1" d="M94.7897 79.9661C85.761 73.1386 72.3906 73.7081 72.3906 73.7081C51.6279 75.4167 51.9127 64.6094 51.9127 64.6094C34.9944 52.2357 31.29 42.0399 37.3286 34.0103C40.6128 31.9375 44.6954 30.0585 49.4968 28.3732C93.0134 13.1495 118.428 53.041 117.191 73.3206C117.084 75.0689 116.295 76.8756 115.041 78.5912C108.639 82.4333 100.205 84.065 94.7897 79.9661Z" fill="black"/>
<path d="M111.073 76.3984C112.313 56.1235 92.0167 18.0877 43.3812 31.4556C33.1784 34.259 12.6607 54.2118 39.1096 73.5507C39.1096 73.5507 38.8295 84.365 59.5899 82.654C59.5899 82.654 71.478 85.9546 81.6061 93.4147C96.3209 104.259 110.515 85.5508 111.073 76.3984Z" fill="url(#paint0_radial_1155_7139)"/>
<path d="M37.6046 72.409L39.1102 73.5504C39.0868 73.506 37.3385 68.4758 38.9911 65.8428C39.8595 64.4657 41.7968 63.8285 44.7309 63.9289L45.9727 63.9732C52.8913 64.2393 57.4524 64.4144 59.7119 61.7347C61.2011 59.9677 61.4555 57.239 60.5335 52.874C58.8529 44.9424 59.2519 39.499 61.7099 36.684C63.3625 34.8003 66.0656 33.9927 69.7467 34.2634C77.2231 34.8353 79.9774 39.7885 81.0698 54.6574C81.2962 57.7268 84.0436 61.0204 88.0748 63.0512C91.219 64.6338 98.0418 68.5645 108.872 61.6996L108.296 60.068C98.2005 66.4661 91.7255 62.9764 88.8404 61.5246C84.8513 59.5218 82.9232 56.5691 82.7738 54.536C81.7631 40.8459 79.4102 33.2877 69.8773 32.5618C65.636 32.242 62.4522 33.2481 60.4261 35.5612C57.5527 38.8408 57.0438 44.6226 58.8645 53.2288C59.6534 56.9706 59.5088 59.3281 58.4117 60.6376C56.6867 62.6754 52.2214 62.5143 46.0404 62.2669L44.7939 62.2225C41.2179 62.0941 38.7647 62.9998 37.5439 64.9419C35.3731 68.4082 37.4856 72.1849 37.6046 72.409Z" fill="white"/>
<path d="M65.0706 73.6165L66.7652 73.4554C65.6355 61.621 50.2041 62.3913 50.0547 62.4053L50.1504 64.1116C50.7129 64.0766 64.0972 63.423 65.0706 73.6165Z" fill="white"/>
<path d="M58.2232 49.6512L59.8968 49.3174C59.8665 49.1704 56.853 34.9691 43.2656 35.611L43.3497 37.3196C55.5226 36.7057 58.1182 49.1236 58.2232 49.6512Z" fill="white"/>
<path d="M42.2027 46.3094C44.1308 39.7386 52.018 39.6102 52.0974 39.6102L52.0834 37.9062C51.9924 37.9062 42.8469 38.0579 40.5664 45.8308L42.2027 46.3094Z" fill="white"/>
<path d="M93.1324 77.1557L93.7534 75.5614C77.2249 69.1144 82.4044 54.3622 82.6285 53.7343L81.0226 53.1484C80.9642 53.3165 75.0657 70.1064 93.1324 77.1557Z" fill="white"/>
<path d="M83.9027 81.8947L85.0581 80.6365C80.2567 76.2179 83.9401 68.8441 83.9798 68.7718L82.4625 67.9922C82.2781 68.3423 78.1559 76.6077 83.9027 81.8947Z" fill="white"/>
<path d="M80.2205 46.5624L81.6094 45.5751C81.5557 45.4957 75.8298 37.5944 68.3184 40.5798L68.9509 42.1671C75.2323 39.6719 80.1668 46.4947 80.2205 46.5624Z" fill="white"/>
<path d="M90.4231 91.3092C98.1844 90.5973 98.4599 84.6031 100.152 79.1481C100.752 77.1943 101.137 75.2289 102.08 73.9334C105.098 69.7832 107.783 69.5242 110.724 69.3818L110.434 67.6895C110.037 67.6685 103.779 67.1222 100.577 73.1305C99.7412 74.6944 99.1484 76.6108 98.5182 78.6486C96.8212 84.1269 93.6444 90.4572 87.0176 91.0665L90.4231 91.3092Z" fill="white"/>
<path d="M87.669 62.3943L89.3707 62.2449C88.7988 55.7138 99.6201 54.2993 99.7298 54.2853L99.5197 52.5977C99.0038 52.6583 86.9571 54.2432 87.669 62.3943Z" fill="white"/>
<path d="M91.391 56.475L92.8451 55.5786C89.736 50.5274 94.6868 43.9986 94.7358 43.9333L93.3891 42.8945C93.1487 43.1956 87.6702 50.4224 91.391 56.475Z" fill="white"/>
<path d="M41.1818 63.6056L42.7248 62.868C41.1468 59.5534 40.2341 58.9208 37.1997 56.8107C36.5951 56.3905 35.9065 55.905 35.0966 55.3332C30.8857 52.3104 33.794 46.5168 33.8244 46.4538L32.3072 45.6719C31.0374 48.1438 29.7862 53.6198 34.1068 56.7173C34.9238 57.2985 35.6217 57.7887 36.231 58.2089C39.1861 60.2677 39.8 60.6948 41.1818 63.6056Z" fill="white"/>
<path d="M30.4838 58.2234C32.9067 58.2234 34.9935 56.7925 35.0915 56.7271L34.1181 55.3196C34.0971 55.3406 31.7699 56.9209 29.6014 56.4214C28.5254 56.1716 26.8284 54.0779 26.1328 52.8711L26.2892 55.5484C27.2299 57.1916 27.6687 57.7332 29.235 58.088C29.6528 58.1814 30.073 58.2234 30.4838 58.2234Z" fill="white"/>
<path d="M64.8451 82.4466C65.0365 82.4466 65.1508 82.3135 65.3212 82.1408C65.9118 81.5176 65.2862 80.9154 65.0247 80.6563L64.9921 80.689C64.621 80.3645 63.6267 79.4682 60.954 77.0102C59.6142 75.7778 58.9839 74.466 59.0936 73.1098C59.3364 70.0613 63.0244 67.5918 63.0641 67.5684L62.1234 66.1445C61.9413 66.2636 57.6977 69.1067 57.3896 72.9721C57.2355 74.8768 58.0455 76.6578 59.7939 78.2684C61.9227 80.2268 63.1317 81.3355 63.8623 81.9121C63.9114 81.9564 64.0024 82.0428 64.0444 82.0895L64.0678 82.0638C64.4389 82.3369 64.6677 82.4466 64.8451 82.4466Z" fill="white"/>
<path d="M50.8261 76.8154C51.7411 75.3635 52.8475 74.4882 54.1103 74.2174C56.0757 73.7926 57.8053 74.9083 57.8263 74.9223L58.76 73.4938C58.6667 73.4331 56.4119 71.9719 53.7486 72.5485C52.0189 72.9243 50.5507 74.0587 49.3789 75.9097L50.8261 76.8154Z" fill="white"/>
<path d="M60.7785 56.6114C60.8158 56.5694 64.8401 52.3211 68.7009 52.3211C68.7149 52.3211 68.7288 52.3211 68.7428 52.3211C70.127 52.3351 71.2988 52.8884 72.3259 54.0181L73.584 52.872C72.2372 51.3851 70.6102 50.6335 68.7522 50.6172C64.1911 50.6289 59.7117 55.2413 59.5273 55.4397L60.7785 56.6114Z" fill="white"/>
<path d="M46.0125 52.869C50.6926 48.406 46.3509 40.6612 46.1619 40.332L44.6797 41.1816C44.7194 41.2447 48.5475 48.0955 44.8338 51.6342L46.0125 52.869Z" fill="white"/>
<path d="M95.8163 86.8262L97.0183 85.6147C95.7368 84.3402 92.2238 82.4775 88.1133 84.5503L88.8789 86.0769C92.9124 84.0531 95.7019 86.7118 95.8163 86.8262Z" fill="white"/>
<path d="M75.5212 76.762C77.0361 73.9096 81.6578 74.3694 81.7045 74.3788L81.8913 72.6818C81.6555 72.6538 76.0674 72.0819 74.0156 75.9614L75.5212 76.762Z" fill="white"/>
<path opacity="0.5" d="M111.072 76.3971C110.514 85.5495 97.0132 102.923 84.4856 95.1734C70.9238 86.7913 59.5889 82.6551 59.5889 82.6551C38.8262 84.3661 39.1086 73.5517 39.1086 73.5517C22.4518 61.3765 24.4265 48.9609 30.7102 40.7305C26.497 53.9374 40.3598 65.3376 44.6781 70.0691C49.4095 75.2603 55.1727 74.1306 62.4297 73.2996C69.6938 72.471 68.8278 76.4321 86.1802 81.8942C100.564 86.4249 108.68 76.0213 111.04 72.3216C111.142 73.7361 111.152 75.1063 111.072 76.3971Z" fill="#326B60"/>
<path opacity="0.5" d="M0.864996 47.2852C-1.97106 69.8312 2.85611 87.7299 26.4059 100.757C33.3035 104.576 41.0506 107.617 49.2997 109.919V83.5493C41.053 81.2501 33.3035 78.2063 26.4059 74.3922C15.1037 68.1412 4.84014 55.2448 0.864996 47.2852Z" fill="#A9FFF0"/>
<path opacity="0.5" d="M147.112 47.2852C143.256 55.1561 132.486 66.7757 121.452 73.0314C116.268 75.9725 110.584 78.4678 104.553 80.5359L104.767 106.903C110.799 104.833 116.485 102.337 121.669 99.3985C144.813 86.2803 148.875 67.3943 147.112 47.2852Z" fill="#A9FFF0"/>
<path opacity="0.7" d="M34.6859 13.8216C34.6859 13.8216 16.6634 18.7281 8.38867 29.2833V19.3093C8.38867 19.3093 15.277 12.2856 34.6859 4.94922V13.8216Z" fill="#A9FFF0"/>
<path opacity="0.7" d="M95.3281 0.5V10.2173C95.3281 10.2173 113.997 10.9222 136.942 26.482V14.2554C136.942 14.2554 122.676 4.43313 95.3281 0.5Z" fill="#A9FFF0"/>
<path d="M12.1191 29.2815C12.1191 29.2815 13.6201 27.9953 16.5005 26.0859C19.3785 24.1835 23.6198 21.6206 29.0165 19.1417C31.7171 17.9163 34.6886 16.6815 37.8981 15.5377C41.11 14.4219 44.5342 13.3109 48.1616 12.4892C51.7703 11.5906 55.561 10.944 59.4311 10.4048C63.3058 9.95194 67.2623 9.57612 71.2351 9.54811C75.2056 9.47575 79.1715 9.71383 83.0556 10.0803C85.0047 10.232 86.9163 10.5682 88.814 10.8062C90.7094 11.0723 92.5534 11.4785 94.3834 11.8077C98.0201 12.5686 101.5 13.4649 104.743 14.5106C106.377 14.9775 107.938 15.5283 109.434 16.0862C110.935 16.6534 112.408 17.1156 113.774 17.7061C116.502 18.8616 119.028 19.8676 121.159 20.9904C123.314 22.0618 125.216 22.9371 126.708 23.8195C129.712 25.5141 131.43 26.4804 131.43 26.4804C131.43 26.4804 129.658 25.6191 126.558 24.1042C125.036 23.2989 123.096 22.5169 120.905 21.5506C118.729 20.5422 116.173 19.6646 113.438 18.5768C112.07 18.026 110.592 17.6105 109.094 17.0946C107.593 16.5764 106.033 16.0839 104.395 15.6684C101.162 14.7254 97.6957 13.9598 94.1057 13.2105C92.2967 12.9094 90.4666 12.5242 88.5969 12.2768C86.7225 12.0667 84.8366 11.7493 82.9109 11.6163C79.0781 11.2918 75.1683 11.1003 71.2632 11.2054C67.3487 11.1914 63.446 11.5252 59.6225 11.936C55.8038 12.4309 52.0597 13.0354 48.486 13.8874C41.3293 15.4957 34.8099 17.6968 29.3922 19.9913C26.7009 21.1678 24.2336 22.2765 22.1048 23.376C19.969 24.4544 18.146 25.4721 16.6731 26.3568C13.704 28.1121 12.1191 29.2815 12.1191 29.2815Z" fill="#3DFFDD"/>
<path d="M23.0508 72.3172C23.0508 72.3172 24.6333 73.3186 27.5604 74.7798C30.4665 76.2713 34.7568 78.12 40.0367 79.957C42.6884 80.8277 45.5734 81.7521 48.6873 82.471C51.7871 83.2366 55.1016 83.8621 58.5446 84.3663C61.9829 84.9125 65.5776 85.1436 69.2236 85.3093C72.872 85.3654 76.5857 85.3187 80.2715 84.9336L83.0398 84.6861L85.7871 84.301C87.6195 84.0816 89.4214 83.6894 91.2117 83.344C94.7901 82.611 98.2541 81.64 101.559 80.5546C104.851 79.4225 108.016 78.2601 110.929 76.9459C111.662 76.6262 112.383 76.3157 113.097 76.0076C113.795 75.6621 114.474 75.3166 115.149 74.9805C116.487 74.2896 117.822 73.699 119.026 72.9894C121.437 71.5819 123.72 70.4032 125.609 69.138C127.52 67.9102 129.234 66.8949 130.536 65.9098C133.216 64.0285 134.749 62.957 134.749 62.957C134.749 62.957 133.286 64.1265 130.728 66.1713C129.469 67.2263 127.807 68.3234 125.942 69.6516C124.112 71.0217 121.881 72.3242 119.481 73.8017C118.284 74.5487 116.96 75.1883 115.632 75.9259C114.962 76.2853 114.281 76.6542 113.592 77.0253C112.88 77.3638 112.161 77.6976 111.428 78.043C108.522 79.4599 105.355 80.753 102.024 81.9131C98.6742 83.0499 95.1613 84.0699 91.5316 84.8519C89.7156 85.223 87.888 85.6432 86.0276 85.8789L83.2335 86.2991L80.4185 86.5792C76.6581 86.9316 72.8789 86.9456 69.1699 86.8499C65.4655 86.6468 61.8195 86.3738 58.3322 85.7786C54.8379 85.2604 51.5024 84.4971 48.3839 83.6358C45.256 82.8094 42.3709 81.7894 39.7239 80.8323C34.444 78.8343 30.2634 76.6775 27.411 75.0599C24.5563 73.4423 23.0508 72.3172 23.0508 72.3172Z" fill="#3DFFDD"/>
<path d="M142.518 78.6016C142.518 78.6016 142.098 79.8714 140.984 81.9395C140.403 82.9595 139.68 84.1873 138.723 85.5155C138.272 86.2041 137.738 86.895 137.157 87.6046C136.564 88.3025 135.999 89.1008 135.28 89.8057C134.58 90.5316 133.847 91.2903 133.093 92.0722C132.325 92.8472 131.445 93.5474 130.588 94.3247C128.903 95.9307 126.839 97.2519 124.806 98.7551C123.725 99.3993 122.624 100.058 121.506 100.727C120.39 101.4 119.265 102.081 118.053 102.621C115.663 103.767 113.271 105.018 110.719 105.891C109.461 106.36 108.194 106.822 106.94 107.287C105.673 107.718 104.37 108.017 103.103 108.391C101.828 108.738 100.563 109.096 99.3143 109.434C98.0725 109.8 96.7958 109.962 95.568 110.223C93.0937 110.676 90.7198 111.22 88.4253 111.446C86.1355 111.677 83.974 111.894 81.9759 112.102C79.9848 112.368 78.1408 112.373 76.5115 112.394C74.8869 112.422 73.4631 112.445 72.296 112.469C69.9618 112.485 68.6289 112.499 68.6289 112.499C68.6289 112.499 69.9571 112.373 72.2819 112.146C73.4444 112.046 74.8519 111.922 76.4695 111.78C78.0848 111.642 79.9101 111.504 81.8755 111.175C83.8525 110.891 85.986 110.58 88.2455 110.251C89.3753 110.123 90.5145 109.831 91.6816 109.574C92.8557 109.329 94.0484 109.075 95.2645 108.822C96.4736 108.542 97.7341 108.372 98.9526 107.996C100.178 107.634 101.42 107.275 102.669 106.906C103.913 106.528 105.19 106.21 106.429 105.772C107.655 105.298 108.892 104.826 110.122 104.353C112.643 103.531 114.998 102.338 117.36 101.243C118.56 100.737 119.664 100.086 120.768 99.439C121.865 98.8018 122.958 98.1692 124.027 97.5529C125.042 96.848 126.043 96.1571 127.021 95.4849C127.509 95.1441 128.016 94.8336 128.478 94.4812C128.928 94.1147 129.379 93.7552 129.815 93.4004C130.691 92.6745 131.582 92.0232 132.367 91.2996C133.139 90.562 133.884 89.8524 134.605 89.1685C135.345 88.5056 135.917 87.74 136.552 87.091C137.173 86.4351 137.747 85.7956 138.23 85.149C139.262 83.9072 140.058 82.7448 140.707 81.7784C141.316 80.791 141.811 80.0161 142.086 79.4582C142.385 78.9097 142.518 78.6016 142.518 78.6016Z" fill="#3DFFDD"/>
<defs>
<radialGradient id="paint0_radial_1155_7139" cx="0" cy="0" r="1" gradientUnits="userSpaceOnUse" gradientTransform="translate(68.6296 30.502) rotate(90) scale(66.1981 82.7072)">
<stop stop-color="#CBFFCE"/>
<stop offset="0.461538" stop-color="#90E0AB"/>
<stop offset="1" stop-color="#0FC1A1"/>
</radialGradient>
</defs>
</svg>
