<svg width="17" height="16" viewBox="0 0 17 16" fill="none" xmlns="http://www.w3.org/2000/svg">
<path d="M8.33333 3C5 3 2.15333 5.07333 1 8C2.15333 10.9267 5 13 8.33333 13C11.6667 13 14.5133 10.9267 15.6667 8C14.5133 5.07333 11.6667 3 8.33333 3ZM8.33333 11.3333C6.49333 11.3333 5 9.84 5 8C5 6.16 6.49333 4.66667 8.33333 4.66667C10.1733 4.66667 11.6667 6.16 11.6667 8C11.6667 9.84 10.1733 11.3333 8.33333 11.3333ZM8.33333 6C7.22667 6 6.33333 6.89333 6.33333 8C6.33333 9.10667 7.22667 10 8.33333 10C9.44 10 10.3333 9.10667 10.3333 8C10.3333 6.89333 9.44 6 8.33333 6Z" fill="black" fill-opacity="0.5"/>
</svg>
