<svg width="41" height="40" viewBox="0 0 41 40" fill="none" xmlns="http://www.w3.org/2000/svg">
<rect x="0.400391" width="40" height="40" rx="20" fill="#FF0000"/>
<path d="M32.3519 14.0379C32.0777 12.941 31.2093 12.0727 30.1582 11.7984C28.1929 11.25 20.4232 11.25 20.4232 11.25C20.4232 11.25 12.6079 11.25 10.6426 11.7984C9.59143 12.0727 8.72306 12.941 8.44884 14.0379C7.90039 15.9575 7.90039 20.0708 7.90039 20.0708C7.90039 20.0708 7.90039 24.1385 8.44884 26.1037C8.72306 27.2006 9.59143 28.0233 10.6426 28.2975C12.6079 28.8003 20.4232 28.8003 20.4232 28.8003C20.4232 28.8003 28.1929 28.8003 30.1582 28.2975C31.2093 28.0233 32.0777 27.2006 32.3519 26.1037C32.9004 24.1385 32.9004 20.0708 32.9004 20.0708C32.9004 20.0708 32.9004 15.9575 32.3519 14.0379ZM17.8638 23.7729V16.3688L24.3538 20.0708L17.8638 23.7729Z" fill="white"/>
</svg>
