<svg width="1440" height="558" viewBox="0 0 1440 558" fill="none" xmlns="http://www.w3.org/2000/svg">
<g clip-path="url(#clip0_353_16904)">
<rect width="1440" height="558" fill="white"/>
<g clip-path="url(#clip1_353_16904)">
<g opacity="0.22" filter="url(#filter0_f_353_16904)">
<ellipse cx="642.5" cy="501" rx="642.5" ry="501" transform="matrix(-1 0 0 1 2249 -480)" fill="url(#paint0_radial_353_16904)"/>
</g>
</g>
<g opacity="0.4">
<path d="M2021.85 679.976C1949.48 684.893 1888.07 592.958 1823.07 495.628C1745.3 379.198 1664.88 258.791 1551.4 271.891C1464.58 281.919 1370.67 369.892 1264.27 540.836C1182.58 672.092 1123.93 736.353 1084.94 737.299C1031.03 738.602 1018.28 618.562 1004.78 491.469C987.981 333.404 970.614 169.947 877.432 170.529C806.155 170.962 700.938 269.679 555.775 472.3C417.603 665.166 303.738 761.965 207.71 768.205C95.7299 775.505 21.8676 654.743 -40.0959 523.674L-37.6608 535.961C24.7377 666.415 96.08 777.343 207.415 770.099C304.875 763.754 419.719 666.492 558.517 472.763C703.002 271.095 807.134 172.844 876.862 172.419C967.744 171.861 985.815 341.927 1001.76 491.967C1015.94 625.35 1028.17 740.548 1084.46 739.188C1125.6 738.195 1183.63 675.28 1267.09 541.194C1372.95 371.097 1465.94 283.627 1551.36 273.755C1662.78 260.881 1742.83 380.731 1820.24 496.638C1885.59 594.477 1947.31 686.895 2021.57 681.846C2038.82 680.673 2056.01 674.395 2073.41 662.911L2072.98 660.761C2055.71 672.475 2038.77 678.827 2021.85 679.976Z" fill="url(#paint1_linear_353_16904)"/>
<path d="M209.766 752.042C308.495 745.169 422.838 650.07 559.338 461.319C701.857 264.248 805.672 168.127 876.695 167.442C969.765 166.549 991.783 334.051 1011.21 481.839C1028.49 613.178 1043.39 726.618 1100.94 724.992C1142.79 723.819 1200.45 662.217 1282.39 531.15C1385.86 365.652 1478.08 280.134 1564.32 269.698C1678.54 255.871 1763.07 374.617 1844.83 489.45C1913.68 586.16 1978.72 677.509 2054.57 672.076C2061.23 671.594 2067.87 670.352 2074.49 668.431L2074.13 666.611C2067.7 668.505 2061.27 669.729 2054.83 670.188C1980.85 675.49 1916.14 584.617 1847.65 488.403C1765.52 373.056 1680.59 253.768 1564.35 267.844C1476.72 278.444 1383.58 364.453 1279.59 530.787C1199.37 659.08 1141.09 721.994 1101.41 723.115C1046.23 724.677 1030.7 606.475 1014.24 481.314C994.725 332.896 972.602 164.646 877.251 165.555C804.694 166.253 699.819 262.852 556.612 460.865C420.725 648.759 307.34 743.393 210.03 750.171C100.935 757.768 24.9184 650.391 -39.1504 528.509L-37.0461 539.127C27.3289 660.242 100.943 759.623 209.766 752.042Z" fill="url(#paint2_linear_353_16904)"/>
<path d="M211.92 734.308C311.88 726.886 425.723 633.922 559.963 450.095C700.57 257.564 804.062 163.511 876.365 162.565C971.684 161.318 997.68 326.347 1020.63 471.933C1041.01 601.306 1058.61 713.035 1117.45 711.126C1159.41 709.757 1218.38 647.678 1297.75 521.338C1398.86 360.39 1490.32 276.797 1577.34 265.783C1694.39 250.972 1783.52 368.653 1869.72 482.467C1937.54 572.001 2001.84 656.883 2073.34 662.531L2072.94 660.522C2003.36 654.108 1939.68 570.062 1872.53 481.393C1785.94 367.075 1696.41 248.863 1577.34 263.93C1488.96 275.112 1396.59 359.192 1294.96 520.972C1216.21 646.338 1158.3 707.927 1117.91 709.233C1061.42 711.069 1043.07 594.641 1023.65 471.375C1000.6 325.137 974.49 159.399 876.92 160.67C803.093 161.643 698.529 256.152 557.245 449.61C423.613 632.595 310.738 725.107 212.174 732.422C105.268 740.356 27.348 643.79 -38.845 530.003L-36.9852 539.387C29.3844 652.358 105.007 742.243 211.92 734.308Z" fill="url(#paint3_linear_353_16904)"/>
<path d="M213.875 716.876C315.01 708.911 428.357 618.031 560.37 439.065C699.088 251.01 802.294 158.999 875.882 157.779C973.502 156.154 1003.52 318.766 1030.01 462.226C1053.54 589.7 1073.86 699.771 1134.03 697.557C1176.68 695.985 1235.29 635.215 1313.23 511.764C1412.01 355.297 1502.66 273.6 1590.39 262.013C1710.36 246.169 1804.19 362.854 1894.93 475.689C1953.95 549.06 2010.42 619.244 2069.7 644.127L2069.17 641.451C2011.47 615.988 1955.83 546.862 1897.72 474.598C1806.58 361.257 1712.33 244.058 1590.37 260.17C1501.31 271.93 1409.74 354.109 1310.45 511.4C1233.13 633.886 1175.56 694.159 1134.48 695.67C1076.64 697.797 1055.46 583.09 1033.04 461.648C1006.44 317.555 976.291 154.222 876.423 155.887C801.334 157.142 697.071 249.618 557.667 438.586C426.268 616.733 313.886 707.15 214.113 715.018C108.939 723.3 29.2809 635.781 -38.9865 529.237L-37.3806 537.339C-17.3206 568.285 3.61685 597.327 25.897 622.689C86.1638 691.28 147.649 722.098 213.875 716.876Z" fill="url(#paint4_linear_353_16904)"/>
<path d="M215.627 699.751C317.906 691.224 430.733 602.408 560.539 428.235C697.414 244.595 800.348 154.585 875.224 153.069C975.232 151.04 1009.3 311.326 1039.37 452.742C1066.07 578.345 1089.14 686.826 1150.65 684.297C1193.98 682.511 1252.25 623.018 1328.77 502.416C1425.25 350.373 1515.1 270.556 1603.48 258.401C1726.41 241.48 1825.08 357.229 1920.5 469.161C1969.16 526.236 2016.17 581.343 2063.77 614.158L2063.07 610.66C2016.84 577.795 1970.83 523.844 1923.24 468.02C1827.41 355.605 1728.32 239.36 1603.42 256.547C1513.73 268.882 1422.98 349.192 1325.98 502.038C1250.07 621.689 1192.85 680.676 1151.06 682.401C1091.85 684.841 1067.83 571.802 1042.39 452.131C1012.19 310.089 977.964 149.106 875.745 151.181C799.373 152.723 695.38 243.189 557.828 427.749C428.628 601.104 316.754 689.464 215.841 697.877C149.16 703.437 86.2845 673.502 23.6167 606.345C1.56763 582.719 -19.3162 555.796 -39.4225 527.107L-38.029 534.139C-19.1836 560.627 0.355813 585.495 20.9123 607.529C84.1113 675.233 147.808 705.401 215.627 699.751Z" fill="url(#paint5_linear_353_16904)"/>
<path d="M217.196 682.922C320.556 673.837 432.85 587.052 560.483 417.619C695.537 238.328 798.214 150.288 874.376 148.463C976.817 146.013 1014.98 304.036 1048.67 443.46C1078.59 567.269 1104.41 674.195 1167.32 671.327C1211.34 669.314 1269.26 611.078 1344.39 493.301C1438.6 345.624 1527.61 267.645 1616.56 254.923C1742.53 236.894 1846.14 351.742 1946.33 462.815C1983.63 504.154 2019.99 544.441 2056.16 575.779L2055.32 571.549C2020.4 540.735 1985.16 501.684 1949.05 461.654C1848.42 350.121 1744.38 234.783 1616.47 253.088C1526.22 265.999 1436.31 344.452 1341.6 492.931C1267.09 609.767 1210.2 667.505 1167.72 669.439C1107.09 672.206 1080.18 560.779 1051.68 442.825C1017.86 302.785 979.518 144.065 874.881 146.565C797.246 148.428 693.51 236.921 557.78 417.105C430.75 585.739 319.409 672.068 217.381 681.045C149.04 687.054 83.9191 657.738 18.2913 591.437C-1.99292 570.954 -21.3862 547.925 -40.1655 523.406L-38.9059 529.762C-21.3608 552.357 -3.2609 573.59 15.6068 592.65C81.7817 659.508 147.725 689.028 217.196 682.922Z" fill="url(#paint6_linear_353_16904)"/>
<path d="M1629.59 249.753C1538.85 263.227 1449.81 339.853 1357.35 484.018C1284.18 598.078 1227.64 654.585 1184.46 656.753C1122.39 659.871 1092.56 550.014 1060.99 433.703C1023.48 295.6 980.983 139.069 873.843 142.034C794.931 144.211 691.459 230.777 557.496 406.66C432.624 570.616 321.817 654.955 218.755 664.486C148.702 670.963 81.2818 642.28 12.637 576.795C-5.85808 559.152 -23.7034 539.595 -41.0663 518.809L-39.9325 524.531C-23.7609 543.644 -7.1696 561.675 9.98767 578.044C79.1883 644.059 147.431 672.945 218.586 666.368C322.97 656.72 434.724 571.933 560.193 407.178C693.478 232.181 795.913 146.073 873.367 143.934C978.333 141.024 1020.65 296.88 1057.98 434.383C1091.13 556.451 1119.75 661.875 1184.1 658.644C1228.79 656.405 1286.37 599.407 1360.13 484.41C1452.08 341.038 1540.26 264.883 1629.69 251.602C1758.77 232.422 1867.45 346.437 1972.56 456.694C1997.97 483.352 2022.97 509.564 2047.73 533.17L2046.82 528.548C2023.26 505.857 1999.44 480.881 1975.25 455.504C1869.71 344.782 1760.57 230.295 1629.59 249.753Z" fill="url(#paint7_linear_353_16904)"/>
<path d="M219.812 650.078C325.171 639.863 436.359 557.047 559.721 396.905C691.258 226.16 793.463 141.942 872.177 139.471C979.722 136.09 1026.24 289.832 1067.28 425.485C1102.17 540.868 1135.14 649.852 1200.96 646.24C1246.32 643.76 1303.57 587.971 1375.98 475.72C1465.72 336.592 1553.02 262.229 1642.88 248.4C1775.09 228.048 1888.99 341.268 1999.13 450.757C2012.62 464.161 2026 477.444 2039.27 490.356L2038.33 485.638C2026.24 473.841 2014.07 461.745 2001.8 449.543C1891.19 339.602 1776.84 225.926 1642.74 246.571C1551.6 260.601 1463.43 335.43 1373.19 475.342C1301.38 586.666 1245.16 641.959 1201.3 644.368C1137.74 647.849 1104.95 539.504 1070.26 424.792C1029.04 288.556 982.332 134.142 872.638 137.599C792.475 140.12 689.235 224.773 557.034 396.401C434.279 555.76 324.017 638.129 219.952 648.223C148.155 655.187 78.3755 627.121 6.62429 562.427C-10.0594 547.38 -26.2883 530.895 -42.1381 513.44L-41.0916 518.721C-26.3963 534.689 -11.3834 549.805 4.02199 563.7C76.3288 628.885 146.915 657.146 219.812 650.078Z" fill="url(#paint8_linear_353_16904)"/>
<path d="M220.88 634.043C327.135 623.264 437.75 542.388 559 386.812C688.809 220.25 790.801 137.91 870.786 135.092C980.995 131.214 1031.76 282.918 1076.53 416.769C1114.62 530.591 1150.58 638.1 1217.9 634.095C1263.91 631.356 1320.84 576.773 1391.91 467.218C1479.45 332.283 1565.86 259.707 1656.07 245.331C1791.48 223.768 1910.73 336.248 2026.05 445.029C2027.79 446.669 2029.53 448.306 2031.26 449.947L2030.35 445.365C2029.8 444.832 2029.24 444.307 2028.69 443.782C1912.91 334.567 1793.18 221.634 1655.9 243.508C1564.43 258.082 1477.17 331.131 1389.12 466.838C1318.65 575.469 1262.74 629.565 1218.22 632.215C1153.13 636.081 1117.37 529.203 1079.51 416.044C1034.52 281.621 983.551 129.244 871.209 133.21C789.798 136.083 686.792 218.862 556.296 386.29C435.643 541.11 325.954 621.535 220.97 632.185C147.383 639.653 75.1961 612.208 0.264225 548.288C-14.581 535.618 -29.0948 521.883 -43.344 507.419L-42.3761 512.304C-29.2636 525.441 -15.9278 537.963 -2.30526 549.584C73.216 613.989 146.208 641.62 220.88 634.043Z" fill="url(#paint9_linear_353_16904)"/>
<path d="M221.794 618.253C328.891 606.918 438.885 527.962 558.055 376.892C686.174 214.47 787.94 133.972 869.193 130.795C982.143 126.377 1037.2 276.125 1085.8 408.232C1127.1 520.553 1166.11 626.638 1234.96 622.208C1281.62 619.211 1338.21 565.8 1407.98 458.926C1493.36 328.123 1578.85 257.3 1669.31 242.408C1796.77 221.424 1912.46 314.179 2024.02 413.268L2023.16 408.917C1912.19 310.576 1796.98 219.534 1669.12 240.58C1577.41 255.677 1491.08 326.971 1405.21 458.541C1336.04 564.502 1280.45 617.425 1235.27 620.323C1168.61 624.615 1129.83 519.137 1088.76 407.479C1039.98 274.792 984.664 124.409 869.614 128.901C786.963 132.135 684.179 213.077 555.388 376.346C436.811 526.669 327.731 605.188 221.89 616.389C122.21 626.952 34.6565 574.637 -44.6854 500.519L-43.7151 505.416C-32.27 516.008 -20.6719 526.163 -8.88604 535.701C69.8546 599.349 145.323 626.353 221.794 618.253Z" fill="url(#paint10_linear_353_16904)"/>
<path d="M222.53 602.74C330.396 590.841 439.752 513.788 556.867 367.148C683.329 208.808 784.904 130.117 867.374 126.573C983.148 121.607 1042.59 269.462 1095.03 399.907C1139.6 510.767 1181.69 615.477 1252.12 610.609C1299.41 607.341 1355.67 555.095 1424.12 450.867C1507.38 324.123 1591.92 255.03 1682.56 239.636C1800.86 219.555 1911.12 293.384 2017.57 380.755L2016.76 376.679C1910.86 290.117 1800.99 217.672 1682.34 237.818C1590.46 253.419 1505.08 322.984 1421.34 450.478C1353.47 553.798 1298.21 605.569 1252.39 608.733C1184.14 613.451 1142.28 509.343 1097.97 399.122C1045.31 268.12 985.61 119.63 867.762 124.694C783.894 128.295 681.321 207.422 554.187 366.605C437.67 512.492 329.21 589.125 222.59 600.875C145.307 609.392 68.1255 583.175 -13.368 520.716C-24.3817 512.266 -35.2432 503.302 -45.9909 493.988L-45.1456 498.254C-35.4846 506.53 -25.7423 514.504 -15.8687 522.074C66.2297 584.99 144.191 611.376 222.53 602.74Z" fill="url(#paint11_linear_353_16904)"/>
<path d="M223.101 587.448C331.645 575.021 440.354 499.822 555.44 357.565C680.264 203.262 781.619 126.345 865.312 122.426C983.979 116.872 1047.87 262.901 1104.23 391.747C1152.11 501.201 1197.33 604.588 1269.38 599.257C1317.28 595.714 1373.22 544.593 1440.4 442.992C1521.56 320.244 1605.12 252.865 1695.87 236.988C1805.75 217.763 1910.43 276.306 2011.9 352.226L2011.15 348.433C1910.16 273.31 1805.81 215.899 1695.63 235.166C1603.66 251.254 1519.28 319.102 1437.64 442.582C1371.05 543.305 1316.1 593.935 1269.64 597.369C1199.75 602.542 1154.78 499.754 1107.18 390.917C1050.57 261.528 986.425 114.882 865.705 120.533C780.629 124.515 678.267 201.865 552.777 357.001C438.293 498.527 330.464 573.296 223.148 585.586C143.957 594.651 64.1945 569.031 -20.691 507.275C-29.6834 500.737 -38.5834 493.882 -47.4242 486.793L-46.643 490.736C-38.8724 496.905 -31.0477 502.922 -23.1566 508.668C62.3383 570.868 142.891 596.635 223.101 587.448Z" fill="url(#paint12_linear_353_16904)"/>
<path d="M1708.99 232.667C1617.03 249.22 1533.65 315.375 1454.09 434.913C1388.76 533.059 1334.13 582.571 1287.08 586.28C1215.51 591.931 1167.37 490.396 1116.41 382.91C1055.81 255.081 987.122 110.2 863.457 116.47C777.212 120.846 675.059 196.441 551.188 347.582C438.717 484.795 331.561 557.73 223.615 570.543C142.486 580.176 60.0675 555.168 -28.3036 494.069C-35.2275 489.291 -42.0812 484.298 -48.9027 479.218L-48.1512 483.011C-42.3747 487.263 -36.5746 491.456 -30.7365 495.485C58.2519 556.996 141.433 582.156 223.575 572.4C332.747 559.441 440.764 486.089 553.844 348.147C677.053 197.825 778.205 122.654 863.097 118.352C984.758 112.179 1053.15 256.459 1113.5 383.749C1164.75 491.854 1213.16 593.966 1286.87 588.15C1335.35 584.323 1390.96 534.322 1456.88 435.308C1535.96 316.504 1618.52 250.81 1709.28 234.472C1811.39 216.094 1910.45 262.225 2007.02 327.384L2006.33 323.89C1910.16 259.48 1811.37 214.241 1708.99 232.667Z" fill="url(#paint13_linear_353_16904)"/>
<path d="M1722.39 230.293C1630.52 247.281 1548.19 311.768 1470.66 427.42C1406.59 523.018 1352.28 571.439 1304.64 575.435C1231.35 581.581 1180 481.268 1125.64 375.065C1060.96 248.732 987.664 105.545 860.951 112.47C773.542 117.236 671.605 191.112 549.305 338.301C438.83 471.285 332.377 542.4 223.885 555.729C140.769 565.938 55.6681 541.513 -36.2672 481.066C-41.0079 477.951 -45.736 474.757 -50.4263 471.505L-49.7276 475.031C-46.0421 477.552 -42.364 480.071 -38.659 482.513C53.8971 543.354 139.771 567.908 223.885 557.582C333.568 544.106 440.889 472.572 551.95 338.88C673.571 192.494 774.542 119.043 860.603 114.346C985.33 107.534 1058.32 250.135 1122.72 375.951C1177.39 482.744 1229.03 583.626 1304.43 577.304C1353.48 573.184 1408.76 524.291 1473.42 427.83C1550.46 312.896 1631.99 248.865 1722.68 232.096C1817.6 214.541 1911.04 250.586 2002.74 305.898L2002.1 302.651C1910.77 248.009 1817.54 212.695 1722.39 230.293Z" fill="url(#paint14_linear_353_16904)"/>
<path d="M224.04 542.999C334.176 529.035 440.744 459.288 549.851 329.784C669.907 187.277 770.665 115.527 857.866 110.425C985.74 102.955 1063.42 243.935 1131.95 368.318C1190.1 473.867 1245.02 573.556 1322.15 566.708C1371.76 562.302 1426.71 514.491 1490.13 420.543C1565.15 309.413 1645.62 247.042 1736.14 229.865C1824.33 213.122 1912.23 240.924 1999.07 287.351L1998.46 284.319C1911.94 238.494 1824.22 211.282 1735.82 228.063C1644.14 245.46 1562.87 308.289 1487.37 420.129C1424.52 513.215 1370.54 560.554 1322.33 564.831C1247.3 571.497 1192.67 472.359 1134.84 367.399C1066.04 242.506 988.044 100.959 858.199 108.544C769.658 113.717 667.941 185.891 547.224 329.192C438.699 458.002 332.978 527.33 224.032 541.144C138.883 551.943 51.0178 528.118 -44.5778 468.3C-47.0658 466.736 -49.5394 465.102 -52.0329 463.509L-51.3582 466.914C-49.8754 467.853 -48.4126 468.833 -46.9244 469.762C49.2966 529.961 137.935 553.919 224.04 542.999Z" fill="url(#paint15_linear_353_16904)"/>
<path d="M224.085 528.631C334.578 514.193 440.385 446.226 547.537 320.834C666.049 182.164 766.595 112.079 854.913 106.571C986.032 98.3988 1068.47 237.835 1141.21 360.847C1202.9 465.193 1261.17 563.752 1340.07 556.344C1390.19 551.639 1444.81 504.895 1507 413.437C1580.05 306.04 1659.43 245.308 1749.7 227.743C1831.56 211.824 1913.95 232.867 1995.9 271.351L1995.41 268.864C1994.25 268.323 1993.09 267.753 1991.93 267.221C1900.66 225.453 1821.32 211.953 1749.35 225.95C1657.93 243.729 1577.76 304.92 1504.24 413.015C1442.61 503.626 1388.95 549.897 1340.22 554.471C1263.38 561.69 1205.43 463.669 1144.08 359.891C1071.05 236.381 988.284 96.3917 855.223 104.682C765.593 110.263 664.096 180.772 544.92 320.219C438.343 444.918 333.388 512.491 224.054 526.768C136.874 538.164 46.1854 514.925 -53.1669 455.713C-53.3122 455.62 -53.4658 455.52 -53.6231 455.438L-52.9837 458.665C46.0069 517.154 136.671 540.057 224.085 528.631Z" fill="url(#paint16_linear_353_16904)"/>
<path d="M223.966 514.484C334.736 499.596 439.739 433.367 544.975 312.033C661.959 177.14 762.288 108.702 851.676 102.79C986.119 93.899 1073.41 231.84 1150.44 353.545C1215.74 456.734 1277.43 554.203 1358.14 546.22C1408.77 541.215 1463.03 495.518 1524.02 406.524C1595.12 302.789 1673.4 243.664 1763.32 225.761C1839.16 210.663 1916.14 226.171 1993.17 257.636L1992.71 255.315C1906.57 220.639 1831.22 210.378 1762.97 223.965C1671.9 242.099 1592.85 301.674 1521.27 406.099C1460.84 494.256 1407.53 539.476 1358.28 544.349C1279.61 552.131 1218.26 455.188 1153.31 352.555C1075.98 230.371 988.336 91.8865 851.978 100.902C761.297 106.905 660.021 175.757 542.377 311.407C437.716 432.085 333.555 497.901 223.931 512.638C136.62 524.371 45.2191 502.941 -55.2772 447.169L-54.657 450.298C45.3274 505.23 136.579 526.228 223.966 514.484Z" fill="url(#paint17_linear_353_16904)"/>
<path d="M223.729 500.555C334.685 485.249 438.86 420.75 542.203 303.381C657.678 172.222 757.777 105.392 848.211 99.0723C986.067 89.4374 1078.33 225.962 1159.73 346.402C1228.72 448.482 1293.89 544.895 1376.43 536.324C1427.51 531.019 1481.42 486.349 1541.22 399.796C1610.4 299.658 1687.54 242.123 1777.04 223.903C1846.4 209.788 1918.65 221.247 1990.99 246.612L1990.43 243.777C1910.67 216.223 1840.39 209.146 1776.66 222.113C1686.04 240.567 1608.13 298.539 1538.47 399.363C1479.24 485.098 1426.27 529.293 1376.54 534.458C1296.01 542.83 1231.19 446.928 1162.57 345.389C1080.86 224.477 988.234 87.4261 848.481 97.1955C756.781 103.605 655.749 170.842 539.597 302.752C436.841 419.45 333.495 483.55 223.668 498.715C136.383 510.758 44.4505 491.129 -56.9299 438.792L-56.3386 441.776C44.562 493.364 136.355 512.612 223.729 500.555Z" fill="url(#paint18_linear_353_16904)"/>
<path d="M223.35 486.821C334.383 471.121 437.692 408.335 539.166 294.872C653.151 167.398 753.016 102.164 844.448 95.4333C985.822 85.0248 1083.15 220.186 1169.03 339.433C1241.76 440.446 1310.48 535.861 1394.91 526.666C1446.42 521.044 1499.96 477.41 1558.58 393.265C1625.89 296.635 1701.86 240.683 1790.87 222.183C1854.79 208.892 1921.6 216.595 1989.02 236.645L1988.49 233.988C1914.99 212.503 1849.74 208.069 1790.46 220.403C1700.36 239.131 1623.62 295.524 1555.84 392.819C1497.78 476.159 1445.17 519.33 1395 524.795C1312.55 533.781 1244.2 438.869 1171.84 338.378C1085.64 218.679 987.932 83.0082 844.702 93.5513C752.02 100.373 651.248 166.008 536.591 294.22C435.7 407.03 333.21 469.436 223.267 484.98C136.021 497.327 43.5976 479.417 -58.6015 430.313L-58.0366 433.164C43.7122 481.596 136.013 499.173 223.35 486.821Z" fill="url(#paint19_linear_353_16904)"/>
<path d="M222.828 473.305C333.886 457.238 436.302 396.128 535.92 286.498C648.441 162.66 748.058 98.9881 840.446 91.8544C985.412 80.6455 1087.91 214.506 1178.36 332.599C1254.93 432.6 1327.26 527.05 1413.62 517.215C1465.53 511.3 1518.69 468.669 1576.16 386.882C1641.62 293.709 1716.41 239.297 1804.81 220.554C1863.48 208.115 1924.95 212.786 1987.36 228.221L1986.86 225.698C1919.5 209.39 1859.25 207.145 1804.39 218.772C1714.9 237.749 1639.35 292.596 1573.43 386.429C1516.53 467.411 1464.28 509.58 1413.69 515.343C1329.3 524.952 1257.33 430.992 1181.16 331.513C1090.38 212.973 987.493 78.6258 840.692 89.9654C747.082 97.1929 646.549 161.26 533.368 285.82C434.324 394.825 332.712 455.541 222.75 471.454C135.536 484.068 42.6745 467.791 -60.2909 421.72L-59.7372 424.514C42.7943 469.96 135.54 485.937 222.828 473.305Z" fill="url(#paint20_linear_353_16904)"/>
<path d="M1818.41 217.291C1729.61 236.478 1655.28 289.783 1591.17 380.237C1535.42 458.89 1483.54 500.076 1432.58 506.126C1346.2 516.399 1270.56 423.337 1190.47 324.819C1095.01 207.394 986.82 74.2987 836.368 86.4589C741.86 94.0987 641.604 156.611 529.88 277.569C432.652 382.829 331.966 441.888 222.057 458.136C134.923 471.015 41.6485 456.243 -61.9989 413.063L-61.4644 415.761C41.783 458.381 134.937 472.865 222.16 459.973C333.145 443.572 434.637 384.127 532.446 278.248C643.525 157.985 742.86 95.8723 836.155 88.3331C984.808 76.309 1092.61 208.919 1187.71 325.917C1268.21 424.942 1344.24 518.474 1432.55 507.972C1484.83 501.755 1537.6 460.116 1593.91 380.671C1657.56 290.871 1731.14 238.009 1818.86 219.055C1872.43 207.482 1928.62 209.724 1985.98 221.189L1985.5 218.792C1924.16 206.843 1868.9 206.388 1818.41 217.291Z" fill="url(#paint21_linear_353_16904)"/>
<path d="M221.324 446.853C332.136 430.146 432.693 372.352 528.692 270.141C638.343 153.415 737.414 92.817 831.553 84.8802C983.989 72.0263 1097.2 203.456 1197.1 319.409C1281.59 417.504 1361.4 510.148 1451.71 498.971C1504.3 492.469 1556.67 451.803 1611.83 374.672C1673.71 288.168 1746.06 236.817 1833.02 217.689C1881.59 207.001 1932.57 207.328 1984.83 215.413L1984.37 213.129C1928.96 204.814 1878.68 205.763 1832.56 215.907C1744.53 235.282 1671.44 287.053 1609.1 374.208C1554.49 450.562 1503.02 490.768 1451.71 497.109C1363.32 508.059 1283.91 415.861 1199.84 318.26C1099.6 201.899 985.984 69.9987 831.772 82.9967C736.434 91.0355 636.481 152.018 526.171 269.445C430.732 371.029 330.979 428.467 221.213 445.01C134.161 458.125 40.535 444.818 -63.7296 404.356L-63.2128 406.964C40.6624 446.919 134.184 459.986 221.324 446.853Z" fill="url(#paint22_linear_353_16904)"/>
<path d="M1846.83 214.654C1759.64 234.165 1687.81 284.431 1627.21 368.361C1573.73 442.442 1522.65 481.677 1471.06 488.318C1380.62 499.963 1297.35 408.601 1209.2 311.861C1104.06 196.508 984.913 65.7621 826.861 79.6223C730.747 88.0493 631.089 147.532 522.194 261.462C428.533 359.464 329.741 415.28 220.203 432.085C133.253 445.428 39.3403 433.484 -65.4751 395.614L-64.9695 398.165C39.4873 435.577 133.308 447.27 220.348 433.918C330.918 416.952 430.484 360.773 524.723 262.169C632.956 148.916 731.73 89.8093 826.674 81.4869C982.981 67.7859 1101.72 198.08 1206.48 313.031C1295.07 410.235 1378.74 502.046 1471.09 490.161C1523.94 483.359 1575.92 443.666 1629.95 368.821C1690.08 285.53 1761.18 235.681 1847.32 216.41C1891 206.643 1936.81 205.515 1983.9 210.766L1983.47 208.587C1933.91 203.277 1888.6 205.315 1846.83 214.654Z" fill="url(#paint23_linear_353_16904)"/>
<path d="M1861.31 213.504C1775.04 233.109 1704.47 281.898 1645.6 362.682C1593.22 434.533 1542.55 472.823 1490.7 479.748C1398.17 492.103 1310.96 401.526 1218.63 305.631C1108.5 191.237 983.661 61.584 821.686 76.3141C724.83 85.1227 625.51 143.11 518.014 253.605C426.09 348.105 328.294 402.326 219.069 419.358C132.262 432.892 38.0684 422.234 -67.2065 386.812L-66.7153 389.291C38.2361 424.289 132.324 434.732 219.219 421.186C329.456 403.995 428.026 349.408 520.531 254.323C627.364 144.501 725.827 86.8799 821.527 78.1774C981.778 63.6064 1106.19 192.816 1215.96 306.813C1308.74 403.179 1396.37 494.189 1490.76 481.585C1543.85 474.492 1595.4 435.759 1648.32 363.152C1706.75 283 1776.58 234.628 1861.81 215.262C1900.64 206.439 1941.32 204.256 1983.2 207.185L1982.78 205.091C1939.01 202.194 1898.67 205.013 1861.31 213.504Z" fill="url(#paint24_linear_353_16904)"/>
<path d="M516.072 246.578C621.528 140.124 719.653 83.9683 816.041 74.8949C980.361 59.4419 1110.58 187.632 1225.45 300.734C1322.51 396.276 1414.18 486.535 1510.66 473.2C1563.96 465.831 1615.06 428.022 1666.88 357.642C1723.63 280.559 1792.19 233.637 1876.45 214.202C1910.48 206.355 1946.04 203.475 1982.68 204.553L1982.28 202.539C1944.23 201.55 1908.88 204.846 1875.93 212.448C1790.64 232.114 1721.38 279.446 1664.17 357.153C1612.89 426.795 1562.66 464.147 1510.6 471.351C1415.95 484.439 1324.71 394.603 1228.11 299.507C1112.84 186.03 982.2 57.4113 816.186 73.0301C718.662 82.2016 619.673 138.733 513.585 245.837C423.359 336.918 326.583 389.568 217.722 406.802C131.091 420.511 36.7261 411.084 -68.9548 377.99L-68.478 380.396C36.8948 413.11 131.179 422.342 217.899 408.62C327.739 391.239 425.276 338.233 516.072 246.578Z" fill="url(#paint25_linear_353_16904)"/>
<path d="M511.362 238.985C615.459 135.842 713.227 81.1223 810.253 71.7129C978.693 55.3553 1114.86 182.575 1234.98 294.81C1336.42 389.584 1432.23 479.108 1530.83 465.024C1584.27 457.387 1634.92 420.515 1685.66 352.303C1740.78 278.21 1808.03 232.729 1891.25 213.272C1920.49 206.431 1950.95 203.166 1982.33 202.855L1981.94 200.902C1949.55 201.329 1919.2 204.854 1890.72 211.511C1806.49 231.205 1738.52 277.104 1682.94 351.809C1632.75 419.288 1582.97 455.712 1530.73 463.177C1433.95 477.009 1338.58 387.895 1237.61 293.552C1117.09 180.954 980.491 53.3287 810.391 69.8455C712.246 79.3705 613.626 134.455 508.881 238.235C420.319 325.976 324.589 377.075 216.222 394.451C129.784 408.315 35.278 400.03 -70.7276 369.139L-70.2549 371.524C35.455 402.063 129.873 410.155 216.394 396.283C325.764 378.734 422.242 327.286 511.362 238.985Z" fill="url(#paint26_linear_353_16904)"/>
<path d="M1905.74 210.657C1822.62 230.337 1755.97 274.811 1701.99 346.609C1652.87 411.953 1603.54 447.471 1551.2 455.189C1452.24 469.777 1352.63 381.348 1247.17 287.722C1121.29 175.951 978.604 49.2687 804.306 66.6888C705.601 76.5511 607.36 130.204 503.968 230.713C417.052 315.196 322.39 364.782 214.545 382.27C121.296 397.405 24.6282 386.425 -72.5277 359.998L-72.0141 362.59C33.942 391.063 128.439 398.094 214.729 384.091C323.542 366.433 418.956 316.518 506.432 231.479C609.186 131.596 706.581 78.2989 804.182 68.5535C976.857 51.2981 1119.09 177.582 1244.59 289C1350.52 383.05 1450.57 471.881 1551.31 457.024C1604.85 449.132 1655.04 413.181 1704.7 347.113C1758.22 275.923 1824.16 231.865 1906.28 212.411C1930.72 206.618 1956.07 203.251 1982.16 201.974L1981.78 200.081C1955.01 201.472 1929.68 204.982 1905.74 210.657Z" fill="url(#paint27_linear_353_16904)"/>
<path d="M1920.94 209.909C1838.99 229.553 1773.67 272.622 1721.25 341.587C1673.19 404.826 1624.35 439.434 1571.93 447.403C1470.79 462.766 1366.84 374.984 1256.81 282.034C1125.41 171.055 976.493 45.2666 797.905 63.5912C698.698 73.7707 600.861 126.008 498.788 223.32C413.492 304.631 319.903 352.694 212.655 370.279C119.92 385.481 23.2627 375.801 -74.2782 351.131L-73.7695 353.699C32.3466 380.203 126.85 386.199 212.848 372.106C321.031 354.367 415.363 305.964 501.223 224.117C602.644 127.43 699.66 75.5308 797.784 65.4682C974.768 47.3084 1123.25 172.713 1254.25 283.355C1364.77 376.701 1469.16 464.869 1572.06 449.241C1625.67 441.102 1675.35 406.053 1723.96 342.104C1775.92 273.739 1840.54 231.075 1921.51 211.667C1941.13 206.962 1961.39 203.796 1982.16 201.97L1981.79 200.102C1960.56 202.006 1940.29 205.271 1920.94 209.909Z" fill="url(#paint28_linear_353_16904)"/>
<path d="M495.778 216.837C595.895 123.281 692.496 72.7703 791.067 62.4052C972.44 43.3424 1127.29 167.911 1263.92 277.817C1379.15 370.503 1488 458.053 1593.09 441.637C1646.71 433.255 1695.9 399.101 1743.46 337.225C1793.9 271.613 1857.19 230.321 1936.94 210.993C1951.7 207.416 1966.85 204.703 1982.31 202.739L1981.94 200.891C1966.2 202.914 1951.01 205.699 1936.39 209.246C1856.78 228.545 1790.97 271.435 1740.78 336.711C1693.75 397.885 1645.4 431.607 1592.96 439.807C1489.59 455.958 1381.21 368.777 1266.47 276.481C1129.45 166.247 974.14 41.3184 791.193 60.5486C691.549 71.0158 594.123 121.874 493.374 216.017C409.652 294.24 317.139 340.84 210.548 358.462C118.357 373.708 21.7992 365.24 -76.0505 342.248L-75.5546 344.751C30.6262 369.378 125.073 374.451 210.74 360.286C318.253 342.511 411.497 295.587 495.778 216.837Z" fill="url(#paint29_linear_353_16904)"/>
<path d="M490.073 209.695C588.911 119.219 685.082 70.0579 784.072 59.4294C969.911 39.4611 1131.3 163.228 1273.71 272.427C1393.76 364.495 1507.16 451.458 1614.48 434.23C1668.06 425.634 1716.72 392.364 1763.25 332.535C1812.21 269.578 1874.17 229.645 1952.66 210.418C1962.48 208.017 1972.46 205.977 1982.62 204.277L1982.27 202.489C1971.95 204.224 1961.88 206.268 1952.08 208.68C1873.73 227.861 1809.31 269.347 1760.57 332.002C1714.57 391.149 1666.73 423.98 1614.31 432.395C1508.7 449.344 1395.77 362.745 1276.21 271.06C1133.4 161.546 971.543 37.4169 784.152 57.5567C684.129 68.309 587.149 117.793 487.672 208.853C405.504 284.073 314.098 329.215 208.233 346.841C116.637 362.096 20.2519 354.786 -77.8001 333.406L-77.3154 335.853C28.8437 358.698 123.147 362.867 208.439 348.662C315.219 330.888 407.343 285.424 490.073 209.695Z" fill="url(#paint30_linear_353_16904)"/>
<path d="M484.141 202.628C581.702 115.168 677.422 67.3608 776.743 56.478C967.132 35.6085 1135.23 158.621 1283.53 267.161C1408.52 358.642 1526.59 445.038 1636.14 427.009C1689.64 418.205 1737.77 385.815 1783.28 327.993C1830.79 267.632 1891.41 229.013 1968.6 209.938C1973.38 208.748 1978.22 207.68 1983.08 206.664L1982.72 204.856C1977.76 205.889 1972.85 206.988 1968 208.187C1890.95 227.23 1827.9 267.366 1780.6 327.446C1735.62 384.595 1688.3 416.575 1635.94 425.187C1528.07 442.944 1410.49 356.885 1286 265.78C1137.28 156.944 968.72 33.5894 776.812 54.6238C676.464 65.6208 579.949 113.757 481.754 201.787C401.082 274.098 310.781 317.804 205.694 335.411C114.735 350.645 18.5948 344.392 -79.5697 324.543L-79.0913 326.957C26.9358 348.105 121.047 351.447 205.907 337.23C310.439 319.707 404.044 274.426 484.141 202.628Z" fill="url(#paint31_linear_353_16904)"/>
</g>
<path d="M0 1H1438V1056H0V1Z" fill="url(#paint32_linear_353_16904)"/>
<g clip-path="url(#clip2_353_16904)">
<g opacity="0.22" filter="url(#filter1_f_353_16904)">
<ellipse cx="509.423" cy="397.369" rx="509.423" ry="397.369" transform="matrix(-1 0 0 1 2415.55 -484.285)" fill="url(#paint33_radial_353_16904)"/>
</g>
</g>
</g>
<rect x="1.5" y="1.5" width="1437" height="555" stroke="url(#paint34_linear_353_16904)" stroke-opacity="0.2" stroke-width="3"/>
<defs>
<filter id="filter0_f_353_16904" x="868" y="-576" width="1477" height="1194" filterUnits="userSpaceOnUse" color-interpolation-filters="sRGB">
<feFlood flood-opacity="0" result="BackgroundImageFix"/>
<feBlend mode="normal" in="SourceGraphic" in2="BackgroundImageFix" result="shape"/>
<feGaussianBlur stdDeviation="48" result="effect1_foregroundBlur_353_16904"/>
</filter>
<filter id="filter1_f_353_16904" x="1300.7" y="-580.285" width="1210.85" height="986.738" filterUnits="userSpaceOnUse" color-interpolation-filters="sRGB">
<feFlood flood-opacity="0" result="BackgroundImageFix"/>
<feBlend mode="normal" in="SourceGraphic" in2="BackgroundImageFix" result="shape"/>
<feGaussianBlur stdDeviation="48" result="effect1_foregroundBlur_353_16904"/>
</filter>
<radialGradient id="paint0_radial_353_16904" cx="0" cy="0" r="1" gradientUnits="userSpaceOnUse" gradientTransform="translate(689.532 457.703) rotate(-90) scale(520.185 667.104)">
<stop stop-color="#106EE8"/>
<stop offset="0.589679" stop-color="#0FC1A1" stop-opacity="0.3"/>
<stop offset="0.85" stop-color="#0FC1A1" stop-opacity="0"/>
</radialGradient>
<linearGradient id="paint1_linear_353_16904" x1="-35.648" y1="497.493" x2="1968.39" y2="564.398" gradientUnits="userSpaceOnUse">
<stop stop-color="#90E0AB" stop-opacity="0"/>
<stop offset="0.461538" stop-color="#0FC1A1"/>
<stop offset="1" stop-color="#90E0AB" stop-opacity="0"/>
</linearGradient>
<linearGradient id="paint2_linear_353_16904" x1="-36.5553" y1="492.979" x2="1967.76" y2="558.85" gradientUnits="userSpaceOnUse">
<stop stop-color="#90E0AB" stop-opacity="0"/>
<stop offset="0.461538" stop-color="#0FC1A1"/>
<stop offset="1" stop-color="#90E0AB" stop-opacity="0"/>
</linearGradient>
<linearGradient id="paint3_linear_353_16904" x1="-37.5558" y1="487.883" x2="1966.52" y2="554.68" gradientUnits="userSpaceOnUse">
<stop stop-color="#90E0AB" stop-opacity="0"/>
<stop offset="0.461538" stop-color="#0FC1A1"/>
<stop offset="1" stop-color="#90E0AB" stop-opacity="0"/>
</linearGradient>
<linearGradient id="paint4_linear_353_16904" x1="-39.0264" y1="480.41" x2="1962.71" y2="555.808" gradientUnits="userSpaceOnUse">
<stop stop-color="#90E0AB" stop-opacity="0"/>
<stop offset="0.461538" stop-color="#0FC1A1"/>
<stop offset="1" stop-color="#90E0AB" stop-opacity="0"/>
</linearGradient>
<linearGradient id="paint5_linear_353_16904" x1="-40.9741" y1="470.651" x2="1956" y2="562.764" gradientUnits="userSpaceOnUse">
<stop stop-color="#90E0AB" stop-opacity="0"/>
<stop offset="0.461538" stop-color="#0FC1A1"/>
<stop offset="1" stop-color="#90E0AB" stop-opacity="0"/>
</linearGradient>
<linearGradient id="paint6_linear_353_16904" x1="-43.2425" y1="459.25" x2="1946.31" y2="575.463" gradientUnits="userSpaceOnUse">
<stop stop-color="#90E0AB" stop-opacity="0"/>
<stop offset="0.461538" stop-color="#0FC1A1"/>
<stop offset="1" stop-color="#90E0AB" stop-opacity="0"/>
</linearGradient>
<linearGradient id="paint7_linear_353_16904" x1="-45.6525" y1="447.034" x2="1933.78" y2="593.152" gradientUnits="userSpaceOnUse">
<stop stop-color="#90E0AB" stop-opacity="0"/>
<stop offset="0.461538" stop-color="#0FC1A1"/>
<stop offset="1" stop-color="#90E0AB" stop-opacity="0"/>
</linearGradient>
<linearGradient id="paint8_linear_353_16904" x1="-48.0768" y1="434.836" x2="1918.79" y2="614.462" gradientUnits="userSpaceOnUse">
<stop stop-color="#90E0AB" stop-opacity="0"/>
<stop offset="0.461538" stop-color="#0FC1A1"/>
<stop offset="1" stop-color="#90E0AB" stop-opacity="0"/>
</linearGradient>
<linearGradient id="paint9_linear_353_16904" x1="-49.4759" y1="427.839" x2="1912.7" y2="619.134" gradientUnits="userSpaceOnUse">
<stop stop-color="#90E0AB" stop-opacity="0"/>
<stop offset="0.461538" stop-color="#0FC1A1"/>
<stop offset="1" stop-color="#90E0AB" stop-opacity="0"/>
</linearGradient>
<linearGradient id="paint10_linear_353_16904" x1="-50.4843" y1="422.619" x2="1910.21" y2="617.524" gradientUnits="userSpaceOnUse">
<stop stop-color="#90E0AB" stop-opacity="0"/>
<stop offset="0.461538" stop-color="#0FC1A1"/>
<stop offset="1" stop-color="#90E0AB" stop-opacity="0"/>
</linearGradient>
<linearGradient id="paint11_linear_353_16904" x1="-51.5088" y1="417.506" x2="1907.76" y2="615.827" gradientUnits="userSpaceOnUse">
<stop stop-color="#90E0AB" stop-opacity="0"/>
<stop offset="0.461538" stop-color="#0FC1A1"/>
<stop offset="1" stop-color="#90E0AB" stop-opacity="0"/>
</linearGradient>
<linearGradient id="paint12_linear_353_16904" x1="-52.5181" y1="412.45" x2="1905.4" y2="613.975" gradientUnits="userSpaceOnUse">
<stop stop-color="#90E0AB" stop-opacity="0"/>
<stop offset="0.461538" stop-color="#0FC1A1"/>
<stop offset="1" stop-color="#90E0AB" stop-opacity="0"/>
</linearGradient>
<linearGradient id="paint13_linear_353_16904" x1="-53.4775" y1="407.494" x2="1903.17" y2="612.051" gradientUnits="userSpaceOnUse">
<stop stop-color="#90E0AB" stop-opacity="0"/>
<stop offset="0.461538" stop-color="#0FC1A1"/>
<stop offset="1" stop-color="#90E0AB" stop-opacity="0"/>
</linearGradient>
<linearGradient id="paint14_linear_353_16904" x1="-54.4417" y1="402.604" x2="1900.98" y2="609.95" gradientUnits="userSpaceOnUse">
<stop stop-color="#90E0AB" stop-opacity="0"/>
<stop offset="0.461538" stop-color="#0FC1A1"/>
<stop offset="1" stop-color="#90E0AB" stop-opacity="0"/>
</linearGradient>
<linearGradient id="paint15_linear_353_16904" x1="-55.4164" y1="397.798" x2="1898.91" y2="607.729" gradientUnits="userSpaceOnUse">
<stop stop-color="#90E0AB" stop-opacity="0"/>
<stop offset="0.461538" stop-color="#0FC1A1"/>
<stop offset="1" stop-color="#90E0AB" stop-opacity="0"/>
</linearGradient>
<linearGradient id="paint16_linear_353_16904" x1="-56.3471" y1="393.054" x2="1896.95" y2="605.34" gradientUnits="userSpaceOnUse">
<stop stop-color="#90E0AB" stop-opacity="0"/>
<stop offset="0.461538" stop-color="#0FC1A1"/>
<stop offset="1" stop-color="#90E0AB" stop-opacity="0"/>
</linearGradient>
<linearGradient id="paint17_linear_353_16904" x1="-57.2861" y1="388.394" x2="1895.08" y2="602.825" gradientUnits="userSpaceOnUse">
<stop stop-color="#90E0AB" stop-opacity="0"/>
<stop offset="0.461538" stop-color="#0FC1A1"/>
<stop offset="1" stop-color="#90E0AB" stop-opacity="0"/>
</linearGradient>
<linearGradient id="paint18_linear_353_16904" x1="-58.1899" y1="383.798" x2="1893.34" y2="600.136" gradientUnits="userSpaceOnUse">
<stop stop-color="#90E0AB" stop-opacity="0"/>
<stop offset="0.461538" stop-color="#0FC1A1"/>
<stop offset="1" stop-color="#90E0AB" stop-opacity="0"/>
</linearGradient>
<linearGradient id="paint19_linear_353_16904" x1="-59.0799" y1="379.262" x2="1891.71" y2="597.257" gradientUnits="userSpaceOnUse">
<stop stop-color="#90E0AB" stop-opacity="0"/>
<stop offset="0.461538" stop-color="#0FC1A1"/>
<stop offset="1" stop-color="#90E0AB" stop-opacity="0"/>
</linearGradient>
<linearGradient id="paint20_linear_353_16904" x1="-59.9536" y1="374.786" x2="1890.2" y2="594.207" gradientUnits="userSpaceOnUse">
<stop stop-color="#90E0AB" stop-opacity="0"/>
<stop offset="0.461538" stop-color="#0FC1A1"/>
<stop offset="1" stop-color="#90E0AB" stop-opacity="0"/>
</linearGradient>
<linearGradient id="paint21_linear_353_16904" x1="-60.8203" y1="370.375" x2="1888.8" y2="590.998" gradientUnits="userSpaceOnUse">
<stop stop-color="#90E0AB" stop-opacity="0"/>
<stop offset="0.461538" stop-color="#0FC1A1"/>
<stop offset="1" stop-color="#90E0AB" stop-opacity="0"/>
</linearGradient>
<linearGradient id="paint22_linear_353_16904" x1="-61.6895" y1="366.016" x2="1887.52" y2="587.547" gradientUnits="userSpaceOnUse">
<stop stop-color="#90E0AB" stop-opacity="0"/>
<stop offset="0.461538" stop-color="#0FC1A1"/>
<stop offset="1" stop-color="#90E0AB" stop-opacity="0"/>
</linearGradient>
<linearGradient id="paint23_linear_353_16904" x1="-62.5534" y1="361.723" x2="1886.35" y2="583.959" gradientUnits="userSpaceOnUse">
<stop stop-color="#90E0AB" stop-opacity="0"/>
<stop offset="0.461538" stop-color="#0FC1A1"/>
<stop offset="1" stop-color="#90E0AB" stop-opacity="0"/>
</linearGradient>
<linearGradient id="paint24_linear_353_16904" x1="-63.3791" y1="357.492" x2="1885.33" y2="580.149" gradientUnits="userSpaceOnUse">
<stop stop-color="#90E0AB" stop-opacity="0"/>
<stop offset="0.461538" stop-color="#0FC1A1"/>
<stop offset="1" stop-color="#90E0AB" stop-opacity="0"/>
</linearGradient>
<linearGradient id="paint25_linear_353_16904" x1="-64.214" y1="353.279" x2="1884.44" y2="576.08" gradientUnits="userSpaceOnUse">
<stop stop-color="#90E0AB" stop-opacity="0"/>
<stop offset="0.461538" stop-color="#0FC1A1"/>
<stop offset="1" stop-color="#90E0AB" stop-opacity="0"/>
</linearGradient>
<linearGradient id="paint26_linear_353_16904" x1="-65.0507" y1="349.152" x2="1883.64" y2="571.872" gradientUnits="userSpaceOnUse">
<stop stop-color="#90E0AB" stop-opacity="0"/>
<stop offset="0.461538" stop-color="#0FC1A1"/>
<stop offset="1" stop-color="#90E0AB" stop-opacity="0"/>
</linearGradient>
<linearGradient id="paint27_linear_353_16904" x1="-65.8542" y1="345.042" x2="1882.99" y2="567.405" gradientUnits="userSpaceOnUse">
<stop stop-color="#90E0AB" stop-opacity="0"/>
<stop offset="0.461538" stop-color="#0FC1A1"/>
<stop offset="1" stop-color="#90E0AB" stop-opacity="0"/>
</linearGradient>
<linearGradient id="paint28_linear_353_16904" x1="-66.6522" y1="340.982" x2="1882.47" y2="562.712" gradientUnits="userSpaceOnUse">
<stop stop-color="#90E0AB" stop-opacity="0"/>
<stop offset="0.461538" stop-color="#0FC1A1"/>
<stop offset="1" stop-color="#90E0AB" stop-opacity="0"/>
</linearGradient>
<linearGradient id="paint29_linear_353_16904" x1="-67.4611" y1="336.961" x2="1882.06" y2="557.817" gradientUnits="userSpaceOnUse">
<stop stop-color="#90E0AB" stop-opacity="0"/>
<stop offset="0.461538" stop-color="#0FC1A1"/>
<stop offset="1" stop-color="#90E0AB" stop-opacity="0"/>
</linearGradient>
<linearGradient id="paint30_linear_353_16904" x1="-68.2473" y1="332.982" x2="1881.8" y2="552.682" gradientUnits="userSpaceOnUse">
<stop stop-color="#90E0AB" stop-opacity="0"/>
<stop offset="0.461538" stop-color="#0FC1A1"/>
<stop offset="1" stop-color="#90E0AB" stop-opacity="0"/>
</linearGradient>
<linearGradient id="paint31_linear_353_16904" x1="-69.0407" y1="329.045" x2="1881.63" y2="547.343" gradientUnits="userSpaceOnUse">
<stop stop-color="#90E0AB" stop-opacity="0"/>
<stop offset="0.461538" stop-color="#0FC1A1"/>
<stop offset="1" stop-color="#90E0AB" stop-opacity="0"/>
</linearGradient>
<linearGradient id="paint32_linear_353_16904" x1="732.966" y1="-885.669" x2="732.966" y2="371.888" gradientUnits="userSpaceOnUse">
<stop stop-color="#EBFAF7"/>
<stop offset="0.564063" stop-color="#EAF9F7"/>
<stop offset="1" stop-color="#EAF9F7" stop-opacity="0"/>
</linearGradient>
<radialGradient id="paint33_radial_353_16904" cx="0" cy="0" r="1" gradientUnits="userSpaceOnUse" gradientTransform="translate(546.714 363.028) rotate(-90) scale(412.586 528.931)">
<stop stop-color="#A2E980" stop-opacity="0.866944"/>
<stop offset="0.589679" stop-color="#38D17B" stop-opacity="0.297045"/>
<stop offset="0.85" stop-color="#00C478" stop-opacity="0"/>
</radialGradient>
<linearGradient id="paint34_linear_353_16904" x1="-10.5146" y1="259" x2="1439.99" y2="316.158" gradientUnits="userSpaceOnUse">
<stop stop-color="#0FC1A1"/>
<stop offset="1" stop-color="#CFFFF6"/>
</linearGradient>
<clipPath id="clip0_353_16904">
<rect width="1440" height="558" fill="white"/>
</clipPath>
<clipPath id="clip1_353_16904">
<rect width="717" height="558" fill="white" transform="matrix(-1 0 0 1 1438 0)"/>
</clipPath>
<clipPath id="clip2_353_16904">
<rect width="505" height="393" fill="white" transform="matrix(-1 0 0 1 1922.11 0.292969)"/>
</clipPath>
</defs>
</svg>
