<svg width="79" height="61" viewBox="0 0 79 61" fill="none" xmlns="http://www.w3.org/2000/svg">
<path d="M30.2129 4.75C28.8795 6.58333 27.6295 8.58333 26.4629 10.75C25.4629 12.75 24.5462 14.8333 23.7129 17C23.0462 19 22.4629 20.9167 21.9629 22.75C21.4629 24.5833 21.2129 26.0833 21.2129 27.25C21.2129 28.0833 21.3795 28.9167 21.7129 29.75C22.0462 30.4167 22.8795 30.75 24.2129 30.75C27.8795 30.75 30.5462 32.25 32.2129 35.25C34.0462 38.25 34.9629 41.6667 34.9629 45.5C34.9629 50 33.5462 53.6667 30.7129 56.5C28.0462 59.3333 24.1295 60.75 18.9629 60.75C6.62953 60.75 0.462863 54.8333 0.462865 43C0.462866 39.6667 0.962866 36.0833 1.96287 32.25C3.12953 28.4167 4.5462 24.5833 6.21287 20.75C8.0462 16.75 10.0462 13 12.2129 9.5C14.3795 6 16.4629 2.91667 18.4629 0.25L30.2129 4.75ZM74.2129 4.75001C72.8795 6.58334 71.6295 8.58334 70.4629 10.75C69.4629 12.75 68.5462 14.8333 67.7129 17C67.0462 19 66.4629 20.9167 65.9629 22.75C65.4629 24.5833 65.2129 26.0833 65.2129 27.25C65.2129 28.0833 65.3795 28.9167 65.7129 29.75C66.0462 30.4167 66.8795 30.75 68.2129 30.75C71.8795 30.75 74.5462 32.25 76.2129 35.25C78.0462 38.25 78.9629 41.6667 78.9629 45.5C78.9629 50 77.5462 53.6667 74.7129 56.5C72.0462 59.3333 68.1295 60.75 62.9629 60.75C50.6295 60.75 44.4629 54.8333 44.4629 43C44.4629 39.6667 44.9629 36.0833 45.9629 32.25C47.1295 28.4167 48.5462 24.5833 50.2129 20.75C52.0462 16.75 54.0462 13 56.2129 9.50001C58.3795 6.00001 60.4629 2.91668 62.4629 0.250007L74.2129 4.75001Z" fill="#D0D5DB"/>
</svg>
