<svg width="60" height="60" viewBox="0 0 60 60" fill="none" xmlns="http://www.w3.org/2000/svg">
<path d="M24.1406 10.3125C24.1406 11.425 24.4705 12.5126 25.0886 13.4376C25.7067 14.3626 26.5852 15.0836 27.613 15.5093C28.6409 15.9351 29.7719 16.0465 30.863 15.8294C31.9542 15.6124 32.9564 15.0766 33.7431 14.29C34.5298 13.5033 35.0655 12.501 35.2825 11.4099C35.4996 10.3187 35.3882 9.18774 34.9624 8.15991C34.5367 7.13207 33.8157 6.25357 32.8907 5.63548C31.9657 5.0174 30.8781 4.6875 29.7656 4.6875C28.2743 4.68913 26.8445 5.28228 25.7899 6.33682C24.7354 7.39136 24.1423 8.82116 24.1406 10.3125ZM29.7656 6.5625C30.5073 6.5625 31.2323 6.78243 31.849 7.19449C32.4657 7.60654 32.9463 8.19221 33.2302 8.87744C33.514 9.56266 33.5883 10.3167 33.4436 11.0441C33.2989 11.7715 32.9417 12.4397 32.4173 12.9642C31.8928 13.4886 31.2246 13.8457 30.4972 13.9904C29.7698 14.1351 29.0158 14.0609 28.3306 13.777C27.6453 13.4932 27.0597 13.0126 26.6476 12.3959C26.2356 11.7792 26.0156 11.0542 26.0156 10.3125C26.0168 9.31829 26.4122 8.36512 27.1152 7.66211C27.8182 6.95909 28.7714 6.56364 29.7656 6.5625Z" fill="#222225"/>
<path d="M48.9844 21.6V19.6999C48.9855 19.2011 48.7886 18.7223 48.4371 18.3685C48.0856 18.0147 47.6081 17.8147 47.1094 17.8125H12.4219C11.9231 17.8147 11.4456 18.0147 11.0941 18.3685C10.7426 18.7223 10.5458 19.2011 10.5469 19.6999V21.6C10.5458 22.0988 10.7426 22.5776 11.0941 22.9314C11.4456 23.2852 11.9231 23.4852 12.4219 23.4874L24.1406 23.4966V53.3899C24.1349 53.8933 24.3291 54.3784 24.6806 54.7389C25.0321 55.0993 25.5122 55.3056 26.0156 55.3125H33.5156C34.019 55.3056 34.4991 55.0993 34.8506 54.7389C35.2021 54.3784 35.3963 53.8933 35.3906 53.3899L35.3902 23.4874H47.1094C47.6081 23.4852 48.0856 23.2852 48.4371 22.9314C48.7886 22.5776 48.9854 22.0988 48.9844 21.6ZM33.5156 23.4966V53.3899C33.5156 53.4187 33.5051 53.4339 33.5078 53.4375L30.6001 53.4395C30.6669 53.3098 30.7022 53.1663 30.7031 53.0205V37.2629C30.7031 37.0142 30.6044 36.7758 30.4285 36.6C30.2527 36.4241 30.0143 36.3254 29.7656 36.3254C29.517 36.3254 29.2785 36.4241 29.1027 36.6C28.9269 36.7758 28.8281 37.0142 28.8281 37.2629V53.0205C28.8291 53.1667 28.8646 53.3107 28.9318 53.4406L26.0344 53.4425C26.0275 53.4357 26.0223 53.4275 26.0191 53.4183C26.0158 53.4092 26.0146 53.3995 26.0156 53.3899V23.4966C26.0164 22.9982 25.8193 22.5199 25.4678 22.1667C25.1163 21.8135 24.639 21.6141 24.1406 21.6124L12.4219 21.6V19.6875L47.1094 19.6999V21.6124H35.3906C34.8923 21.6141 34.415 21.8135 34.0635 22.1667C33.7119 22.5199 33.5149 22.9982 33.5156 23.4966Z" fill="#222225"/>
<path d="M30.7031 1.875V0.9375C30.7031 0.68886 30.6044 0.450403 30.4285 0.274587C30.2527 0.0987721 30.0143 0 29.7656 0C29.517 0 29.2785 0.0987721 29.1027 0.274587C28.9269 0.450403 28.8281 0.68886 28.8281 0.9375V1.875C28.8281 2.12364 28.9269 2.3621 29.1027 2.53791C29.2785 2.71373 29.517 2.8125 29.7656 2.8125C30.0143 2.8125 30.2527 2.71373 30.4285 2.53791C30.6044 2.3621 30.7031 2.12364 30.7031 1.875Z" fill="#0FC1A1"/>
<path d="M49.7225 10.8836C49.8456 10.8838 49.9676 10.8596 50.0813 10.8124C50.1951 10.7653 50.2984 10.6962 50.3854 10.609L51.0482 9.94612C51.2232 9.77017 51.3213 9.53198 51.321 9.2838C51.3206 9.03562 51.2219 8.7977 51.0464 8.62222C50.8709 8.44673 50.633 8.34799 50.3848 8.34766C50.1367 8.34732 49.8985 8.44542 49.7225 8.62044L49.0597 9.28328C48.9286 9.41439 48.8393 9.58143 48.8032 9.76327C48.767 9.9451 48.7856 10.1336 48.8565 10.3049C48.9275 10.4762 49.0476 10.6226 49.2017 10.7256C49.3559 10.8286 49.5371 10.8836 49.7225 10.8836Z" fill="#0FC1A1"/>
<path d="M58.125 28.8281C57.8764 28.8281 57.6379 28.9269 57.4621 29.1027C57.2863 29.2785 57.1875 29.517 57.1875 29.7656C57.1875 30.0143 57.2863 30.2527 57.4621 30.4285C57.6379 30.6044 57.8764 30.7031 58.125 30.7031H59.0625C59.3111 30.7031 59.5496 30.6044 59.7254 30.4285C59.9012 30.2527 60 30.0143 60 29.7656C60 29.517 59.9012 29.2785 59.7254 29.1027C59.5496 28.9269 59.3111 28.8281 59.0625 28.8281H58.125Z" fill="#0FC1A1"/>
<path d="M50.0533 51.047C50.2292 51.2222 50.4675 51.3205 50.7158 51.3203C50.9641 51.32 51.2022 51.2213 51.3777 51.0457C51.5533 50.8701 51.6521 50.6321 51.6523 50.3838C51.6525 50.1355 51.5542 49.8972 51.379 49.7213L50.7162 49.0584C50.5403 48.8832 50.302 48.7849 50.0537 48.7852C49.8054 48.7854 49.5673 48.8841 49.3917 49.0597C49.2162 49.2353 49.1174 49.4734 49.1172 49.7217C49.117 49.97 49.2152 50.2082 49.3905 50.3841L50.0533 51.047Z" fill="#0FC1A1"/>
<path d="M29.2969 58.125V59.0625C29.2969 59.3111 29.3956 59.5496 29.5715 59.7254C29.7473 59.9012 29.9857 60 30.2344 60C30.483 60 30.7215 59.9012 30.8973 59.7254C31.0731 59.5496 31.1719 59.3111 31.1719 59.0625V58.125C31.1719 57.8764 31.0731 57.6379 30.8973 57.4621C30.7215 57.2863 30.483 57.1875 30.2344 57.1875C29.9857 57.1875 29.7473 57.2863 29.5715 57.4621C29.3956 57.6379 29.2969 57.8764 29.2969 58.125Z" fill="#0FC1A1"/>
<path d="M9.61509 51.6532C9.73822 51.6533 9.86017 51.6291 9.97392 51.582C10.0877 51.5348 10.191 51.4657 10.2779 51.3785L10.9408 50.7157C11.1158 50.5397 11.2139 50.3015 11.2136 50.0533C11.2132 49.8052 11.1145 49.5672 10.939 49.3917C10.7635 49.2163 10.5256 49.1175 10.2774 49.1172C10.0292 49.1169 9.79105 49.215 9.61509 49.39L8.95225 50.0528C8.82117 50.1839 8.7319 50.351 8.69574 50.5328C8.65958 50.7146 8.67814 50.9031 8.74909 51.0744C8.82004 51.2457 8.94017 51.3921 9.09432 51.4951C9.24846 51.5981 9.42969 51.6531 9.61509 51.6532Z" fill="#0FC1A1"/>
<path d="M0 30.2344C1.24309e-05 30.483 0.0987884 30.7215 0.274601 30.8973C0.450414 31.0731 0.688863 31.1719 0.9375 31.1719H1.875C2.12364 31.1719 2.3621 31.0731 2.53791 30.8973C2.71373 30.7215 2.8125 30.483 2.8125 30.2344C2.8125 29.9857 2.71373 29.7473 2.53791 29.5715C2.3621 29.3956 2.12364 29.2969 1.875 29.2969H0.9375C0.688863 29.2969 0.450414 29.3957 0.274601 29.5715C0.0987884 29.7473 1.24309e-05 29.9857 0 30.2344Z" fill="#0FC1A1"/>
<path d="M9.94663 11.2162C10.132 11.2161 10.3133 11.1611 10.4674 11.0581C10.6216 10.9551 10.7417 10.8087 10.8126 10.6374C10.8836 10.4661 10.9021 10.2776 10.866 10.0958C10.8298 9.91397 10.7406 9.74693 10.6095 9.61582L9.94663 8.95298C9.77072 8.77774 9.53247 8.67945 9.28416 8.67969C9.03586 8.67993 8.79779 8.77867 8.62221 8.95425C8.44664 9.12983 8.34789 9.36789 8.34766 9.6162C8.34742 9.8645 8.44571 10.1028 8.62095 10.2787L9.28379 10.9415C9.37073 11.0287 9.47405 11.0979 9.5878 11.145C9.70156 11.1921 9.8235 11.2163 9.94663 11.2162Z" fill="#0FC1A1"/>
<path d="M45.1047 7.36355C45.2596 7.36379 45.4122 7.32561 45.5487 7.25243C45.6852 7.17926 45.8015 7.07337 45.887 6.94424L46.4052 6.16284C46.5427 5.95559 46.5921 5.70225 46.5428 5.45852C46.4934 5.2148 46.3493 5.00067 46.142 4.86324C45.9348 4.72581 45.6814 4.67633 45.4377 4.72569C45.194 4.77506 44.9799 4.91922 44.8424 5.12646L44.3242 5.90786C44.2306 6.04906 44.1769 6.213 44.169 6.38225C44.1611 6.5515 44.1992 6.71973 44.2792 6.86906C44.3593 7.01839 44.4783 7.14323 44.6237 7.2303C44.769 7.31737 44.9353 7.36342 45.1047 7.36355Z" fill="#0FC1A1"/>
<path d="M56.3625 24.3618C56.4121 24.6055 56.5564 24.8195 56.7637 24.9567C56.971 25.094 57.2243 25.1433 57.468 25.0938L58.3867 24.907C58.6304 24.8575 58.8444 24.7132 58.9817 24.5059C59.119 24.2986 59.1682 24.0452 59.1187 23.8015C59.0692 23.5579 58.9249 23.3439 58.7176 23.2066C58.5102 23.0693 58.2569 23.02 58.0132 23.0696L57.0945 23.2563C56.8508 23.3059 56.6369 23.4503 56.4996 23.6576C56.3624 23.8649 56.313 24.1182 56.3625 24.3618Z" fill="#0FC1A1"/>
<path d="M52.8218 46.1214L53.6032 46.6395C53.7058 46.7076 53.8208 46.7548 53.9416 46.7784C54.0625 46.802 54.1868 46.8015 54.3075 46.7771C54.4282 46.7527 54.5428 46.7047 54.645 46.6359C54.7471 46.5672 54.8347 46.479 54.9028 46.3763C54.9708 46.2737 55.018 46.1587 55.0416 46.0379C55.0652 45.917 55.0648 45.7927 55.0403 45.672C55.0159 45.5513 54.9679 45.4367 54.8991 45.3345C54.8304 45.2324 54.7422 45.1448 54.6396 45.0767L53.8581 44.5585C53.7555 44.4905 53.6405 44.4433 53.5197 44.4197C53.3988 44.3961 53.2745 44.3966 53.1538 44.421C53.0332 44.4454 52.9185 44.4934 52.8163 44.5622C52.7142 44.6309 52.6266 44.7192 52.5586 44.8218C52.4905 44.9244 52.4433 45.0394 52.4197 45.1602C52.3961 45.2811 52.3966 45.4054 52.421 45.5261C52.4454 45.6468 52.4934 45.7614 52.5622 45.8636C52.6309 45.9657 52.7191 46.0533 52.8218 46.1214Z" fill="#0FC1A1"/>
<path d="M35.4031 56.5973C35.1594 56.6469 34.9455 56.7912 34.8082 56.9985C34.671 57.2058 34.6216 57.4592 34.6711 57.7028L34.8579 58.6216C34.9074 58.8652 35.0517 59.0792 35.259 59.2165C35.3617 59.2845 35.4767 59.3316 35.5976 59.3551C35.7184 59.3786 35.8427 59.3781 35.9634 59.3535C36.084 59.329 36.1986 59.281 36.3007 59.2121C36.4028 59.1433 36.4903 59.055 36.5583 58.9524C36.6263 58.8497 36.6733 58.7347 36.6969 58.6138C36.7204 58.493 36.7198 58.3687 36.6953 58.248L36.5086 57.3293C36.4843 57.2085 36.4364 57.0937 36.3677 56.9915C36.2989 56.8892 36.2106 56.8016 36.1079 56.7336C36.0052 56.6656 35.89 56.6185 35.7691 56.5951C35.6481 56.5717 35.5237 56.5725 35.4031 56.5973Z" fill="#0FC1A1"/>
<path d="M13.6451 53.0561L13.1269 53.8375C12.9895 54.0448 12.94 54.2981 12.9894 54.5419C13.0387 54.7856 13.1829 54.9997 13.3901 55.1371C13.5974 55.2746 13.8507 55.3241 14.0944 55.2747C14.3382 55.2253 14.5523 55.0812 14.6897 54.8739L15.2079 54.0925C15.276 53.9899 15.3231 53.8749 15.3467 53.754C15.3703 53.6332 15.3699 53.5089 15.3455 53.3882C15.321 53.2675 15.273 53.1528 15.2043 53.0507C15.1355 52.9486 15.0473 52.861 14.9447 52.7929C14.8421 52.7249 14.7271 52.6777 14.6062 52.6541C14.4854 52.6305 14.3611 52.6309 14.2404 52.6554C14.1197 52.6798 14.005 52.7278 13.9029 52.7966C13.8007 52.8653 13.7132 52.9535 13.6451 53.0561Z" fill="#0FC1A1"/>
<path d="M1.32937 36.9485C1.3924 36.9485 1.45528 36.9423 1.51705 36.9297L2.4358 36.743C2.55645 36.7184 2.67109 36.6704 2.77317 36.6016C2.87525 36.5327 2.96277 36.4445 3.03074 36.3418C3.09871 36.2392 3.1458 36.1241 3.16931 36.0033C3.19282 35.8824 3.1923 35.7581 3.16777 35.6375C3.14324 35.5168 3.09519 35.4022 3.02636 35.3001C2.95753 35.198 2.86927 35.1105 2.76662 35.0425C2.66396 34.9746 2.54892 34.9275 2.42807 34.904C2.30722 34.8805 2.18292 34.881 2.06227 34.9055L1.14352 35.0923C0.91582 35.1385 0.7134 35.2677 0.575513 35.4547C0.437626 35.6417 0.374097 35.8732 0.397244 36.1044C0.420391 36.3356 0.528566 36.55 0.700792 36.7059C0.873018 36.8619 1.09702 36.9483 1.32937 36.9485Z" fill="#0FC1A1"/>
<path d="M4.89208 14.9261L5.67349 15.4442C5.7761 15.5123 5.89112 15.5595 6.01196 15.5831C6.13281 15.6067 6.25712 15.6062 6.3778 15.5818C6.49848 15.5573 6.61316 15.5094 6.7153 15.4406C6.81744 15.3718 6.90503 15.2836 6.97308 15.181C7.04113 15.0784 7.08831 14.9634 7.11191 14.8425C7.13551 14.7217 7.13507 14.5974 7.11063 14.4767C7.08619 14.356 7.03822 14.2414 6.96945 14.1392C6.90069 14.0371 6.81248 13.9495 6.70987 13.8814L5.92846 13.3632C5.72122 13.2258 5.46787 13.1763 5.22415 13.2257C4.98043 13.2751 4.7663 13.4192 4.62887 13.6265C4.49143 13.8337 4.44196 14.087 4.49132 14.3308C4.54068 14.5745 4.68484 14.7886 4.89208 14.9261Z" fill="#0FC1A1"/>
<path d="M24.6746 1.37966C24.6251 1.136 24.4808 0.921996 24.2735 0.784727C24.0661 0.647457 23.8128 0.598168 23.5691 0.647702C23.3255 0.697236 23.1114 0.841536 22.9742 1.04886C22.8369 1.25618 22.7876 1.50954 22.8372 1.7532L23.0239 2.67195C23.0484 2.7926 23.0965 2.90724 23.1653 3.00932C23.2342 3.1114 23.3224 3.19892 23.4251 3.26689C23.5277 3.33486 23.6428 3.38194 23.7636 3.40546C23.8845 3.42897 24.0088 3.42844 24.1294 3.40392C24.2501 3.37939 24.3647 3.33134 24.4668 3.26251C24.5689 3.19368 24.6564 3.10542 24.7244 3.00276C24.7923 2.90011 24.8394 2.78507 24.8629 2.66422C24.8864 2.54337 24.8859 2.41907 24.8614 2.29842L24.6746 1.37966Z" fill="#0FC1A1"/>
<path d="M39.8995 4.7001C40.0875 4.7001 40.2712 4.64357 40.4267 4.53786C40.5822 4.43215 40.7024 4.28214 40.7716 4.1073L41.1167 3.23572C41.2082 3.00456 41.2042 2.7465 41.1055 2.51832C41.0566 2.40534 40.9859 2.30309 40.8975 2.21741C40.8091 2.13173 40.7047 2.06431 40.5903 2.01898C40.4758 1.97365 40.3536 1.95131 40.2305 1.95324C40.1074 1.95516 39.9859 1.98132 39.8729 2.0302C39.6447 2.12892 39.4651 2.31425 39.3735 2.54541L39.0284 3.41699C38.9723 3.55917 38.9518 3.7129 38.9686 3.86482C38.9854 4.01673 39.0391 4.16224 39.125 4.2887C39.2108 4.41515 39.3262 4.51873 39.4612 4.59043C39.5962 4.66213 39.7467 4.69977 39.8995 4.7001Z" fill="#0FC1A1"/>
<path d="M55.8567 19.4751L56.7173 19.1029C56.8303 19.054 56.9326 18.9834 57.0183 18.895C57.104 18.8066 57.1714 18.7022 57.2168 18.5877C57.2621 18.4732 57.2845 18.3509 57.2826 18.2278C57.2807 18.1047 57.2546 17.9832 57.2057 17.8701C57.1568 17.7571 57.0862 17.6548 56.9978 17.5691C56.9094 17.4834 56.8049 17.416 56.6905 17.3706C56.576 17.3253 56.4537 17.3029 56.3306 17.3048C56.2075 17.3067 56.0859 17.3328 55.9729 17.3817L55.1123 17.7539C54.8841 17.8526 54.7044 18.0379 54.6128 18.2691C54.5212 18.5003 54.5252 18.7584 54.6239 18.9866C54.7226 19.2149 54.9079 19.3946 55.1391 19.4862C55.3703 19.5778 55.6284 19.5738 55.8567 19.4751Z" fill="#0FC1A1"/>
<path d="M55.6587 41.0082L56.5303 41.3534C56.6447 41.3987 56.767 41.4211 56.8901 41.4191C57.0132 41.4172 57.1347 41.3911 57.2477 41.3422C57.3606 41.2933 57.4629 41.2226 57.5486 41.1342C57.6343 41.0458 57.7017 40.9414 57.747 40.827C57.7923 40.7125 57.8147 40.5902 57.8127 40.4671C57.8108 40.3441 57.7847 40.2226 57.7358 40.1096C57.6869 39.9966 57.6162 39.8943 57.5278 39.8087C57.4394 39.723 57.335 39.6556 57.2206 39.6102L56.349 39.2651C56.2345 39.2197 56.1123 39.1974 55.9892 39.1993C55.8661 39.2013 55.7446 39.2274 55.6316 39.2763C55.5186 39.3252 55.4164 39.3958 55.3307 39.4842C55.245 39.5726 55.1776 39.677 55.1323 39.7915C55.0869 39.906 55.0646 40.0282 55.0665 40.1513C55.0684 40.2744 55.0946 40.3959 55.1435 40.5089C55.1924 40.6219 55.263 40.7241 55.3514 40.8098C55.4398 40.8955 55.5442 40.9629 55.6587 41.0082Z" fill="#0FC1A1"/>
<path d="M40.7803 54.8581C40.552 54.9568 40.3724 55.1422 40.2808 55.3733C40.1892 55.6045 40.1932 55.8626 40.2918 56.0909L40.664 56.9515C40.7129 57.0645 40.7835 57.1668 40.8719 57.2525C40.9603 57.3382 41.0647 57.4056 41.1792 57.451C41.2937 57.4963 41.416 57.5187 41.5391 57.5168C41.6622 57.5149 41.7837 57.4888 41.8967 57.4399C42.0098 57.391 42.112 57.3204 42.1977 57.232C42.2835 57.1436 42.3509 57.0391 42.3963 56.9247C42.4416 56.8102 42.464 56.6879 42.4621 56.5648C42.4602 56.4417 42.434 56.3201 42.3852 56.2071L42.013 55.3465C41.9142 55.1184 41.7289 54.9388 41.4977 54.8472C41.2666 54.7556 41.0085 54.7595 40.7803 54.8581Z" fill="#0FC1A1"/>
<path d="M18.7606 55.8892L18.4155 56.7607C18.3701 56.8752 18.3478 56.9975 18.3497 57.1206C18.3516 57.2436 18.3778 57.3651 18.4267 57.4781C18.4756 57.5911 18.5462 57.6934 18.6346 57.779C18.723 57.8647 18.8274 57.9321 18.9419 57.9775C19.0563 58.0228 19.1786 58.0451 19.3017 58.0432C19.4248 58.0413 19.5463 58.0151 19.6593 57.9663C19.7723 57.9174 19.8745 57.8467 19.9602 57.7583C20.0459 57.6699 20.1133 57.5655 20.1586 57.451L20.5038 56.5795C20.5491 56.465 20.5714 56.3427 20.5695 56.2197C20.5676 56.0966 20.5414 55.9751 20.4926 55.8621C20.4437 55.7491 20.373 55.6468 20.2846 55.5612C20.1962 55.4755 20.0918 55.4081 19.9774 55.3627C19.8629 55.3174 19.7406 55.2951 19.6175 55.297C19.4945 55.2989 19.3729 55.3251 19.26 55.3739C19.147 55.4228 19.0447 55.4935 18.959 55.5819C18.8734 55.6703 18.8059 55.7747 18.7606 55.8892Z" fill="#0FC1A1"/>
<path d="M3.1881 42.697C3.31598 42.6968 3.44246 42.6704 3.55982 42.6196L4.4204 42.2474C4.53342 42.1986 4.6357 42.1279 4.72141 42.0395C4.80712 41.9511 4.87458 41.8467 4.91993 41.7322C4.96529 41.6177 4.98765 41.4955 4.98575 41.3723C4.98385 41.2492 4.95771 41.1277 4.90884 41.0147C4.85997 40.9017 4.78931 40.7994 4.70091 40.7137C4.61251 40.628 4.50809 40.5605 4.39362 40.5151C4.27914 40.4698 4.15686 40.4474 4.03374 40.4493C3.91063 40.4512 3.78909 40.4774 3.67608 40.5262L2.81548 40.8984C2.61747 40.984 2.45505 41.1353 2.3556 41.3268C2.25614 41.5182 2.22574 41.7381 2.2695 41.9494C2.31327 42.1606 2.42853 42.3503 2.59586 42.4865C2.76319 42.6227 2.97236 42.697 3.1881 42.697Z" fill="#0FC1A1"/>
<path d="M3.18456 20.7362C3.29902 20.7815 3.42129 20.8039 3.54438 20.8019C3.66747 20.8 3.78898 20.7739 3.90196 20.725C4.01494 20.6761 4.11719 20.6054 4.20287 20.517C4.28855 20.4286 4.35598 20.3242 4.4013 20.2098C4.44663 20.0953 4.46897 19.9731 4.46704 19.85C4.46512 19.7269 4.43897 19.6054 4.39008 19.4924C4.3412 19.3794 4.27054 19.2771 4.18214 19.1915C4.09374 19.1058 3.98933 19.0384 3.87487 18.993L3.00329 18.6479C2.77214 18.5563 2.51408 18.5604 2.2859 18.6591C2.05772 18.7578 1.8781 18.9432 1.78656 19.1743C1.69502 19.4055 1.69905 19.6635 1.79778 19.8917C1.8965 20.1199 2.08183 20.2995 2.31298 20.391L3.18456 20.7362Z" fill="#0FC1A1"/>
<path d="M18.3805 5.22055C18.5359 5.22032 18.6888 5.18152 18.8254 5.10763C18.9621 5.03374 19.0783 4.92707 19.1635 4.7972C19.2488 4.66733 19.3005 4.51832 19.314 4.36355C19.3274 4.20877 19.3022 4.05307 19.2407 3.91043L18.8685 3.04983C18.7698 2.82159 18.5845 2.6419 18.3533 2.5503C18.1221 2.4587 17.864 2.4627 17.6358 2.5614C17.5228 2.61027 17.4205 2.68093 17.3348 2.76933C17.2491 2.85773 17.1816 2.96215 17.1362 3.07662C17.0446 3.30781 17.0486 3.56591 17.1473 3.79415L17.5195 4.65475C17.5922 4.82276 17.7124 4.96583 17.8654 5.06636C18.0184 5.16689 18.1975 5.22048 18.3805 5.22055Z" fill="#0FC1A1"/>
<path d="M53.6578 15.1466L54.4415 14.6316C54.6494 14.495 54.7944 14.2815 54.8448 14.0379C54.8952 13.7944 54.8468 13.5408 54.7102 13.3329C54.6426 13.23 54.5554 13.1414 54.4535 13.0722C54.3516 13.003 54.2371 12.9546 54.1165 12.9296C53.873 12.8792 53.6194 12.9276 53.4115 13.0642L52.6279 13.5792C52.42 13.7158 52.2749 13.9293 52.2245 14.1729C52.1741 14.4164 52.2226 14.67 52.3591 14.8779C52.4957 15.0857 52.7093 15.2308 52.9528 15.2812C53.1964 15.3316 53.45 15.2832 53.6578 15.1466Z" fill="#0FC1A1"/>
<path d="M58.2745 36.6004C58.5064 36.6001 58.7301 36.5139 58.9021 36.3583C59.0742 36.2027 59.1824 35.9888 59.2059 35.758C59.2294 35.5273 59.1666 35.296 59.0294 35.1089C58.8923 34.9218 58.6907 34.7921 58.4635 34.7451L57.5457 34.5551C57.425 34.5298 57.3006 34.5286 57.1794 34.5514C57.0583 34.5743 56.9428 34.6209 56.8397 34.6884C56.7365 34.756 56.6477 34.8432 56.5784 34.9452C56.509 35.0471 56.4605 35.1617 56.4355 35.2825C56.4105 35.4032 56.4096 35.5277 56.4328 35.6488C56.4559 35.7699 56.5028 35.8852 56.5706 35.9881C56.6385 36.0911 56.726 36.1796 56.8281 36.2487C56.9302 36.3178 57.045 36.3661 57.1658 36.3907L58.0836 36.5807C58.1464 36.5938 58.2103 36.6004 58.2745 36.6004Z" fill="#0FC1A1"/>
<path d="M44.8894 52.5949C44.6817 52.7316 44.5366 52.9451 44.4863 53.1886C44.4359 53.4322 44.4842 53.6857 44.6207 53.8936L45.1357 54.6773C45.2723 54.8852 45.4858 55.0302 45.7294 55.0806C45.9729 55.131 46.2265 55.0826 46.4344 54.946C46.6422 54.8094 46.7873 54.5959 46.8377 54.3523C46.8881 54.1088 46.8397 53.8552 46.7031 53.6473L46.1881 52.8636C46.0513 52.6561 45.8377 52.5113 45.5943 52.4609C45.3509 52.4105 45.0974 52.4587 44.8894 52.5949Z" fill="#0FC1A1"/>
<path d="M23.376 57.3982L23.186 58.316C23.1607 58.4367 23.1594 58.5611 23.1823 58.6823C23.2052 58.8034 23.2517 58.9189 23.3193 59.022C23.3868 59.1252 23.4741 59.214 23.576 59.2833C23.678 59.3527 23.7926 59.4012 23.9133 59.4262C24.034 59.4512 24.1585 59.4521 24.2796 59.4289C24.4007 59.4058 24.516 59.3589 24.619 59.2911C24.7219 59.2232 24.8105 59.1357 24.8796 59.0336C24.9487 58.9315 24.9969 58.8167 25.0216 58.6959L25.2116 57.7781C25.2369 57.6575 25.2381 57.533 25.2153 57.4118C25.1924 57.2907 25.1458 57.1752 25.0783 57.0721C25.0107 56.969 24.9235 56.8802 24.8215 56.8108C24.7196 56.7414 24.605 56.6929 24.4842 56.6679C24.3635 56.6429 24.239 56.642 24.1179 56.6652C23.9968 56.6884 23.8815 56.7352 23.7786 56.8031C23.6756 56.8709 23.5871 56.9584 23.518 57.0605C23.4489 57.1626 23.4006 57.2774 23.376 57.3982Z" fill="#0FC1A1"/>
<path d="M5.60476 47.0895C5.78745 47.0894 5.96614 47.036 6.11882 46.9356L6.90252 46.4207C7.00543 46.353 7.09402 46.2658 7.16322 46.1639C7.23242 46.0621 7.28088 45.9476 7.30584 45.827C7.33079 45.7064 7.33174 45.5821 7.30865 45.4611C7.28555 45.3401 7.23885 45.2249 7.17122 45.122C7.10359 45.0191 7.01636 44.9305 6.91449 44.8613C6.81263 44.7921 6.69813 44.7436 6.57754 44.7187C6.45694 44.6937 6.33262 44.6928 6.21165 44.7159C6.09069 44.739 5.97546 44.7857 5.87255 44.8533L5.08886 45.3683C4.92013 45.4791 4.79168 45.6414 4.7226 45.8311C4.65353 46.0208 4.64753 46.2277 4.70549 46.4211C4.76345 46.6145 4.88228 46.784 5.0443 46.9044C5.20632 47.0248 5.40288 47.0897 5.60476 47.0895Z" fill="#0FC1A1"/>
<path d="M0.341849 24.1458C0.316805 24.2663 0.315771 24.3906 0.338806 24.5115C0.361842 24.6325 0.408494 24.7477 0.476095 24.8505C0.543696 24.9534 0.630918 25.042 0.732773 25.1111C0.834629 25.1803 0.949118 25.2287 1.06969 25.2535L1.9875 25.4435C2.23063 25.4932 2.48353 25.4444 2.69074 25.3078C2.89794 25.1713 3.04255 24.9582 3.09285 24.7152C3.14314 24.4722 3.09502 24.2191 2.95904 24.0116C2.82306 23.804 2.61031 23.6588 2.36745 23.6079L1.44964 23.4179C1.32911 23.393 1.20484 23.392 1.08393 23.415C0.963024 23.4381 0.847845 23.4848 0.744973 23.5524C0.642102 23.6199 0.553553 23.7071 0.484384 23.809C0.415215 23.9108 0.366781 24.0252 0.341849 24.1458Z" fill="#0FC1A1"/>
<path d="M14.1294 7.56128C14.2986 7.56121 14.4645 7.51537 14.6097 7.42864C14.7549 7.3419 14.874 7.21749 14.9542 7.0686C15.0344 6.91971 15.0729 6.75189 15.0655 6.58291C15.0581 6.41394 15.0051 6.25011 14.9122 6.1088L14.3972 5.32511C14.3296 5.2222 14.2424 5.13361 14.1405 5.06441C14.0386 4.99521 13.9241 4.94675 13.8035 4.92179C13.6829 4.89684 13.5586 4.89589 13.4377 4.91898C13.3167 4.94208 13.2015 4.98878 13.0985 5.05641C12.9956 5.12403 12.907 5.21127 12.8378 5.31314C12.7686 5.415 12.7202 5.5295 12.6952 5.65009C12.6703 5.77069 12.6693 5.89501 12.6924 6.01598C12.7155 6.13694 12.7622 6.25217 12.8298 6.35508L13.3448 7.13878C13.4303 7.26876 13.5468 7.37544 13.6837 7.4492C13.8207 7.52295 13.9739 7.56147 14.1294 7.56128Z" fill="#0FC1A1"/>
<path d="M35.2388 3.34874C35.4543 3.34854 35.6631 3.2741 35.8301 3.13794C35.9971 3.00178 36.1121 2.81223 36.1557 2.60121L36.3456 1.68339C36.3953 1.44026 36.3465 1.18737 36.21 0.980162C36.0734 0.772955 35.8603 0.628348 35.6173 0.578052C35.3743 0.527756 35.1213 0.575875 34.9137 0.711857C34.7061 0.84784 34.561 1.06059 34.51 1.30345L34.32 2.22126C34.292 2.35765 34.2946 2.49857 34.3278 2.63381C34.3609 2.76905 34.4237 2.89522 34.5117 3.00316C34.5997 3.1111 34.7105 3.19811 34.8363 3.25789C34.9621 3.31766 35.0995 3.34869 35.2388 3.34874Z" fill="#0FC1A1"/>
</svg>
