<svg width="40" height="40" viewBox="0 0 40 40" fill="none" xmlns="http://www.w3.org/2000/svg">
<path d="M24.166 10.8359L21.666 8.33594" stroke="#1D2126" stroke-width="3" stroke-linecap="round"/>
<path d="M11.2177 16.8906C6.71127 17.8616 3.33398 21.8695 3.33398 26.6663C3.33398 32.1891 7.81114 36.6663 13.334 36.6663C18.1525 36.6663 22.175 33.2583 23.1226 28.7212" stroke="#0FC1A1" stroke-width="3"/>
<path d="M29.7409 10.2617C29.7409 10.2617 29.0198 14.0026 24.8429 18.1795C20.666 22.3564 16.9258 23.0768 16.9258 23.0768M34.0126 27.3485C30.4738 30.8873 24.7363 30.8873 21.1975 27.3485L12.6541 18.8051C9.1153 15.2663 9.1153 9.52882 12.6541 5.99003C16.1929 2.45124 21.9304 2.45124 25.4692 5.99003L34.0126 14.5334C37.5514 18.0722 37.5514 23.8097 34.0126 27.3485Z" stroke="#1D2126" stroke-width="3"/>
</svg>
