<svg width="40" height="40" viewBox="0 0 40 40" fill="none" xmlns="http://www.w3.org/2000/svg">
<path d="M3.33398 25.0001H8.33398C9.39037 25.0001 9.91856 25.0001 10.3902 25.2022C10.8619 25.4044 11.2261 25.7868 11.9547 26.5518L13.8573 28.5496C14.4974 29.2217 14.8175 29.5578 15.2073 29.5316C15.5971 29.5054 15.8694 29.1296 16.4139 28.378L22.4642 20.0269C23.0302 19.2457 23.3132 18.855 23.7143 18.8366C24.1153 18.8182 24.4329 19.1812 25.0682 19.9072L28.0304 23.2926C28.7658 24.133 29.1335 24.5532 29.6258 24.7767C30.1182 25.0001 30.6766 25.0001 31.7933 25.0001H36.6673" stroke="#0FC1A1" stroke-width="3" stroke-linecap="round"/>
<path d="M3.33398 20.0026C3.33398 12.1459 3.33398 8.21749 5.77476 5.77671C8.21554 3.33594 12.1439 3.33594 20.0007 3.33594C27.8574 3.33594 31.7858 3.33594 34.2265 5.77671C36.6673 8.21749 36.6673 12.1459 36.6673 20.0026C36.6673 27.8593 36.6673 31.7877 34.2265 34.2285C31.7858 36.6693 27.8574 36.6693 20.0007 36.6693C12.1439 36.6693 8.21554 36.6693 5.77476 34.2285C3.33398 31.7877 3.33398 27.8593 3.33398 20.0026Z" stroke="#1D2126" stroke-width="3"/>
</svg>
