<svg width="67" height="60" viewBox="0 0 67 60" fill="none" xmlns="http://www.w3.org/2000/svg">
<path fill-rule="evenodd" clip-rule="evenodd" d="M28.6595 36.6852H34.8724C35.1139 36.6852 35.3445 36.5905 35.5127 36.4199C35.6836 36.2493 35.7786 36.0192 35.7786 35.7809V24.8502C35.7786 24.3493 35.3743 23.9432 34.8724 23.9432H28.6595C28.1576 23.9432 27.7534 24.3493 27.7534 24.8502V35.7809C27.7534 36.0192 27.8483 36.2493 28.0165 36.4199C28.1875 36.5905 28.4181 36.6852 28.6595 36.6852ZM33.9663 25.7573H29.5657V34.8734H33.9663V25.7573Z" fill="#0FC1A1"/>
<path fill-rule="evenodd" clip-rule="evenodd" d="M46.0363 35.7803V21.081C46.0363 20.5801 45.632 20.1767 45.1301 20.1767H38.9172C38.4153 20.1767 38.0111 20.5801 38.0084 21.081V35.7803C38.0084 36.0185 38.106 36.2487 38.2742 36.4193C38.4452 36.5898 38.6758 36.6846 38.9172 36.6846H45.1301C45.632 36.6846 46.0363 36.2785 46.0363 35.7803ZM39.8234 34.8732L44.2212 34.8759V21.9851H39.8234V34.8732Z" fill="#0FC1A1"/>
<path fill-rule="evenodd" clip-rule="evenodd" d="M55.4048 36.6873L55.4075 36.6846C55.6462 36.6846 55.8768 36.5898 56.0478 36.4193C56.2187 36.2487 56.3136 36.0185 56.3136 35.7803V16.8197C56.3136 16.3215 55.9067 15.9153 55.4075 15.9153H49.1946C48.6927 15.9153 48.2857 16.3215 48.2857 16.8197V35.7803C48.2857 36.0185 48.3807 36.2487 48.5516 36.4193C48.7225 36.5898 48.9531 36.6846 49.1946 36.6846L55.4048 36.6873ZM54.4986 17.7267H50.1008V34.8734H54.4986V17.7267Z" fill="#0FC1A1"/>
<path fill-rule="evenodd" clip-rule="evenodd" d="M56.2913 5.5535C56.4161 5.91902 56.7607 6.1654 57.1487 6.1654H61.6686V9.84226H59.471C58.9718 9.84226 58.5649 10.2484 58.5649 10.7466V35.7804C58.5649 36.0187 58.6598 36.2488 58.8307 36.4194C59.0016 36.59 59.2323 36.6847 59.471 36.6847H65.6866C65.9254 36.6847 66.156 36.59 66.3269 36.4194C66.4978 36.2488 66.5928 36.0187 66.5928 35.7804V23.2635V10.7466C66.5928 10.2457 66.1858 9.84226 65.6866 9.84226H63.489V0.904329C63.489 0.406141 63.082 0 62.5801 0H57.1486C56.7606 0 56.4188 0.246388 56.2913 0.611903C56.1665 0.974716 56.2858 1.38086 56.5897 1.61909L58.4671 3.08389L56.5897 4.54868V4.54597C56.2858 4.78424 56.1665 5.188 56.2913 5.5535ZM60.3773 34.8737H64.7752V11.651H60.3773V34.8737ZM59.7832 1.8088L60.4994 2.36925C60.7192 2.5398 60.8467 2.80252 60.8467 3.0814C60.8467 3.36024 60.7192 3.62287 60.4994 3.79615L59.7832 4.35661L61.6688 4.35391V1.8088H59.7832Z" fill="#0FC1A1"/>
<path fill-rule="evenodd" clip-rule="evenodd" d="M5.39168 43.2592C5.39168 46.2701 6.58817 49.1589 8.72062 51.2871C10.8531 53.4179 13.7479 54.6147 16.7648 54.6147C19.7817 54.6147 22.6738 53.4206 24.809 51.2925C26.9415 49.1644 28.1406 46.2754 28.1434 43.2646C28.1434 40.2538 26.9469 37.3676 24.8144 35.2368C22.6793 33.1087 19.7871 31.9119 16.7702 31.9092C13.7533 31.9119 10.8612 33.1087 8.72882 35.2368C6.59636 37.3649 5.39439 40.2486 5.39168 43.2592ZM20.425 52.0752C23.9981 50.5995 26.3287 47.1202 26.3287 43.2592C26.3231 37.9928 22.0476 33.726 16.7707 33.7179C12.9016 33.7152 9.41537 36.041 7.93405 39.6068C6.45273 43.17 7.26903 47.2774 10.0041 50.0066C12.7392 52.7358 16.852 53.5535 20.425 52.0752Z" fill="#0FC1A1"/>
<path fill-rule="evenodd" clip-rule="evenodd" d="M15.8591 36.6826V40.9849C15.094 41.2881 14.5297 41.9595 14.3643 42.7664C14.1988 43.5733 14.4484 44.4099 15.0317 44.992C15.6177 45.5768 16.456 45.8259 17.2645 45.6607C18.073 45.4929 18.7431 44.9324 19.0497 44.1662H23.3607C23.8626 44.1662 24.2696 43.7628 24.2696 43.2619C24.2696 42.761 23.8626 42.3576 23.3607 42.3576H19.047C18.7974 41.7321 18.3009 41.2366 17.6741 40.9875V36.6798C17.6741 36.1789 17.2672 35.7728 16.768 35.7728C16.266 35.7728 15.8591 36.1789 15.8591 36.6798L15.8591 36.6826ZM16.7653 43.9036C16.5059 43.9025 16.2739 43.7458 16.1738 43.5083C16.0762 43.2674 16.1304 42.9939 16.3122 42.8098C16.4967 42.6257 16.7734 42.5715 17.0122 42.6717C17.2536 42.7692 17.4083 43.002 17.4083 43.2619C17.4083 43.6139 17.1234 43.8982 16.7707 43.9009L16.7653 43.9036Z" fill="#0FC1A1"/>
<path fill-rule="evenodd" clip-rule="evenodd" d="M45.3881 59.0957C45.3881 59.3339 45.2931 59.5641 45.1222 59.7347C44.9513 59.9052 44.7207 60 44.4819 60H16.7711C11.9635 60 7.38919 57.9395 4.2068 54.3467C1.02441 50.7538 -0.4624 45.9695 0.126364 41.207C0.715099 36.4471 3.32237 32.1665 7.2864 29.4536C11.2502 26.7406 16.1904 25.8552 20.8515 27.0222L20.393 26.5023C20.2329 26.3209 20.1488 26.0854 20.1624 25.8444C20.1787 25.6034 20.2872 25.3787 20.469 25.219C20.6507 25.0592 20.8895 24.978 21.1309 24.9943C21.3724 25.0105 21.5976 25.1215 21.7549 25.3056L24.3541 28.2514C24.5141 28.4328 24.5955 28.6684 24.5792 28.9067C24.563 29.1476 24.4544 29.3696 24.2727 29.5294C24.156 29.6323 24.0122 29.7027 23.8603 29.7352L20.0104 30.5447C19.5194 30.6476 19.0392 30.3336 18.9333 29.8435C18.8302 29.3561 19.145 28.8742 19.636 28.7713L20.0403 28.6874H20.0375C15.8892 27.7641 11.5405 28.644 8.07822 31.1133C4.61905 33.5799 2.37541 37.4002 1.90874 41.6184C1.44209 45.8368 2.79588 50.0552 5.63107 53.2173C8.4689 56.3797 12.5195 58.1884 16.7708 58.1911H44.4817C44.9809 58.1911 45.3881 58.5948 45.3881 59.0957ZM28.0165 19.9794C28.0165 19.7412 28.1115 19.511 28.2824 19.3404C28.4506 19.1699 28.6812 19.0751 28.9227 19.0751H34.1969L38.5188 14.142C38.6925 13.947 38.9394 13.8333 39.2025 13.8333H44.4035L48.7416 8.25844V8.25573C48.9126 8.03372 49.1757 7.90375 49.4579 7.90375H55.1417C55.6436 7.90375 56.0506 8.30989 56.0506 8.80808C56.0506 9.30898 55.6436 9.71512 55.1417 9.71512H49.9028L45.5646 15.29C45.3937 15.512 45.1278 15.6419 44.8484 15.6419H39.6122L35.2902 20.5751H35.2875C35.1166 20.7728 34.867 20.8838 34.6038 20.8838H28.9227C28.6812 20.8838 28.4506 20.789 28.2824 20.6184C28.1115 20.4479 28.0165 20.2177 28.0165 19.9794Z" fill="#222225"/>
<path fill-rule="evenodd" clip-rule="evenodd" d="M38.8035 48.2353C37.5012 48.2353 36.3265 49.0178 35.83 50.22C35.3308 51.4195 35.6075 52.8003 36.5272 53.7182C37.447 54.6387 38.8306 54.9122 40.0352 54.4167C41.2371 53.9185 42.0212 52.7461 42.0212 51.4493C42.0185 49.6758 40.5805 48.2381 38.8035 48.2353ZM37.5039 51.9826C37.7237 52.5078 38.2337 52.849 38.8035 52.849C39.5794 52.849 40.2061 52.2209 40.2088 51.4492C40.2088 50.8806 39.867 50.3689 39.3406 50.1523C38.817 49.9357 38.212 50.0548 37.8105 50.4555C37.409 50.8562 37.2869 51.46 37.5039 51.9826Z" fill="#848484"/>
<path fill-rule="evenodd" clip-rule="evenodd" d="M38.8035 39.6741C37.5012 39.6741 36.3265 40.4566 35.83 41.6588C35.3308 42.8582 35.6075 44.2391 36.5272 45.1569C37.447 46.0775 38.8306 46.351 40.0352 45.8528C41.2371 45.3573 42.0212 44.185 42.0212 42.8881C42.0185 41.1146 40.5805 39.6768 38.8035 39.6741ZM37.5039 43.4241C37.7237 43.9466 38.2337 44.2878 38.8035 44.2878C39.5767 44.2851 40.2061 43.6596 40.2088 42.888C40.2088 42.3194 39.8643 41.8077 39.3406 41.5911C38.8143 41.3745 38.212 41.4936 37.8105 41.8943C37.409 42.295 37.2869 42.8988 37.5039 43.4241Z" fill="#848484"/>
<path fill-rule="evenodd" clip-rule="evenodd" d="M47.2331 45.9394H63.8806C65.5518 45.915 66.8921 44.5558 66.8921 42.888C66.8921 41.2202 65.5518 39.8609 63.8806 39.8339H47.2331C45.5619 39.861 44.2217 41.2202 44.2217 42.888C44.2217 44.5558 45.5619 45.915 47.2331 45.9394ZM63.8806 41.6452H47.2331C46.5576 41.6615 46.0177 42.2111 46.0177 42.888C46.0177 43.5622 46.5576 44.1145 47.2331 44.1281H63.8806C64.5562 44.1145 65.0961 43.5622 65.0961 42.888C65.0961 42.2111 64.5562 41.6614 63.8806 41.6452Z" fill="#848484"/>
<path fill-rule="evenodd" clip-rule="evenodd" d="M63.9424 48.3951L47.2324 48.3923C45.5422 48.3923 44.1721 49.7597 44.1721 51.4464C44.1721 53.1332 45.5423 54.4978 47.2324 54.4978H63.9424C65.63 54.4978 67 53.1332 67 51.4464C67 49.7597 65.6299 48.3923 63.9424 48.3923V48.3951ZM47.2324 52.6892H63.9424C64.2761 52.6973 64.6017 52.5673 64.8405 52.3345C65.0819 52.1017 65.2176 51.7795 65.2176 51.4464C65.2176 51.1107 65.0819 50.7912 64.8405 50.5556C64.6017 50.3228 64.2761 50.1955 63.9424 50.2036H47.2324C46.5569 50.2199 46.017 50.7722 46.017 51.4464C46.017 52.1206 46.5569 52.673 47.2324 52.6892Z" fill="#848484"/>
</svg>
