<svg width="40" height="40" viewBox="0 0 40 40" fill="none" xmlns="http://www.w3.org/2000/svg">
<path d="M9.44856 16.5265L14.5521 9.62148C17.8511 5.15806 19.5005 2.92635 21.0395 3.39796C22.5784 3.86957 22.5784 6.60676 22.5784 12.0811V12.5973C22.5784 14.5718 22.5784 15.559 23.2093 16.1783L23.2427 16.2104C23.8872 16.8165 24.9147 16.8165 26.9697 16.8165C30.6679 16.8165 32.5169 16.8165 33.1419 17.9381C33.1522 17.9567 33.1623 17.9754 33.172 17.9943C33.7619 19.1332 32.6913 20.5817 30.5501 23.4787L25.4465 30.3837C22.1475 34.8471 20.498 37.0789 18.9591 36.6072C17.4201 36.1356 17.4202 33.3984 17.4203 27.924L17.4203 27.408C17.4203 25.4335 17.4203 24.4462 16.7894 23.827L16.756 23.7949C16.1115 23.1887 15.084 23.1887 13.0289 23.1887C9.33082 23.1887 7.48176 23.1887 6.85684 22.0672C6.8465 22.0486 6.83644 22.0299 6.82667 22.011C6.23675 20.8721 7.30735 19.4236 9.44856 16.5265Z" stroke="#1D2126" stroke-width="3"/>
</svg>
