<svg width="68" height="60" viewBox="0 0 68 60" fill="none" xmlns="http://www.w3.org/2000/svg">
<path fill-rule="evenodd" clip-rule="evenodd" d="M49.5292 46.2789C50.6003 48.2441 50.4491 50.7304 49.0114 52.5638C47.4289 54.5805 44.711 55.2689 42.3919 54.349C41.5524 56.0569 39.7963 57.173 37.8664 57.173C37.7409 57.173 37.6155 57.1698 37.49 57.1601C35.8786 57.0379 34.4698 56.1501 33.6335 54.8571C32.7973 56.1501 31.3884 57.0379 29.777 57.1601C29.6516 57.1698 29.5261 57.173 29.4007 57.173C27.4708 57.173 25.7114 56.0569 24.8752 54.349C22.5561 55.2689 19.8382 54.5805 18.2557 52.5638C16.818 50.7304 16.6668 48.2441 17.7379 46.2789C15.6086 45.8447 13.7559 44.4294 12.8103 42.4192C11.7874 40.2417 11.9772 37.691 13.2574 35.6936C11.9322 34.7254 10.9962 33.2298 10.7903 31.4865C10.4462 28.5756 12.2345 25.877 14.917 24.9764C13.6915 22.7121 13.907 19.8526 15.57 17.7973C17.1621 15.8289 19.7481 15.0087 22.1347 15.5812C22.035 14.7095 22.1187 13.809 22.4081 12.9373C23.328 10.1905 26.0845 8.43426 28.9632 8.7656C30.967 8.99396 32.6846 10.1969 33.6367 11.8791C34.5887 10.1968 36.3031 8.99393 38.3102 8.7656C41.1889 8.43431 43.9454 10.1905 44.8653 12.9373C45.158 13.8058 45.2384 14.7063 45.1387 15.5812C47.5252 15.0087 50.1113 15.8321 51.7034 17.7973C53.3663 19.8526 53.5818 22.7121 52.3564 24.9764C55.0389 25.8771 56.8272 28.5788 56.483 31.4865C56.2772 33.233 55.3412 34.7254 54.016 35.6936C55.2962 37.691 55.486 40.2416 54.4631 42.4192C53.5175 44.4294 51.6648 45.8447 49.5355 46.2789H49.5292ZM32.8585 52.596L32.8553 14.4294C32.6366 12.2808 30.9287 10.5439 28.7801 10.2995C26.6218 10.0551 24.5569 11.3674 23.8686 13.4259C23.1803 15.4844 24.0359 17.7778 25.9079 18.881C26.2745 19.0965 26.4 19.5725 26.1813 19.9392C26.0365 20.1837 25.7792 20.322 25.5155 20.322C25.3836 20.322 25.2485 20.2866 25.1231 20.2158C23.978 19.5404 23.1224 18.5304 22.6142 17.3725C20.5911 16.4719 18.1691 17.0348 16.7635 18.7717C15.3065 20.5761 15.3065 23.1911 16.7699 24.9891C16.9468 25.2078 16.9919 25.5037 16.8889 25.7642C16.786 26.0248 16.548 26.2081 16.2682 26.2435C13.7979 26.5619 12.0257 28.8327 12.3183 31.3061C12.611 33.7795 14.8625 35.5711 17.3392 35.3074C17.7606 35.2623 18.1466 35.5679 18.1916 35.9925C18.2367 36.417 17.9311 36.7998 17.5065 36.8449C17.2878 36.8674 17.0691 36.8803 16.8504 36.8803C16.0656 36.8803 15.3065 36.7259 14.6085 36.446C13.5632 38.0124 13.3926 40.0388 14.2064 41.7628C15.0555 43.5704 16.8503 44.7637 18.8317 44.8666C20.8516 42.9625 23.9812 42.7759 26.2102 44.4646C26.5511 44.7219 26.6186 45.2076 26.3613 45.5485C26.104 45.8894 25.6183 45.957 25.2774 45.6997C23.6081 44.4356 21.2408 44.6093 19.7741 46.1017C18.3073 47.5941 18.1755 49.9647 19.4685 51.6115C20.7615 53.2583 23.0934 53.6925 24.8946 52.6215C25.1004 52.4992 25.3545 52.4799 25.5765 52.5668C25.7984 52.6569 25.9689 52.8434 26.0332 53.075C26.4803 54.6703 28.0049 55.7382 29.6581 55.6159C31.2985 55.4937 32.6397 54.2232 32.8552 52.5957L32.8585 52.596ZM47.4872 46.0988C46.0205 44.6032 43.6532 44.4327 41.9838 45.6968C41.6429 45.9541 41.1572 45.8865 40.8999 45.5456C40.6426 45.2047 40.7101 44.719 41.0511 44.4617C43.28 42.7762 46.4096 42.9628 48.4295 44.8637C50.4108 44.7608 52.2056 43.5707 53.0548 41.7599C53.8653 40.0358 53.6949 38.0063 52.6495 36.4431C51.9483 36.723 51.1925 36.8774 50.4076 36.8774C50.1921 36.8774 49.9734 36.8645 49.7515 36.842C49.3269 36.7969 49.0213 36.4142 49.0664 35.9896C49.1114 35.565 49.4941 35.2595 49.9188 35.3045C52.3986 35.5714 54.6469 33.7767 54.9396 31.3032C55.2323 28.8298 53.4601 26.559 50.9898 26.2406C50.71 26.2052 50.4752 26.0219 50.3691 25.7613C50.2661 25.5008 50.3112 25.2049 50.4881 24.9862C51.9483 23.185 51.9515 20.57 50.4945 18.7688C49.089 17.0319 46.667 16.469 44.6438 17.3696C44.1356 18.5308 43.2801 19.5407 42.1349 20.213C42.0127 20.2869 41.8776 20.3191 41.7425 20.3191C41.4788 20.3191 41.2183 20.184 41.0767 19.9363C40.8612 19.5697 40.9835 19.0937 41.3501 18.8781C43.2221 17.7781 44.0777 15.4815 43.3894 13.423C42.7011 11.3645 40.6329 10.0489 38.4779 10.2966C36.3293 10.5411 34.6182 12.2779 34.4027 14.4297V52.5897C34.6214 54.2205 35.9594 55.4877 37.5998 55.6132C39.2531 55.7354 40.7777 54.6708 41.2247 53.0723C41.2891 52.8407 41.4595 52.6509 41.6815 52.564C41.9034 52.474 42.1575 52.4933 42.3633 52.6187C44.1613 53.6898 46.4964 53.2556 47.7894 51.6087C49.0824 49.9619 48.9506 47.5914 47.4839 46.099L47.4872 46.0988Z" fill="#222225"/>
<path fill-rule="evenodd" clip-rule="evenodd" d="M56.8183 57.4296C56.8183 58.8416 55.67 59.9899 54.258 59.9899C52.846 59.9899 51.6977 58.8416 51.6977 57.4296C51.6977 56.2878 52.4503 55.3164 53.486 54.9883V50.5786L51.3857 49.3659C51.0158 49.1537 50.8903 48.6808 51.1026 48.311C51.3149 47.9411 51.7909 47.8157 52.1576 48.0279L54.6439 49.4625C54.8819 49.6008 55.0298 49.8549 55.0298 50.1315V54.9883C56.0655 55.3164 56.8183 56.2878 56.8183 57.4296ZM54.2547 56.4132C54.8144 56.4132 55.2712 56.8699 55.2712 57.4296C55.2712 57.9893 54.8144 58.446 54.2547 58.446C53.6951 58.446 53.2383 57.9892 53.2383 57.4296C53.2383 56.8699 53.6951 56.4132 54.2547 56.4132Z" fill="#0FC1A1"/>
<path fill-rule="evenodd" clip-rule="evenodd" d="M62.3602 49.4335C62.3602 50.8455 61.212 51.9938 59.7999 51.9938C58.3878 51.9938 57.2396 50.8456 57.2396 49.4335C57.2396 48.2917 57.9922 47.3204 59.028 46.9923V39.3115L56.294 38.5781C55.8823 38.4688 55.6378 38.0442 55.7472 37.6325C55.8566 37.2208 56.2843 36.9764 56.6928 37.0857L59.9993 37.9702C60.337 38.0603 60.5718 38.3659 60.5718 38.7165V46.9892C61.6075 47.3173 62.3602 48.2887 62.3602 49.4305L62.3602 49.4335ZM59.7967 48.4171C60.3564 48.4171 60.8131 48.8739 60.8131 49.4335C60.8131 49.9932 60.3564 50.45 59.7967 50.45C59.237 50.45 58.7803 49.9932 58.7803 49.4335C58.7803 48.8739 59.237 48.4171 59.7967 48.4171Z" fill="#0FC1A1"/>
<path fill-rule="evenodd" clip-rule="evenodd" d="M67.262 30.8781C67.262 32.29 66.1138 33.4384 64.7017 33.4384C63.5599 33.4384 62.5885 32.6857 62.2605 31.65H58.3943C57.9666 31.65 57.6224 31.3026 57.6224 30.8781C57.6224 30.4503 57.9698 30.1061 58.3943 30.1061H62.2605C62.5886 29.0704 63.5599 28.3177 64.7017 28.3177C66.1137 28.3177 67.262 29.466 67.262 30.8781ZM64.6985 29.8616C65.2582 29.8616 65.7149 30.3184 65.7149 30.8781C65.7149 31.4377 65.2582 31.8945 64.6985 31.8945C64.1388 31.8945 63.6821 31.4377 63.6821 30.8781C63.6821 30.3184 64.1388 29.8616 64.6985 29.8616Z" fill="#0FC1A1"/>
<path fill-rule="evenodd" clip-rule="evenodd" d="M57.3005 14.3712C57.3005 12.9592 58.4488 11.8109 59.8608 11.8109C61.2729 11.8109 62.4211 12.9591 62.4211 14.3712C62.4211 15.513 61.6685 16.4844 60.6328 16.8124V22.8432C60.6328 23.1199 60.4848 23.3739 60.2468 23.5123L57.1204 25.3167C56.9982 25.3874 56.8663 25.4196 56.7344 25.4196C56.4675 25.4196 56.2069 25.2813 56.0654 25.0336C55.8531 24.6637 55.9786 24.1909 56.3485 23.9787L59.0889 22.3962V16.8125C58.0532 16.4844 57.3005 15.513 57.3005 14.3712ZM59.864 15.3876C59.3044 15.3876 58.8476 14.9309 58.8476 14.3712C58.8476 13.8115 59.3044 13.3548 59.864 13.3548C60.4237 13.3548 60.8805 13.8115 60.8805 14.3712C60.8805 14.9309 60.4237 15.3876 59.864 15.3876Z" fill="#0FC1A1"/>
<path fill-rule="evenodd" clip-rule="evenodd" d="M51.2473 16.6612C51.035 16.2913 51.1604 15.8185 51.5303 15.6062L53.8107 14.2907V8.92246C52.775 8.59438 52.0224 7.62304 52.0224 6.48122C52.0224 5.06924 53.1706 3.92091 54.5827 3.92091C55.9947 3.92091 57.143 5.06915 57.143 6.48122C57.143 7.62304 56.3903 8.59441 55.3546 8.92246V14.7378C55.3546 15.0144 55.2067 15.2685 54.9686 15.4068L52.3022 16.9475C52.18 17.0182 52.0481 17.0504 51.9162 17.0504C51.6493 17.0504 51.3887 16.9121 51.2472 16.6644L51.2473 16.6612ZM54.5859 7.4945C54.0262 7.4945 53.5695 7.03775 53.5695 6.47809C53.5695 5.91841 54.0262 5.46167 54.5859 5.46167C55.1456 5.46167 55.6023 5.91841 55.6023 6.47809C55.6023 7.03777 55.1456 7.4945 54.5859 7.4945Z" fill="#0FC1A1"/>
<path fill-rule="evenodd" clip-rule="evenodd" d="M44.8434 10.344C44.734 9.93228 44.9784 9.50773 45.3901 9.39839L47.5259 8.82586V5.00154C46.4902 4.67346 45.7376 3.70212 45.7376 2.5603C45.7376 1.14832 46.8858 0 48.2979 0C49.7099 0 50.8582 1.14824 50.8582 2.5603C50.8582 3.70212 50.1055 4.6735 49.0698 5.00154V9.42094C49.0698 9.77153 48.835 10.0771 48.4973 10.1672L45.789 10.8941C45.7215 10.9134 45.6539 10.9198 45.5896 10.9198C45.2486 10.9198 44.9366 10.6914 44.8434 10.3473L44.8434 10.344ZM48.301 3.57343C47.7413 3.57343 47.2846 3.11668 47.2846 2.55702C47.2846 1.99734 47.7414 1.5406 48.301 1.5406C48.8607 1.5406 49.3174 1.99736 49.3174 2.55702C49.3174 3.1167 48.8607 3.57343 48.301 3.57343Z" fill="#0FC1A1"/>
<path fill-rule="evenodd" clip-rule="evenodd" d="M16.3939 2.56064C16.3939 1.14866 17.5421 0.000337663 18.9542 0.000337663C20.3662 0.000337663 21.5145 1.14858 21.5145 2.56064C21.5145 3.70246 20.7618 4.67384 19.7261 5.00188V8.8262L21.8619 9.39872C22.2736 9.50808 22.518 9.93265 22.4087 10.3443C22.3154 10.6885 22.0034 10.9168 21.6625 10.9168C21.5949 10.9168 21.5274 10.9072 21.463 10.8911L18.7548 10.1642C18.417 10.0741 18.1823 9.76858 18.1823 9.41799V4.9986C17.2113 4.69102 16.4891 3.81808 16.4026 2.76933C16.3969 2.70049 16.394 2.63089 16.3939 2.56064ZM18.9574 3.57706C18.3977 3.57706 17.941 3.1203 17.941 2.56064C17.941 2.00096 18.3977 1.54423 18.9574 1.54423C19.5171 1.54423 19.9738 2.00098 19.9738 2.56064C19.9738 3.12032 19.5171 3.57706 18.9574 3.57706Z" fill="#0FC1A1"/>
<path fill-rule="evenodd" clip-rule="evenodd" d="M10.109 6.48146C10.109 5.06948 11.2572 3.92116 12.6693 3.92116C14.0813 3.92116 15.2296 5.0694 15.2296 6.48146C15.2296 7.62328 14.4769 8.59466 13.4412 8.9227V14.2909L15.7217 15.6065C16.0915 15.8188 16.217 16.2916 16.0047 16.6614C15.86 16.9091 15.6026 17.0474 15.3357 17.0474C15.2038 17.0474 15.0719 17.0152 14.9497 16.9445L12.2833 15.4038C12.0453 15.2655 11.8973 15.0114 11.8973 14.7348V8.91945C10.8616 8.59137 10.1089 7.62003 10.1089 6.47821L10.109 6.48146ZM12.6725 7.49788C12.1128 7.49788 11.6561 7.04112 11.6561 6.48146C11.6561 5.92178 12.1128 5.46505 12.6725 5.46505C13.2322 5.46505 13.6889 5.9218 13.6889 6.48146C13.6889 7.04114 13.2322 7.49788 12.6725 7.49788Z" fill="#0FC1A1"/>
<path fill-rule="evenodd" clip-rule="evenodd" d="M4.83077 14.3746C4.83077 12.9626 5.97901 11.8143 7.39107 11.8143C8.80305 11.8143 9.95138 12.9625 9.95138 14.3746C9.95138 15.5164 9.19873 16.4878 8.16302 16.8158V22.3995L10.9034 23.982C11.2733 24.1943 11.3987 24.6671 11.1864 25.037C11.0417 25.2846 10.7844 25.4229 10.5174 25.4229C10.3856 25.4229 10.2537 25.3908 10.1315 25.32L7.00506 23.5156C6.76704 23.3773 6.61909 23.1232 6.61909 22.8466V16.8158C5.5834 16.4877 4.83077 15.5164 4.83077 14.3746ZM7.39428 15.391C6.83461 15.391 6.37787 14.9342 6.37787 14.3746C6.37787 13.8149 6.83461 13.3582 7.39428 13.3582C7.95396 13.3582 8.4107 13.8149 8.4107 14.3746C8.4107 14.9342 7.95396 15.391 7.39428 15.391Z" fill="#0FC1A1"/>
<path fill-rule="evenodd" clip-rule="evenodd" d="M5.00154 31.6628C4.67346 32.6984 3.70212 33.4511 2.5603 33.4511C1.14832 33.4511 0 32.3029 0 30.8908C0 29.4788 1.14824 28.3305 2.5603 28.3305C3.70212 28.3305 4.6735 29.0831 5.00154 30.1189H8.86769C9.29548 30.1189 9.63964 30.4662 9.63964 30.8908C9.63964 31.3186 9.29226 31.6628 8.86769 31.6628H5.00154ZM2.55701 29.8744C3.11669 29.8744 3.57342 30.3311 3.57342 30.8908C3.57342 31.4505 3.11669 31.9072 2.55701 31.9072C1.99733 31.9072 1.5406 31.4505 1.5406 30.8908C1.5406 30.3311 1.99733 29.8744 2.55701 29.8744Z" fill="#0FC1A1"/>
<path fill-rule="evenodd" clip-rule="evenodd" d="M10.0189 49.4369C10.0189 50.8489 8.87065 51.9972 7.45859 51.9972C6.04653 51.9972 4.89829 50.849 4.89829 49.4369C4.89829 48.2951 5.65093 47.3237 6.68665 46.9957V38.7229C6.68665 38.3723 6.92145 38.0667 7.25917 37.9767L10.5656 37.0922C10.9774 36.9796 11.4019 37.2273 11.5112 37.639C11.6206 38.0507 11.3762 38.4752 10.9645 38.5846L8.2305 39.3179V46.9987C9.26618 47.3268 10.0189 48.2982 10.0189 49.44L10.0189 49.4369ZM7.45538 48.4205C8.01506 48.4205 8.4718 48.8773 8.4718 49.4369C8.4718 49.9966 8.01504 50.4533 7.45538 50.4533C6.8957 50.4533 6.43897 49.9966 6.43897 49.4369C6.43897 48.8772 6.89572 48.4205 7.45538 48.4205Z" fill="#0FC1A1"/>
<path fill-rule="evenodd" clip-rule="evenodd" d="M16.1592 48.3211C16.3715 48.691 16.2461 49.1638 15.8762 49.3761L13.7758 50.5887V54.9985C14.8115 55.3265 15.5642 56.2979 15.5642 57.4397C15.5642 58.8517 14.4159 60 13.0039 60C11.5918 60 10.4436 58.8518 10.4436 57.4397C10.4436 56.2979 11.1962 55.3265 12.2319 54.9985V50.1417C12.2319 49.8651 12.3799 49.611 12.6179 49.4727L15.1042 48.0349C15.4741 47.8226 15.9469 47.9481 16.1591 48.318L16.1592 48.3211ZM13.0006 56.4264C13.5603 56.4264 14.017 56.8832 14.017 57.4428C14.017 58.0025 13.5603 58.4592 13.0006 58.4592C12.4409 58.4592 11.9842 58.0025 11.9842 57.4428C11.9842 56.8832 12.441 56.4264 13.0006 56.4264Z" fill="#0FC1A1"/>
<path d="M40.5814 48.7814C38.9539 49.132 37.3457 48.1478 36.9211 46.5363C36.4965 44.9281 37.4068 43.2749 38.9957 42.7763C39.4042 42.6476 39.6293 42.2134 39.5007 41.8081C39.372 41.3996 38.9378 41.1745 38.5325 41.3032C36.1556 42.0494 34.7885 44.5228 35.4287 46.9351C35.9787 49.0161 37.8506 50.4024 39.9188 50.4024C40.2469 50.4024 40.5782 50.367 40.9094 50.2962C41.3276 50.2062 41.5913 49.7945 41.5013 49.3763C41.4112 48.9582 40.9995 48.6944 40.5813 48.7845L40.5814 48.7814Z" fill="#848484"/>
<path d="M48.1819 40.8529C48.481 40.8529 48.7801 40.8239 49.0825 40.7693C49.5039 40.6921 49.7805 40.2868 49.7001 39.8686C49.6229 39.4473 49.2176 39.1739 48.7994 39.2511C47.5772 39.4794 46.342 39.0131 45.5797 38.032C44.8142 37.051 44.663 35.742 45.1809 34.613C45.6987 33.484 46.7923 32.7443 48.0338 32.6831C48.4616 32.6638 48.7897 32.3003 48.7672 31.8725C48.7479 31.4447 48.3876 31.1102 47.9566 31.1392C46.1362 31.226 44.5344 32.31 43.7721 33.9697C43.013 35.6261 43.2381 37.5496 44.3575 38.9873C45.2902 40.1838 46.7023 40.8593 48.1818 40.8593L48.1819 40.8529Z" fill="#848484"/>
<path d="M36.0012 36.6905C36.4129 36.832 36.8375 36.9028 37.2588 36.9028C38.4939 36.9028 39.6968 36.3077 40.4302 35.2592C41.2279 34.1173 41.3341 32.6442 40.768 31.4187C41.3019 31.0874 41.7682 30.6339 42.1156 30.0742C43.1642 28.3888 42.8747 26.1759 41.4305 24.8154C41.1185 24.5227 40.6296 24.5388 40.337 24.8475C40.0443 25.1595 40.0571 25.6484 40.3691 25.9411C41.2794 26.7999 41.4627 28.1959 40.8001 29.2572C40.1408 30.3219 38.8091 30.7754 37.6351 30.3412C37.2331 30.19 36.7892 30.3958 36.6413 30.7947C36.4933 31.1935 36.6959 31.6406 37.098 31.7885C37.574 31.9654 38.0629 32.0491 38.5486 32.0491C38.8091 32.0491 39.0664 32.0233 39.3205 31.9783C39.7097 32.7309 39.6615 33.6605 39.1629 34.3713C38.5711 35.214 37.4807 35.5678 36.5093 35.2301C36.1041 35.0886 35.6667 35.3041 35.5251 35.7061C35.3836 36.1082 35.5991 36.5489 36.0012 36.6905Z" fill="#848484"/>
<path d="M44.0938 25.2691C44.6567 25.6486 45.3032 25.8384 45.9529 25.8384C46.4933 25.8384 47.0368 25.7065 47.5354 25.4363C48.629 24.8477 49.298 23.7091 49.2819 22.4675C49.2659 21.226 48.5679 20.1035 47.4615 19.5438C47.0819 19.3508 46.6156 19.502 46.4226 19.8815C46.2296 20.2611 46.3808 20.7274 46.7603 20.9204C47.3521 21.2228 47.7253 21.821 47.7349 22.4868C47.7445 23.1526 47.3843 23.7605 46.7989 24.0757C46.2135 24.3909 45.5091 24.3555 44.9559 23.9856C44.6021 23.7476 44.1228 23.8409 43.8816 24.1947C43.6436 24.5485 43.7369 25.0278 44.0907 25.269L44.0938 25.2691Z" fill="#848484"/>
<path d="M38.4167 22.3064C38.5615 22.4286 38.7384 22.4865 38.9121 22.4865C39.134 22.4865 39.3527 22.3932 39.5071 22.2099C39.7805 21.8818 39.7387 21.3929 39.4106 21.1195C38.7738 20.5888 38.4939 19.759 38.6741 18.9484C38.8542 18.1411 39.4653 17.5075 40.2662 17.2984C40.6779 17.1891 40.9256 16.7677 40.8194 16.356C40.7101 15.9443 40.2887 15.6967 39.877 15.8028C38.5133 16.1598 37.4743 17.2341 37.1688 18.6108C36.86 19.9874 37.3425 21.4026 38.4232 22.3065L38.4167 22.3064Z" fill="#848484"/>
<path d="M27.0016 17.2958C27.8025 17.5048 28.4136 18.1384 28.5937 18.9458C28.7739 19.7531 28.4908 20.5862 27.8572 21.1169C27.5291 21.3903 27.4873 21.8792 27.7607 22.2072C27.9151 22.3906 28.1338 22.4839 28.3557 22.4839C28.5294 22.4839 28.7063 22.426 28.8511 22.3037C29.9318 21.3999 30.4142 19.9847 30.1054 18.608C29.7967 17.2314 28.7578 16.1571 27.3972 15.8C26.9822 15.6939 26.5609 15.9384 26.4548 16.3533C26.3454 16.765 26.5931 17.1895 27.008 17.2957L27.0016 17.2958Z" fill="#848484"/>
<path d="M17.9797 22.465C17.9958 21.2234 18.6937 20.1009 19.8002 19.538C20.1797 19.345 20.646 19.4962 20.8391 19.8757C21.032 20.2553 20.8809 20.7216 20.4981 20.9146C19.9063 21.217 19.5332 21.8153 19.5235 22.481C19.5139 23.1468 19.8741 23.7547 20.4595 24.0699C21.0449 24.3851 21.7493 24.3497 22.3025 23.9799C22.6563 23.7418 23.1356 23.8351 23.3768 24.1889C23.6148 24.5427 23.5216 25.022 23.1678 25.2632C22.6049 25.6428 21.9583 25.8325 21.3087 25.8325C20.7683 25.8325 20.2247 25.7007 19.7262 25.4305C18.6326 24.8419 17.9636 23.7032 17.9796 22.4617L17.9797 22.465Z" fill="#848484"/>
<path d="M30.0057 36.897C30.4271 36.897 30.8516 36.8294 31.2633 36.6847C31.6654 36.5432 31.8809 36.1025 31.7393 35.7005C31.5978 35.2952 31.1604 35.0829 30.7551 35.2245C29.7837 35.5622 28.6902 35.2084 28.1015 34.3657C27.603 33.6548 27.5547 32.7253 27.9439 31.9727C28.198 32.0209 28.4553 32.0434 28.7159 32.0434C29.2015 32.0434 29.6937 31.9598 30.1665 31.7829C30.5653 31.6349 30.7712 31.1878 30.6232 30.789C30.4752 30.3902 30.0281 30.1843 29.6293 30.3355C28.4553 30.773 27.1237 30.3162 26.4643 29.2516C25.8049 28.1869 25.9851 26.791 26.8953 25.9355C27.2073 25.6428 27.2202 25.1539 26.9275 24.8419C26.6348 24.5299 26.1459 24.517 25.8339 24.8097C24.3897 26.1703 24.1002 28.3832 25.1488 30.0686C25.4962 30.6283 25.9626 31.0818 26.4965 31.4131C25.9304 32.6417 26.0365 34.1148 26.8342 35.2535C27.5708 36.302 28.7706 36.897 30.0057 36.897Z" fill="#848484"/>
<path d="M19.3081 31.1297C18.8803 31.1072 18.5201 31.4385 18.4975 31.863C18.4782 32.2908 18.8063 32.6511 19.2309 32.6736C20.4724 32.7347 21.566 33.4745 22.0838 34.6035C22.6017 35.7324 22.4473 37.0447 21.685 38.0225C20.9195 39.0035 19.6876 39.4699 18.4653 39.2416C18.0472 39.1644 17.6419 39.441 17.5647 39.8591C17.4875 40.2805 17.7641 40.6825 18.1822 40.7598C18.4813 40.8144 18.7837 40.8434 19.0829 40.8434C20.5624 40.8434 21.9744 40.1679 22.9072 38.9715C24.0297 37.5337 24.2548 35.6135 23.4958 33.9538C22.7367 32.2973 21.1317 31.2134 19.3112 31.1233L19.3081 31.1297Z" fill="#848484"/>
<path d="M28.732 41.2971C28.3267 41.1685 27.8893 41.3968 27.7638 41.8021C27.6352 42.2106 27.8635 42.6448 28.2688 42.7703C29.8577 43.2688 30.768 44.9221 30.3434 46.5303C29.9188 48.1385 28.3106 49.1259 26.6831 48.7754C26.265 48.6853 25.8533 48.9523 25.7632 49.3672C25.6731 49.7853 25.9401 50.197 26.355 50.2871C26.6863 50.3579 27.0176 50.3933 27.3456 50.3933C29.417 50.3933 31.2858 49.007 31.839 46.926C32.4758 44.5168 31.1121 42.0434 28.7351 41.294L28.732 41.2971Z" fill="#848484"/>
</svg>
