<svg width="47" height="60" viewBox="0 0 47 60" fill="none" xmlns="http://www.w3.org/2000/svg">
<path fill-rule="evenodd" clip-rule="evenodd" d="M17.5525 21.6571L16.4534 20.6111L16.4555 20.6115L16.4538 20.6101C16.5397 20.3754 16.6257 20.1407 16.7092 19.9085C16.7549 19.7854 16.8016 19.6596 16.8493 19.5309C16.9351 19.2997 17.0242 19.0594 17.1174 18.8099H17.1149C14.6582 17.7832 12.4768 16.1899 10.7456 14.1561C9.61676 12.8102 8.97492 11.1203 8.9282 9.35878C8.95526 7.59223 9.61431 5.89498 10.7849 4.57629C12.2162 2.8568 14.5008 1.29313 17.6882 0.0462033L17.6906 0.0486779C18.0079 -0.077503 18.3694 0.0486779 18.5416 0.345572C18.7162 0.642467 18.6498 1.021 18.3866 1.24123C17.248 2.31993 16.3996 3.67079 15.9175 5.16764C15.5831 6.18206 15.4822 7.26076 15.6224 8.32217C15.7503 9.28458 16.1708 10.1852 16.825 10.9027C17.4644 11.5682 18.2662 12.0531 19.1515 12.3154C20.75 12.8325 22.3731 13.2704 24.0159 13.6242C25.4546 13.9335 26.9154 14.1339 28.3835 14.2229H28.4278C31.92 14.7227 35.2914 15.8534 38.3826 17.563C39.5237 18.2062 40.5295 19.0648 41.3484 20.0915C42.1305 21.0688 42.4969 22.3207 42.3665 23.5702C42.2583 24.3792 41.9829 25.1561 41.5525 25.8489C40.1532 28.1844 38.2768 30.1934 36.0462 31.7447C33.7837 33.296 31.3736 34.6196 28.8553 35.6983C28.8233 36.4282 28.8036 37.1704 28.7938 37.9226C28.794 45.0573 29.4899 52.1744 30.8719 59.1704C30.9309 59.4822 30.7735 59.7964 30.4858 59.9325C30.2005 60.0685 29.8611 59.9943 29.6546 59.7519C27.1879 56.7013 25.2549 53.2522 23.9343 49.5513C22.4367 45.4542 21.3202 41.2282 20.5971 36.9231C18.8978 39.8451 17.5157 42.9402 16.468 46.1565C15.3368 49.6474 14.7195 53.2845 14.6358 56.9561C14.6285 57.3075 14.3629 57.5994 14.0161 57.639C13.6694 57.6761 13.3472 57.4509 13.2636 57.107C12.4299 53.767 11.9011 50.3578 11.6848 46.9186C11.5175 44.1104 11.5913 41.2924 11.9012 38.4966L13.3376 38.1178L13.3448 38.1181V38.1206C12.9931 41.0104 12.9046 43.9274 13.0792 46.8346C13.1849 48.5837 13.3767 50.328 13.6596 52.0574C13.9842 49.9099 14.481 47.7945 15.145 45.7286C16.4263 41.8047 18.1846 38.0565 20.3807 34.5679C20.5332 34.318 20.8234 34.1919 21.1086 34.2488C21.3939 34.3081 21.6152 34.5382 21.6595 34.8277C22.3702 39.6795 23.5704 44.4449 25.2402 49.0514C26.2067 51.6814 27.4658 54.1951 28.993 56.5404C27.9159 50.3873 27.3846 44.1522 27.4019 37.9053C27.4117 37.1259 27.4338 36.3589 27.4658 35.6043C27.242 35.3916 27.2986 35.1936 27.4978 34.9487L27.4953 34.9462C27.6872 30.1811 28.5233 25.4601 29.9841 20.9201C30.0603 20.6356 30.3062 20.4302 30.5989 20.4055C34.9739 20.0369 36.6511 21.2962 36.8184 23.2928C37.0471 26.0316 33.7763 30.2181 31.3096 32.9663C32.6745 32.2735 33.9877 31.4818 35.2395 30.6011C37.3102 29.1611 39.0563 27.2956 40.3572 25.1259C40.6843 24.6063 40.8958 24.0199 40.9794 23.4088C41.0655 22.5182 40.7974 21.6275 40.2343 20.9322C39.5235 20.0539 38.653 19.3191 37.6693 18.7673C34.7501 17.1567 31.5679 16.0903 28.2748 15.6228C26.7476 15.5287 25.2278 15.3209 23.7326 14.9993C22.0431 14.6356 20.3757 14.1878 18.7305 13.6558C17.6214 13.3243 16.6155 12.7058 15.8113 11.8646C14.9604 10.9418 14.4145 9.77888 14.2423 8.53195C14.0702 7.26026 14.1882 5.96628 14.5866 4.74652C14.8276 3.98945 15.1547 3.25955 15.563 2.57424C14.1587 3.30407 12.902 4.28878 11.8593 5.47883C10.9002 6.54518 10.3543 7.92328 10.3223 9.36072C10.3715 10.8031 10.9051 12.1886 11.8347 13.2871C13.1554 14.9695 15.3096 16.5233 18.2362 17.7752H18.246C18.6051 17.9112 18.7871 18.317 18.6518 18.6782C18.596 18.8281 18.5389 18.9802 18.4809 19.1351C18.332 19.5325 18.1766 19.9474 18.0173 20.3854C17.8575 20.8208 17.7025 21.2439 17.5525 21.6571ZM26.2164 0.543973C23.2063 0.543973 20.6142 2.68408 20.0265 5.65303C19.4387 8.62444 21.02 11.5983 23.8014 12.7563C26.5829 13.9167 29.7897 12.9369 31.462 10.4183C33.1343 7.90208 32.8072 4.54475 30.6775 2.40229C29.4946 1.20978 27.8911 0.541502 26.2164 0.543973ZM29.6938 3.3991C28.0362 1.73155 25.4368 1.47421 23.489 2.78304C21.5388 4.09432 20.7814 6.60559 21.679 8.78528C22.5767 10.965 24.8785 12.202 27.1755 11.7419C29.4749 11.2817 31.1325 9.2529 31.1325 6.8951C31.1325 5.58382 30.616 4.3244 29.6938 3.3991ZM28.9904 33.4154C31.2504 31.0625 35.6525 26.1341 35.4265 23.415C35.3331 22.2992 34.1772 21.599 31.172 21.7796C29.9891 25.5576 29.2562 29.4618 28.9907 33.4128L28.9904 33.4154Z" fill="#222225"/>
<path fill-rule="evenodd" clip-rule="evenodd" d="M10.0985 38.6574C10.7035 38.6574 11.306 38.603 11.9012 38.4966L13.3376 38.1178C16.5615 37.0116 19.0133 34.3494 19.8618 31.0316C20.7127 27.7162 19.8445 24.1906 17.5525 21.6571L16.4534 20.6111L16.4538 20.6101C13.9061 18.5329 10.5158 17.8307 7.35888 18.7237C4.20341 19.6168 1.67531 21.9994 0.58093 25.1069C-0.515907 28.2167 -0.0412741 31.6681 1.84989 34.3624C3.74364 37.0567 6.81789 38.6574 10.0985 38.6574ZM5.26386 21.2274C8.71391 18.9066 13.3103 19.3619 16.2467 22.3135C17.8797 23.9538 18.7972 26.1801 18.7947 28.5009C18.7947 32.6749 15.8634 36.2697 11.7933 37.0837C7.72315 37.8978 3.64813 35.7081 2.05948 31.851C0.473212 27.9944 1.8135 23.5457 5.26386 21.2274Z" fill="#0FC1A1"/>
<path fill-rule="evenodd" clip-rule="evenodd" d="M8.65744 22.5657C8.37708 22.5657 8.10902 22.6795 7.90982 22.8799C7.71308 23.0779 7.59995 23.35 7.59995 23.6321V25.9849H5.25625C4.97835 25.9849 4.71029 26.0987 4.51109 26.2967L4.50617 26.3016H4.50863C4.30943 26.4995 4.19631 26.7692 4.19631 27.0513V29.9435C4.19631 30.2256 4.30944 30.4977 4.50863 30.6981C4.70537 30.8985 4.97343 31.0099 5.25379 31.0099H7.59504V33.3677C7.59504 33.6498 7.7057 33.9219 7.90491 34.1223C8.10411 34.3227 8.37217 34.4365 8.65498 34.4365H11.5274C11.7782 34.4341 12.0192 34.345 12.211 34.1842C12.2332 34.1644 12.2553 34.1446 12.275 34.1223C12.4742 33.9244 12.5873 33.6522 12.5873 33.3677V31.0123H14.926C15.2064 31.0123 15.4769 30.901 15.6761 30.7006C15.8753 30.5002 15.986 30.2305 15.986 29.946V27.0537C15.986 26.7742 15.8753 26.5045 15.6761 26.3041L15.6736 26.3016L15.6731 26.3011L15.6725 26.3005C15.4734 26.1008 15.2058 25.9874 14.926 25.9874H12.5873V23.6345C12.5873 23.3797 12.4963 23.1348 12.3315 22.9443C12.3143 22.9195 12.2946 22.8973 12.275 22.8775C12.0758 22.6771 11.8077 22.5633 11.5249 22.5633L8.65744 22.5657ZM8.99432 23.9711H11.1954V26.6901C11.1954 26.8782 11.2691 27.0563 11.3995 27.1874C11.5298 27.321 11.7093 27.3953 11.8938 27.3953H14.5965V29.6071H11.8938C11.7093 29.6071 11.5298 29.6814 11.3995 29.8125C11.2691 29.9461 11.1954 30.1242 11.1954 30.3098V33.0289H8.99432V30.3098C8.99432 30.1242 8.92054 29.9461 8.7902 29.8125C8.65986 29.6814 8.48279 29.6071 8.29589 29.6071H5.5956V27.3953H8.29589C8.48279 27.3953 8.65986 27.321 8.7902 27.1874C8.92054 27.0563 8.99432 26.8782 8.99432 26.6901V23.9711Z" fill="#0FC1A1"/>
<path fill-rule="evenodd" clip-rule="evenodd" d="M37.9719 52.5426C38.1564 52.6267 38.3679 52.6267 38.5523 52.5426C40.2369 51.8028 41.8059 50.8231 43.2126 49.6305C44.575 48.4578 45.6522 46.9857 46.3629 45.328C46.7908 44.3408 47.0072 43.277 46.9998 42.2007V36.206C46.9974 35.8274 46.7022 35.5182 46.326 35.5058C43.5741 35.4068 40.9107 34.4839 38.6824 32.8535C38.4364 32.6679 38.0995 32.6655 37.8536 32.8461C35.6354 34.4691 32.9916 35.3919 30.2547 35.5033H30.2252C29.8391 35.5033 29.5267 35.8175 29.5267 36.2059V42.2007C29.5194 43.2794 29.7358 44.3458 30.1661 45.3305C30.8744 46.9881 31.9515 48.4602 33.3115 49.6355C34.7182 50.8255 36.2873 51.8077 37.9718 52.5475L37.9719 52.5426ZM38.2621 51.1349C36.8063 50.4742 35.4487 49.6132 34.2289 48.5766L34.2291 48.5815C33.0265 47.5449 32.0748 46.246 31.4477 44.7813C31.0886 43.9698 30.9091 43.089 30.9214 42.2008V36.869C33.5527 36.6538 36.0834 35.7582 38.2647 34.2662C40.4459 35.7557 42.974 36.6513 45.603 36.8666V42.1983C45.6153 43.0865 45.4357 43.9673 45.0791 44.7788C44.452 46.2435 43.4978 47.5424 42.2952 48.5791C41.0755 49.6158 39.718 50.4742 38.2621 51.1349Z" fill="#0FC1A1"/>
<path d="M34.0002 43.1257L36.2233 45.3648C36.243 45.3846 36.2602 45.3994 36.2799 45.4168C36.7692 45.8547 37.5095 45.8324 37.9718 45.3648L42.5215 40.7877C42.6592 40.6565 42.7379 40.4759 42.7403 40.2854C42.7428 40.0974 42.669 39.9143 42.5338 39.7807C42.401 39.6446 42.219 39.5704 42.0321 39.5729C41.8427 39.5753 41.6632 39.6545 41.5329 39.7931L37.0939 44.2589L34.9863 42.1336C34.7133 41.859 34.2706 41.859 34.0001 42.1336C33.7271 42.4082 33.7271 42.8535 34.0001 43.1282L34.0002 43.1257Z" fill="#0FC1A1"/>
</svg>
