<svg width="40" height="40" viewBox="0 0 40 40" fill="none" xmlns="http://www.w3.org/2000/svg">
<path fill-rule="evenodd" clip-rule="evenodd" d="M23.5572 0.300013C24.5056 0.0129415 25.5085 -0.070642 26.4932 0.0601818C27.4742 0.187368 28.4226 0.525315 29.2656 1.05222C30.1086 1.5755 30.8317 2.2732 31.384 3.09807C31.9326 3.92658 32.3033 4.86046 32.4632 5.83799C32.5577 6.41577 32.5795 6.9972 32.5286 7.57499C32.6776 7.60406 32.8229 7.6404 32.9683 7.68037C34.1528 7.99651 35.2284 8.61789 36.0968 9.48276C36.9616 10.3513 37.583 11.4306 37.9027 12.6115C38.2188 13.7961 38.2188 15.0426 37.9027 16.2236C37.7828 16.6633 37.4667 16.994 37.0779 17.1539C38.0481 18.0296 38.8184 19.1162 39.3271 20.3371C40.072 22.1359 40.2028 24.1272 39.6977 26.0096C39.1963 27.8883 38.0844 29.549 36.5438 30.7336C36.3439 30.8863 36.1368 31.028 35.9261 31.1624H36.2785C36.2785 36.0427 32.3216 40 27.4416 40H26.9765C24.0624 40 21.5007 38.5101 20 36.2535C18.4993 38.5102 15.9376 40 13.0235 40H12.5584C7.67844 40 3.72145 36.0427 3.72145 31.1624H4.07391C3.86317 31.028 3.65605 30.8863 3.45983 30.7336C1.91551 29.549 0.803637 27.8883 0.302257 26.0096C-0.202815 24.131 -0.072001 22.1359 0.672887 20.3371C1.1816 19.1162 1.95192 18.0296 2.92212 17.1539C2.53332 16.994 2.2172 16.6633 2.10093 16.2236C1.78117 15.0426 1.78117 13.7961 2.10093 12.6115C2.41705 11.4306 3.03838 10.3513 3.90319 9.48276C4.77162 8.6179 5.85085 7.99647 7.03174 7.68037C7.17709 7.6404 7.32243 7.60406 7.47141 7.57499C7.42054 6.99721 7.44234 6.41578 7.53682 5.83799C7.6967 4.86046 8.06732 3.92657 8.61967 3.09807C9.16834 2.27318 9.89144 1.5755 10.7344 1.05222C11.5774 0.525306 12.5258 0.187359 13.5105 0.0601818C14.4916 -0.0706327 15.4944 0.0129405 16.4428 0.300013C17.3947 0.587085 18.2742 1.07403 19.019 1.73179C19.3823 2.04793 19.713 2.40406 20 2.78923C20.2871 2.40404 20.6178 2.04791 20.9811 1.73179C21.726 1.07406 22.6053 0.587094 23.5572 0.300013ZM15.636 2.97091C15.0655 2.79648 14.4624 2.74561 13.8737 2.82556C13.2815 2.90187 12.7146 3.10536 12.2095 3.42151C11.7044 3.73403 11.2684 4.15555 10.9377 4.64975C10.6071 5.14395 10.3854 5.70719 10.291 6.29223C10.2183 6.72466 10.2147 7.16072 10.2801 7.59312C10.4 7.61856 10.5235 7.64763 10.6434 7.68033C11.3883 7.88019 11.8279 8.64335 11.6318 9.38821C11.4319 10.1332 10.6652 10.5728 9.92037 10.373C9.21181 10.184 8.4633 10.184 7.75476 10.373C7.04621 10.5656 6.39583 10.9399 5.87984 11.4595C5.36024 11.9792 4.98598 12.626 4.79337 13.3346C4.60442 14.0432 4.60442 14.7918 4.79337 15.5004C4.8297 15.6385 4.84424 15.7729 4.8406 15.9074C5.41108 15.7911 6.01787 16.0454 6.32679 16.5796C6.70832 17.2446 6.48304 18.0986 5.81445 18.4838C4.66258 19.1488 3.7615 20.1772 3.25277 21.4054C2.74406 22.6373 2.65322 24 2.99841 25.2864C3.3436 26.5728 4.0994 27.7066 5.15676 28.5169C6.21412 29.3273 7.50766 29.767 8.83757 29.767C9.60789 29.767 10.2329 30.3921 10.2329 31.1624C10.2329 31.9328 9.60789 32.5578 8.83757 32.5578C8.08178 32.5578 7.33688 32.4597 6.61383 32.2708C7.13707 35.0797 9.59699 37.2092 12.5584 37.2092H13.0235C16.1048 37.2092 18.6047 34.7091 18.6047 31.6276V20.9109C17.9906 21.4887 17.2893 21.9864 16.5117 22.3753L15.0438 23.1093C14.3534 23.4509 13.5141 23.1711 13.1725 22.4843C12.8273 21.7939 13.1071 20.9545 13.7939 20.6129L15.2618 19.8788C17.3111 18.8541 18.6048 16.761 18.6048 14.468V6.95685C18.6011 6.36817 18.474 5.78676 18.2305 5.24897C17.9871 4.70389 17.6273 4.22056 17.1804 3.82817C16.7298 3.43571 16.2029 3.14171 15.636 2.97091ZM26.1259 2.82556C25.5373 2.74561 24.9341 2.79648 24.3673 2.97091C23.7968 3.1417 23.2699 3.43605 22.8229 3.82851C22.3724 4.22096 22.0126 4.70427 21.7692 5.24931C21.5221 5.79075 21.3949 6.3794 21.3949 6.97542V14.4685C21.3949 16.7614 22.6885 18.8545 24.7379 19.8793L26.2059 20.6133C26.8926 20.9549 27.1724 21.7943 26.8308 22.4847C26.4857 23.1715 25.6463 23.4514 24.9559 23.1098L23.4916 22.3757C22.714 21.9869 22.009 21.4891 21.395 20.9113V31.628C21.395 34.7095 23.8949 37.2096 26.9762 37.2096H27.4413C30.4027 37.2096 32.8627 35.0801 33.3859 32.2712C32.6628 32.4601 31.9179 32.5583 31.1621 32.5583C30.3918 32.5583 29.7668 31.9332 29.7668 31.1629C29.7668 30.3925 30.3918 29.7675 31.1621 29.7675C32.4921 29.7675 33.7856 29.3277 34.843 28.5174C35.9003 27.707 36.6561 26.5733 37.0013 25.2868C37.3465 24.0004 37.2557 22.6377 36.747 21.4058C36.2383 20.1776 35.3371 19.1492 34.1853 18.4842C33.5167 18.099 33.2914 17.2451 33.6766 16.58C33.9818 16.0459 34.5886 15.7915 35.1591 15.9078C35.1555 15.7733 35.17 15.6389 35.2064 15.5008C35.3953 14.7922 35.3953 14.0436 35.2064 13.335C35.0138 12.6264 34.6395 11.9796 34.1235 11.46C33.6039 10.9403 32.9571 10.566 32.245 10.3734C31.5364 10.1845 30.7879 10.1845 30.0794 10.3734C29.3345 10.5733 28.5678 10.1336 28.3716 9.38864C28.1718 8.6437 28.6114 7.88058 29.3563 7.68076C29.4762 7.64806 29.5998 7.61899 29.7197 7.59355C29.7851 7.16112 29.7814 6.72506 29.7124 6.29266C29.6143 5.7076 29.3926 5.14433 29.062 4.65018C28.7313 4.15597 28.2953 3.73444 27.7902 3.42194C27.2851 3.1058 26.7183 2.90187 26.1259 2.82556Z" fill="#1D2126"/>
</svg>
