<svg width="40" height="40" viewBox="0 0 40 40" fill="none" xmlns="http://www.w3.org/2000/svg">
<path d="M3.33398 19.9974C3.33398 13.712 3.33398 10.5693 5.28661 8.61668C7.23923 6.66406 10.3819 6.66406 16.6673 6.66406H23.334C29.6194 6.66406 32.7621 6.66406 34.7147 8.61668C36.6673 10.5693 36.6673 13.712 36.6673 19.9974V23.3307C36.6673 29.6161 36.6673 32.7588 34.7147 34.7114C32.7621 36.6641 29.6194 36.6641 23.334 36.6641H16.6673C10.3819 36.6641 7.23923 36.6641 5.28661 34.7114C3.33398 32.7588 3.33398 29.6161 3.33398 23.3307V19.9974Z" stroke="#1D2126" stroke-width="3"/>
<path d="M11.666 6.66406V4.16406" stroke="#1D2126" stroke-width="3" stroke-linecap="round"/>
<path d="M28.334 6.66406V4.16406" stroke="#1D2126" stroke-width="3" stroke-linecap="round"/>
<path d="M4.16602 15H35.8327" stroke="#1D2126" stroke-width="3" stroke-linecap="round"/>
<path d="M29.9993 28.3333C29.9993 29.2538 29.2532 30 28.3327 30C27.4122 30 26.666 29.2538 26.666 28.3333C26.666 27.4129 27.4122 26.6667 28.3327 26.6667C29.2532 26.6667 29.9993 27.4129 29.9993 28.3333Z" fill="#0FC1A1"/>
<path d="M29.9993 21.6667C29.9993 22.5871 29.2532 23.3333 28.3327 23.3333C27.4122 23.3333 26.666 22.5871 26.666 21.6667C26.666 20.7462 27.4122 20 28.3327 20C29.2532 20 29.9993 20.7462 29.9993 21.6667Z" fill="#0FC1A1"/>
<path d="M21.6673 28.3333C21.6673 29.2538 20.9211 30 20.0007 30C19.0802 30 18.334 29.2538 18.334 28.3333C18.334 27.4129 19.0802 26.6667 20.0007 26.6667C20.9211 26.6667 21.6673 27.4129 21.6673 28.3333Z" fill="#0FC1A1"/>
<path d="M21.6673 21.6667C21.6673 22.5871 20.9211 23.3333 20.0007 23.3333C19.0802 23.3333 18.334 22.5871 18.334 21.6667C18.334 20.7462 19.0802 20 20.0007 20C20.9211 20 21.6673 20.7462 21.6673 21.6667Z" fill="#0FC1A1"/>
<path d="M13.3333 28.3333C13.3333 29.2538 12.5871 30 11.6667 30C10.7462 30 10 29.2538 10 28.3333C10 27.4129 10.7462 26.6667 11.6667 26.6667C12.5871 26.6667 13.3333 27.4129 13.3333 28.3333Z" fill="#0FC1A1"/>
<path d="M13.3333 21.6667C13.3333 22.5871 12.5871 23.3333 11.6667 23.3333C10.7462 23.3333 10 22.5871 10 21.6667C10 20.7462 10.7462 20 11.6667 20C12.5871 20 13.3333 20.7462 13.3333 21.6667Z" fill="#0FC1A1"/>
</svg>
