<svg width="40" height="40" viewBox="0 0 40 40" fill="none" xmlns="http://www.w3.org/2000/svg">
<path d="M15 26.6641C16.4173 27.7146 18.1409 28.3307 20 28.3307C21.8591 28.3307 23.5827 27.7146 25 26.6641" stroke="#0FC1A1" stroke-width="3" stroke-linecap="round"/>
<ellipse cx="25.0007" cy="17.5" rx="1.66667" ry="2.5" fill="#0FC1A1"/>
<ellipse cx="15.0007" cy="17.5" rx="1.66667" ry="2.5" fill="#0FC1A1"/>
<path d="M3.33398 20.0026C3.33398 12.1459 3.33398 8.21749 5.77476 5.77671C8.21554 3.33594 12.1439 3.33594 20.0007 3.33594C27.8574 3.33594 31.7858 3.33594 34.2265 5.77671C36.6673 8.21749 36.6673 12.1459 36.6673 20.0026C36.6673 27.8593 36.6673 31.7877 34.2265 34.2285C31.7858 36.6693 27.8574 36.6693 20.0007 36.6693C12.1439 36.6693 8.21554 36.6693 5.77476 34.2285C3.33398 31.7877 3.33398 27.8593 3.33398 20.0026Z" stroke="black" stroke-width="3"/>
</svg>
