<svg width="55" height="60" viewBox="0 0 55 60" fill="none" xmlns="http://www.w3.org/2000/svg">
<path d="M52.5895 8.3511V5.79045C52.5889 5.27787 52.3996 4.78345 52.0579 4.40139C51.7162 4.01934 51.2459 3.77635 50.7365 3.71874V2.08456C50.7359 1.5319 50.516 1.00206 50.1253 0.611265C49.7345 0.220473 49.2046 0.000643647 48.6519 0H30.5855C30.0328 0.000643647 29.5029 0.220473 29.1121 0.611265C28.7213 1.00206 28.5015 1.5319 28.5009 2.08456V3.71874C27.9915 3.77635 27.5212 4.01934 27.1795 4.40139C26.8378 4.78345 26.6485 5.27787 26.6479 5.79045V8.3511C26.1386 8.40871 25.6682 8.65169 25.3265 9.03375C24.9848 9.41581 24.7956 9.91023 24.7949 10.4228V11.8125C24.7956 12.3251 24.9848 12.8195 25.3265 13.2016C25.6682 13.5836 26.1386 13.8266 26.6479 13.8842V31.5H28.5009V22.2353H50.7365V32.4265H52.5895V13.8842C53.0988 13.8266 53.5692 13.5836 53.9109 13.2016C54.2526 12.8195 54.4418 12.3251 54.4425 11.8125V10.4228C54.4418 9.91023 54.2526 9.41581 53.9109 9.03375C53.5692 8.65169 53.0988 8.40871 52.5895 8.3511ZM30.3538 2.08456C30.3538 2.02313 30.3782 1.96422 30.4217 1.92078C30.4651 1.87735 30.524 1.85294 30.5855 1.85294H48.6519C48.7134 1.85294 48.7723 1.87735 48.8157 1.92078C48.8592 1.96422 48.8836 2.02313 48.8836 2.08456V3.70589H30.3538V2.08456ZM28.5009 5.79045C28.5009 5.72902 28.5253 5.67011 28.5687 5.62667C28.6121 5.58323 28.6711 5.55883 28.7325 5.55883H50.5049C50.5663 5.55883 50.6252 5.58323 50.6687 5.62667C50.7121 5.67011 50.7365 5.72902 50.7365 5.79045V8.33825H28.5009V5.79045ZM28.5009 20.3824V13.8971H50.7365V20.3824H28.5009ZM52.5895 11.8125C52.5895 11.8739 52.5651 11.9329 52.5217 11.9763C52.4782 12.0197 52.4193 12.0441 52.3579 12.0441H26.8795C26.8181 12.0441 26.7592 12.0197 26.7157 11.9763C26.6723 11.9329 26.6479 11.8739 26.6479 11.8125V10.4228C26.6479 10.3614 26.6723 10.3025 26.7157 10.259C26.7592 10.2156 26.8181 10.1912 26.8795 10.1912H52.3579C52.4193 10.1912 52.4782 10.2156 52.5217 10.259C52.5651 10.3025 52.5895 10.3614 52.5895 10.4228V11.8125Z" fill="#222225"/>
<path d="M50.7383 48.1797H41.4735V50.0327H50.7383V52.3489C50.7383 52.7174 50.5919 53.0709 50.3313 53.3315C50.0707 53.5921 49.7172 53.7386 49.3486 53.7386H35.5688C37.1333 52.7025 38.4101 51.2871 39.2801 49.6245C40.1501 47.9619 40.5851 46.106 40.5443 44.23C40.4163 38.2785 35.5464 33.4441 29.5941 33.3573C27.1915 33.3211 24.8418 34.0645 22.8972 35.4759C20.9526 36.8874 19.5178 38.891 18.8077 41.1866C18.0976 43.4821 18.1506 45.9459 18.9586 48.2088C19.7666 50.4717 21.2862 52.4119 23.2896 53.7386H9.50973C9.14116 53.7386 8.78767 53.5921 8.52705 53.3315C8.26642 53.0709 8.12001 52.7174 8.12001 52.3489V47.2533H16.4584V45.4003H8.12001V42.6209H16.4584V40.768H8.12001V37.9885H13.6789V36.1356H8.12001V32.4297H24.7967V30.5768H8.12001V28.8379L8.84336 25.9444H24.7967V24.0915H6.49866C6.43723 24.0915 6.37831 24.0671 6.33487 24.0236C6.29144 23.9802 6.26703 23.9213 6.26703 23.8598V18.7642C6.26703 18.7028 6.29144 18.6439 6.33487 18.6005C6.37831 18.557 6.43723 18.5326 6.49866 18.5326H11.8259V16.6797H6.49866C5.94579 16.6797 5.41556 16.8993 5.02463 17.2902C4.63369 17.6812 4.41406 18.2114 4.41406 18.7642V23.8598C4.41406 24.4127 4.63369 24.9429 5.02463 25.3339C5.41556 25.7248 5.94579 25.9444 6.49866 25.9444H6.93341L6.29471 28.4992C6.27631 28.5726 6.26702 28.6481 6.26703 28.7238V52.3489C6.26703 53.2089 6.60868 54.0336 7.2168 54.6418C7.82492 55.2499 8.64972 55.5915 9.50973 55.5915H49.3486C50.2086 55.5915 51.0334 55.2499 51.6416 54.6418C52.2497 54.0336 52.5913 53.2089 52.5913 52.3489V34.2827H50.7383V48.1797ZM29.4292 53.7386C27.9374 53.7404 26.4675 53.3797 25.1459 52.6877L37.6432 40.1907C38.38 41.6026 38.7403 43.1807 38.6893 44.7725C38.6383 46.3644 38.1777 47.9162 37.352 49.2781C36.5263 50.6399 35.3634 51.7659 33.9756 52.5473C32.5877 53.3286 31.0219 53.7389 29.4292 53.7386ZM29.4292 35.2091C30.9209 35.2073 32.3908 35.5679 33.7123 36.26L21.2152 48.7569C20.4784 47.345 20.1181 45.7669 20.1691 44.1751C20.2201 42.5833 20.6807 41.0315 21.5064 39.6696C22.3321 38.3077 23.495 37.1817 24.8829 36.4004C26.2707 35.6191 27.8365 35.2088 29.4292 35.2091ZM22.2584 50.3338L35.2892 37.3032C35.7684 37.6956 36.2075 38.1346 36.5998 38.6139L23.5692 51.6445C23.0899 51.2521 22.6508 50.813 22.2584 50.3338Z" fill="#222225"/>
<path d="M41.4724 24.0898H37.7665C37.5208 24.0898 37.2851 24.1875 37.1114 24.3612C36.9376 24.5349 36.84 24.7706 36.84 25.0163V26.8693H34.987C34.7413 26.8693 34.5057 26.9669 34.3319 27.1406C34.1582 27.3144 34.0605 27.55 34.0605 27.7957V31.5016C34.0605 31.7473 34.1582 31.983 34.3319 32.1567C34.5057 32.3305 34.7413 32.4281 34.987 32.4281H36.84V34.281C36.84 34.5268 36.9376 34.7624 37.1114 34.9362C37.2851 35.1099 37.5208 35.2075 37.7665 35.2075H41.4724C41.7182 35.2075 41.9538 35.1099 42.1276 34.9362C42.3013 34.7624 42.3989 34.5268 42.3989 34.281V32.4281H44.2519C44.4976 32.4281 44.7333 32.3305 44.907 32.1567C45.0808 31.983 45.1784 31.7473 45.1784 31.5016V27.7957C45.1784 27.55 45.0808 27.3144 44.907 27.1406C44.7333 26.9669 44.4976 26.8693 44.2519 26.8693H42.3989V25.0163C42.3989 24.7706 42.3013 24.5349 42.1276 24.3612C41.9538 24.1875 41.7182 24.0898 41.4724 24.0898ZM43.3254 28.7222V30.5751H41.4724C41.2267 30.5751 40.9911 30.6728 40.8173 30.8465C40.6436 31.0203 40.5459 31.2559 40.5459 31.5016V33.3546H38.693V31.5016C38.693 31.2559 38.5954 31.0203 38.4216 30.8465C38.2479 30.6728 38.0122 30.5751 37.7665 30.5751H35.9135V28.7222H37.7665C38.0122 28.7222 38.2479 28.6246 38.4216 28.4508C38.5954 28.2771 38.693 28.0414 38.693 27.7957V25.9428H40.5459V27.7957C40.5459 28.0414 40.6436 28.2771 40.8173 28.4508C40.9911 28.6246 41.2267 28.7222 41.4724 28.7222H43.3254Z" fill="#848484"/>
<path d="M48.8806 38.9141H41.4688V40.767H48.8806V38.9141Z" fill="#848484"/>
<path d="M48.8819 43.543H42.3965V45.3959H48.8819V43.543Z" fill="#848484"/>
<path d="M18.3088 36.1328H15.5293V37.9858H18.3088V36.1328Z" fill="#848484"/>
<path d="M24.7956 16.6797H13.6777V18.5326H24.7956V16.6797Z" fill="#222225"/>
<path d="M12.6615 39.9911L4.71437 31.5474C3.9247 30.7084 2.59126 30.7084 1.80159 31.5474L1.29013 32.0908C0.565314 32.8609 0.565315 34.0622 1.29013 34.8323L9.5698 43.6293C10.2946 44.3994 10.2946 45.6007 9.5698 46.3708L1.29013 55.1678C0.565314 55.9379 0.565315 57.1392 1.29013 57.9093L1.80159 58.4527C2.59126 59.2917 3.9247 59.2917 4.71437 58.4527L12.6615 50.009C13.4512 49.17 14.7846 49.17 15.5743 50.009L23.5214 58.4527C24.3111 59.2917 25.6446 59.2917 26.4342 58.4527L26.9457 57.9093C27.6705 57.1392 27.6705 55.9379 26.9457 55.1678L18.666 46.3708C17.9412 45.6007 17.9412 44.3994 18.666 43.6293L26.9457 34.8323C27.6705 34.0622 27.6705 32.8609 26.9457 32.0908L26.4342 31.5474C25.6446 30.7084 24.3111 30.7084 23.5214 31.5474L15.5743 39.9911C14.7846 40.8301 13.4512 40.8301 12.6615 39.9911Z" fill="#0FC1A1"/>
</svg>
