<svg width="60" height="62" viewBox="0 0 60 62" fill="none" xmlns="http://www.w3.org/2000/svg">
<path d="M46.7694 41.1275C47.65 39.5968 47.878 37.8251 47.4066 36.1468C47.3729 36.0199 47.3263 35.9008 47.2874 35.7816C49.5563 34.8 51.0871 32.4923 51.0871 29.9281C51.0871 27.3562 49.5486 25.0407 47.2668 24.0669C47.2875 24.0151 47.2927 23.9607 47.3134 23.9089C47.8625 22.2253 47.7252 20.3139 46.7695 18.6511C46.0469 17.4182 44.959 16.5221 43.7339 16.0066C43.6666 15.9807 43.5941 15.947 43.5293 15.9211C43.449 15.8952 43.3765 15.8693 43.2962 15.8408C43.1693 15.802 43.045 15.7554 42.9181 15.7217C42.8715 15.7088 42.8326 15.701 42.786 15.688C42.628 15.6492 42.4674 15.6155 42.3094 15.5818C42.2835 15.5741 42.2499 15.5741 42.2162 15.5689C42.097 15.5482 41.9701 15.53 41.851 15.5171C41.5402 12.2692 38.8466 9.80859 35.4717 9.80859C32.9516 9.80859 30.7708 11.2745 29.7218 13.3958C28.6754 11.2746 26.492 9.80859 23.9718 9.80859C20.6643 9.80859 17.9707 12.2691 17.6003 15.5171C17.5614 15.5249 17.52 15.53 17.4811 15.5378C17.3413 15.5508 17.2014 15.5715 17.0693 15.5974C16.989 15.6103 16.9113 15.631 16.831 15.6492C16.7171 15.6751 16.5979 15.701 16.4866 15.7347C16.4063 15.7554 16.3338 15.7813 16.2612 15.8072C16.1421 15.846 16.0152 15.8875 15.896 15.9341C15.8572 15.9548 15.8106 15.9678 15.7691 15.9859C14.5104 16.5039 13.4018 17.4104 12.6585 18.664C12.0809 19.6715 11.809 20.7723 11.809 21.8601V21.9068C11.809 21.9741 11.8167 22.0389 11.8167 22.1114C11.8245 22.2046 11.8245 22.2979 11.8297 22.3833C11.8763 22.9791 11.9955 23.5566 12.1949 24.0928C9.93374 25.0796 8.41602 27.3821 8.41602 29.9411C8.41602 32.4949 9.93381 34.8 12.1897 35.7817C12.1379 35.9267 12.0835 36.0743 12.0447 36.2194C12.0369 36.2453 12.0317 36.266 12.024 36.2919C11.9773 36.4654 11.9385 36.6364 11.9048 36.8151C11.8841 36.9291 11.8711 37.0404 11.8582 37.1466C11.8504 37.2191 11.8375 37.2917 11.8323 37.3642C11.7131 38.6644 11.9903 39.9698 12.6611 41.1379C12.8942 41.5497 13.1791 41.9201 13.4822 42.2594C13.4899 42.2671 13.4899 42.2671 13.4951 42.2723C13.6143 42.4044 13.7412 42.5313 13.8733 42.6556C14.8756 43.5907 16.1603 44.2071 17.5874 44.347C17.906 47.5897 20.6437 50.128 23.9667 50.128C26.4869 50.128 28.6676 48.662 29.7167 46.5407C30.763 48.662 32.9464 50.128 35.4666 50.128C38.7896 50.128 41.5273 47.5898 41.8459 44.347C43.0658 44.2278 44.1795 43.7564 45.1016 43.0468C45.7698 42.5262 46.3318 41.8838 46.7694 41.1275ZM23.9617 48.7917C21.3484 48.7917 19.1935 46.8155 18.9085 44.2773C19.7891 44.1788 20.6516 43.9069 21.4468 43.4484C21.7653 43.262 21.8715 42.8579 21.6928 42.5393C21.5063 42.2207 21.1023 42.1146 20.7837 42.2933C19.5897 42.977 18.2118 43.1687 16.8909 42.8242C16.1087 42.6196 15.4067 42.2415 14.8162 41.7157C14.7644 41.669 14.7023 41.6172 14.6582 41.5706C14.6194 41.537 14.5857 41.4981 14.552 41.4567C13.6714 40.5294 13.1275 39.2681 13.1275 37.8824C13.1275 37.7089 13.1405 37.5379 13.1612 37.3644C13.169 37.3178 13.1742 37.2712 13.1819 37.2323C13.2027 37.1002 13.2286 36.9603 13.2545 36.8334C13.2622 36.7946 13.2752 36.748 13.2804 36.7065C13.3736 36.3543 13.4979 36.0228 13.6715 35.7042C13.6974 35.6576 13.6974 35.6109 13.7103 35.5591C14.1558 34.7096 14.837 34.0155 15.6917 33.5441C16.0103 33.3653 16.1294 32.9665 15.9507 32.6427C15.772 32.3241 15.3679 32.205 15.0494 32.3837C14.0936 32.9069 13.3192 33.6503 12.7546 34.5516C10.9519 33.7823 9.72424 31.9589 9.72424 29.9179C9.72424 27.8614 10.9649 26.0328 12.7805 25.2688C13.3244 26.1365 14.0859 26.8928 15.0338 27.4444C15.14 27.504 15.2514 27.5299 15.3654 27.5299C15.5985 27.5299 15.816 27.4107 15.9429 27.1984C16.1294 26.8798 16.0155 26.4758 15.6969 26.2893C14.7878 25.7661 14.1066 25.0098 13.6689 24.1421C13.6689 24.1343 13.6689 24.1291 13.6611 24.1214C13.6093 24.0281 13.5679 23.9219 13.5212 23.8235C13.3814 23.4842 13.27 23.1345 13.2027 22.7771C13.1949 22.7305 13.1819 22.6917 13.1768 22.6451C13.1638 22.5518 13.1509 22.4534 13.1431 22.3601C13.1301 22.2151 13.1172 22.0623 13.1172 21.9095V21.8706C13.125 19.6095 14.6091 17.6877 16.6656 17.0376C16.6863 17.0298 16.7044 17.0246 16.7174 17.0168C16.8573 16.978 16.9971 16.9366 17.1422 16.9106C17.1629 16.9029 17.1888 16.9029 17.2095 16.8977C17.3623 16.864 17.5203 16.8459 17.6809 16.8252H17.6887C17.8622 16.8045 18.0331 16.7993 18.2067 16.7993H18.2196C19.0951 16.7993 19.9757 17.0117 20.7864 17.4753C21.1049 17.654 21.509 17.5478 21.6955 17.2292C21.882 16.9106 21.768 16.5066 21.4494 16.3201C20.6543 15.8616 19.7918 15.5975 18.9293 15.5042C19.2867 12.9971 21.3821 11.1141 23.954 11.1141C26.759 11.1141 29.0409 13.3959 29.0409 16.2009V30.9797C28.5695 30.8606 28.1188 30.6275 27.7354 30.2649C27.4713 30.0137 27.0517 30.0266 26.8004 30.2908C26.5491 30.555 26.5621 30.9745 26.8263 31.2258C27.4686 31.8371 28.2456 32.1997 29.0408 32.3396V43.697C29.0459 46.5098 26.7668 48.7917 23.9617 48.7917ZM35.4591 48.7917C32.654 48.7917 30.3722 46.5099 30.3722 43.7048V32.3474C31.1881 32.2205 31.9703 31.8501 32.5997 31.2207C32.8587 30.9617 32.8587 30.5448 32.5997 30.2857C32.3407 30.0267 31.9237 30.0267 31.6646 30.2857C31.2942 30.6561 30.8487 30.8892 30.3722 31.0005V16.2085C30.3722 13.4034 32.654 11.1216 35.4591 11.1216C38.0984 11.1216 40.2067 13.0124 40.5045 15.5169C39.655 15.6102 38.821 15.8692 38.0387 16.3198C37.7202 16.5063 37.614 16.9103 37.7927 17.2289C37.9792 17.5475 38.3832 17.6537 38.7018 17.475C39.4788 17.0295 40.3206 16.8042 41.1416 16.786C41.1675 16.786 41.1883 16.7989 41.209 16.7989C44.014 16.7989 46.2959 19.0808 46.2959 21.8858C46.2959 22.4505 46.2026 23.0255 46.0317 23.5694C46.0187 23.5953 46.011 23.629 46.0058 23.6549C46.0058 23.6626 45.998 23.6756 45.9928 23.6808C45.594 24.7479 44.8454 25.6828 43.7913 26.2864C43.4727 26.4728 43.3665 26.8769 43.5452 27.1955C43.6722 27.4079 43.8897 27.527 44.1228 27.527C44.2368 27.527 44.3481 27.5011 44.4543 27.4415C45.4023 26.8976 46.1586 26.1361 46.6947 25.2607C48.5181 26.017 49.7639 27.8533 49.7639 29.915C49.7639 31.9637 48.5311 33.7949 46.7207 34.5563C46.1716 33.655 45.3946 32.9065 44.4466 32.3807C44.128 32.202 43.724 32.3212 43.5452 32.6397C43.3665 32.9583 43.4857 33.3623 43.8042 33.5411C44.6719 34.0177 45.3635 34.7403 45.7934 35.6157C45.8012 35.6287 45.7934 35.6416 45.8012 35.6546C46.1327 36.3772 46.2985 37.1205 46.2985 37.8769C46.2985 39.2884 45.7338 40.5757 44.8195 41.5107L44.7988 41.5314C44.7056 41.6247 44.6123 41.7102 44.5139 41.7904C44.475 41.8241 44.4336 41.863 44.387 41.8966C44.3274 41.9433 44.2678 41.9899 44.2083 42.0287C44.1098 42.1013 44.0166 42.1686 43.9156 42.2333C43.9156 42.2333 43.9078 42.2333 43.9078 42.2411C43.4908 42.5001 43.0324 42.6996 42.548 42.8239C41.2556 43.1684 39.8829 42.9767 38.6966 42.2929C38.378 42.1064 37.974 42.2204 37.7875 42.539C37.601 42.8576 37.715 43.2616 38.0335 43.4481C38.8106 43.8936 39.6523 44.1707 40.5071 44.2691C40.2248 46.81 38.0699 48.7917 35.4591 48.7917Z" fill="#222225" stroke="#222225"/>
<path d="M24.7095 18.0071C24.3987 18.2065 24.3106 18.6184 24.5049 18.9214C24.8494 19.4575 24.8623 20.2552 24.5567 20.8639C24.1993 21.4804 23.5362 21.8326 22.8188 21.786C22.4406 21.7523 22.135 22.0372 22.1091 22.4024C22.0832 22.7676 22.3603 23.0861 22.7255 23.1121C22.8058 23.1198 22.8783 23.1198 22.9586 23.1198C24.0853 23.1198 25.1265 22.5241 25.7248 21.5011C26.2558 20.4391 26.2143 19.1467 25.6186 18.2195C25.4321 17.9009 25.0203 17.8077 24.7095 18.0071Z" fill="#222225" stroke="#222225"/>
<path d="M36.0504 22.6031C36.7264 22.6031 37.4024 22.3648 37.9204 21.8883C38.1923 21.6422 38.2053 21.2175 37.9592 20.9532C37.7132 20.6813 37.2884 20.6683 37.0242 20.9144C36.4751 21.4246 35.5401 21.3909 34.9833 20.8885C34.4186 20.2772 34.4005 19.3448 34.9315 18.7206C35.1697 18.4409 35.1309 18.0239 34.8512 17.7856C34.5714 17.5473 34.1544 17.5862 33.9161 17.8659C32.9552 19.0003 32.9941 20.6916 34.043 21.8313C34.6103 22.3441 35.333 22.6031 36.0504 22.6031Z" fill="#222225" stroke="#222225"/>
<path d="M21.0751 36.6072C20.7099 36.6331 20.4328 36.9465 20.4587 37.3091C20.4846 37.6743 20.8032 37.9462 21.1606 37.9255C21.9506 37.8737 22.7665 38.1768 23.4218 38.775C24.0175 39.3707 24.3231 40.2203 24.2713 41.1035C24.2454 41.4687 24.5225 41.7872 24.8877 41.8054H24.9343C25.2788 41.8054 25.5715 41.5334 25.5974 41.1889C25.6828 39.9224 25.2322 38.7025 24.3438 37.8141C23.3958 36.9568 22.2355 36.5269 21.0751 36.6072Z" fill="#222225" stroke="#222225"/>
<path d="M39.343 37.4141C39.4622 37.0697 39.2835 36.6915 38.939 36.5724C37.302 36.0026 35.4968 36.4196 34.3908 37.6136C33.1631 38.761 32.741 40.5585 33.316 42.1954C33.4092 42.4674 33.6682 42.6409 33.9402 42.6409C34.0127 42.6409 34.0852 42.6279 34.1577 42.602C34.5022 42.4829 34.6887 42.1048 34.5618 41.7603C34.1629 40.6206 34.4478 39.3722 35.3232 38.5513C36.1054 37.7095 37.359 37.4246 38.4987 37.8208C38.838 37.9452 39.2161 37.7586 39.343 37.4141Z" fill="#222225" stroke="#222225"/>
<path d="M21.3937 33.4226C21.6449 33.4226 21.891 33.2775 22.0049 33.0315C22.15 32.6999 22.0049 32.3011 21.6656 32.156C20.6711 31.7105 20.0469 30.7782 20.0469 29.7162C20.0469 28.6284 20.684 27.6545 21.632 27.2893C21.9713 27.1572 22.1422 26.7713 22.0101 26.4346C21.878 26.0953 21.4921 25.9243 21.1554 26.0564C19.7024 26.621 18.7207 28.0922 18.7207 29.7239C18.7207 31.322 19.6427 32.7206 21.1217 33.3784C21.2149 33.4095 21.3082 33.4226 21.3937 33.4226Z" fill="#222225" stroke="#222225"/>
<path d="M36.9901 26.4144C36.8503 26.7537 37.0109 27.137 37.3476 27.2769C38.2904 27.6602 38.9457 28.6626 38.9457 29.7116C38.9457 30.7321 38.3085 31.693 37.3139 32.1592C36.9824 32.3172 36.8426 32.7083 36.9954 33.0398C37.1093 33.2781 37.3476 33.4179 37.5988 33.4179C37.6921 33.4179 37.7905 33.3972 37.8786 33.3584C39.3316 32.6746 40.2666 31.2423 40.2666 29.7116C40.2666 28.1394 39.2721 26.6346 37.8475 26.0518C37.5212 25.9172 37.1352 26.0751 36.9901 26.4144Z" fill="#222225" stroke="#222225"/>
<path d="M45.2898 11.1886C45.396 11.1886 45.5073 11.1627 45.6083 11.1083L50.0503 8.68141L54.487 6.1872C54.6735 6.08878 54.7927 5.90229 54.8186 5.69768C54.8445 5.49307 54.7719 5.28068 54.6191 5.13305L52.617 3.20343L50.6072 1.19359C50.4621 1.04854 50.2498 0.976019 50.0426 1.0071C49.8379 1.033 49.6592 1.15992 49.553 1.3464L44.707 10.2121C44.5672 10.4711 44.6138 10.7897 44.821 11.002C44.9531 11.1238 45.124 11.1886 45.2898 11.1886ZM50.2964 2.75523L51.6898 4.1487L53.0548 5.46705L49.408 7.52358L46.9604 8.86261L50.2964 2.75523Z" fill="#0FC1A1" stroke="#0FC1A1"/>
<path d="M5.00526 6.19041L9.44719 8.68979L13.8839 11.1167C13.9824 11.1685 14.0963 11.197 14.2025 11.197C14.3761 11.197 14.5418 11.1296 14.6739 11.0053C14.8785 10.8007 14.9251 10.4744 14.7879 10.2154L12.361 5.77343L9.86676 1.33668C9.75279 1.15797 9.57408 1.03105 9.3617 1.00515C9.15709 0.979254 8.9447 1.05178 8.79707 1.20459L6.87528 3.19375L4.8706 5.13629C4.71779 5.28134 4.64527 5.48854 4.67117 5.70092C4.69966 5.90554 4.82655 6.08422 5.00526 6.19041ZM7.81548 4.13388L9.13383 2.76892L11.1904 6.41571L12.5294 8.86331L10.0896 7.52944L6.42983 5.47292L7.81548 4.13388Z" fill="#0FC1A1" stroke="#0FC1A1"/>
<path d="M54.4748 55.7308L45.6091 50.8848C45.3501 50.7449 45.0316 50.7915 44.8192 50.9987C44.6146 51.2034 44.5679 51.5297 44.7052 51.7887L49.5512 60.6544C49.6496 60.8409 49.8309 60.9652 50.0407 60.9937C50.0744 61.0015 50.1003 61.0015 50.134 61.0015C50.3075 61.0015 50.4784 60.9341 50.6053 60.8098L54.6225 56.7926C54.7676 56.6476 54.8401 56.4352 54.809 56.228C54.7857 56.0156 54.6613 55.8292 54.4748 55.7308ZM50.2971 59.2377L46.9611 53.1382L53.0607 56.4741L50.2971 59.2377Z" fill="#0FC1A1" stroke="#0FC1A1"/>
<path d="M13.8766 50.8792L5.01089 55.7278C4.8244 55.8262 4.70008 56.0075 4.67159 56.2173C4.64569 56.4219 4.71044 56.6343 4.85807 56.782L6.86016 58.784L8.79754 60.7939C8.92445 60.926 9.09539 60.9985 9.27411 60.9985C9.30001 60.9985 9.32591 60.9985 9.35958 60.9907C9.56419 60.9648 9.75068 60.8379 9.8491 60.6592L12.3485 56.2173L14.7754 51.7805C14.9152 51.5215 14.8686 51.2029 14.6614 50.9906C14.4594 50.7885 14.1356 50.742 13.8766 50.8792ZM11.1984 55.5672L9.14191 59.2269L7.8158 57.849L6.43791 56.4711L12.5375 53.1352L11.1984 55.5672Z" fill="#0FC1A1" stroke="#0FC1A1"/>
<path d="M40.4429 7.17073C40.6216 7.17073 40.8003 7.09821 40.9324 6.95835L43.2868 4.3916C43.5328 4.11964 43.5199 3.70262 43.2479 3.45656C42.976 3.21051 42.5589 3.22346 42.3129 3.49541L39.9585 6.06216C39.7125 6.33412 39.7254 6.75114 39.9974 6.9972C40.1243 7.11634 40.2823 7.17073 40.4429 7.17073Z" fill="#848484" stroke="#848484"/>
<path d="M18.3508 7.10533C18.4829 7.24519 18.6564 7.30994 18.8351 7.30994C19.0009 7.30994 19.1589 7.25037 19.2936 7.13123C19.5577 6.87999 19.5733 6.46042 19.3195 6.19619L16.8926 3.6372C16.6413 3.37302 16.2217 3.35748 15.9575 3.6113C15.6933 3.86254 15.6778 4.28212 15.9316 4.54634L18.3508 7.10533Z" fill="#848484" stroke="#848484"/>
<path d="M48.6009 44.6555C48.2824 44.4768 47.8783 44.5881 47.6996 44.9067C47.5208 45.2253 47.6271 45.6293 47.9508 45.8081L51.0019 47.5382C51.1081 47.5978 51.2195 47.6237 51.3257 47.6237C51.5588 47.6237 51.7841 47.5046 51.9033 47.2844C52.082 46.9659 51.9758 46.5618 51.652 46.3831L48.6009 44.6555Z" fill="#848484" stroke="#848484"/>
<path d="M9.06791 48.1757C9.17411 48.1757 9.28547 48.1498 9.38649 48.0954L12.4376 46.43C12.7613 46.2564 12.8753 45.8524 12.7018 45.5286C12.5282 45.2048 12.119 45.0909 11.8004 45.2644L8.74932 46.9298C8.42557 47.1034 8.3116 47.5074 8.48513 47.8312C8.60946 48.0487 8.8348 48.1757 9.06791 48.1757Z" fill="#848484" stroke="#848484"/>
<path d="M29.6436 51.5625H29.6306C29.2654 51.5703 28.9754 51.8733 28.9805 52.2385L29.0479 55.6988C29.0556 56.064 29.3535 56.3489 29.7109 56.3489H29.7239C30.0891 56.3412 30.3792 56.0381 30.374 55.6729L30.3066 52.2126C30.2989 51.8474 30.001 51.5625 29.6436 51.5625Z" fill="#848484" stroke="#848484"/>
<path d="M29.709 8.63018H29.7219C30.0871 8.62241 30.3772 8.31937 30.372 7.9542L30.3047 4.49385C30.2969 4.12866 29.9602 3.84375 29.6287 3.84375C29.2635 3.85152 28.9734 4.15456 28.9786 4.51973L29.0459 7.98007C29.0537 8.3375 29.3515 8.63018 29.709 8.63018Z" fill="#848484" stroke="#848484"/>
<path d="M58.0356 28.293H58.0226L54.5623 28.3603C54.1971 28.3681 53.907 28.6711 53.9122 29.0363C53.9199 29.4015 54.2178 29.6864 54.5752 29.6864H54.5882L58.0485 29.6191C58.4137 29.6113 58.7038 29.3082 58.6986 28.9431C58.6909 28.5779 58.3982 28.293 58.0356 28.293Z" fill="#848484" stroke="#848484"/>
<path d="M5.78652 28.9392C5.77875 28.574 5.48089 28.2891 5.12347 28.2891H5.11051L1.65017 28.3564C1.28498 28.3642 0.99489 28.6672 1.00007 29.0324C1.00784 29.3976 1.3057 29.6825 1.66312 29.6825H1.67607L5.13641 29.6151C5.50161 29.61 5.7917 29.3043 5.78652 28.9392Z" fill="#848484" stroke="#848484"/>
</svg>
