<svg width="40" height="40" viewBox="0 0 40 40" fill="none" xmlns="http://www.w3.org/2000/svg">
<path d="M30 20.0006H28.6643C27.2816 20.0006 26.5902 20.0006 26.0171 20.3251C25.4439 20.6496 25.0882 21.2425 24.3768 22.4282L24.3253 22.5139C23.6626 23.6185 23.3312 24.1708 22.8491 24.1617C22.367 24.1526 22.0566 23.5883 21.4358 22.4596L18.6237 17.3466C18.0448 16.2942 17.7554 15.768 17.2932 15.7431C16.8311 15.7181 16.4867 16.2101 15.7979 17.1941L15.3262 17.8679C14.5947 18.913 14.2289 19.4355 13.6862 19.718C13.1435 20.0006 12.5057 20.0006 11.2301 20.0006H10" stroke="#1D2126" stroke-width="2.5" stroke-linecap="round"/>
<path opacity="0.5" d="M14.9369 32.2845L15.7268 31.3158L15.7268 31.3158L14.9369 32.2845ZM20.0007 9.16461L19.0855 10.0161C19.322 10.2703 19.6535 10.4146 20.0007 10.4146C20.3478 10.4146 20.6793 10.2703 20.9158 10.0161L20.0007 9.16461ZM25.0645 32.2846L25.8544 33.2533L25.8544 33.2533L25.0645 32.2846ZM14.9369 32.2845L15.7268 31.3158C13.3104 29.3453 10.4889 26.7613 8.28199 23.9329C6.05141 21.0742 4.58398 18.1368 4.58398 15.4341H3.33398H2.08398C2.08398 18.9771 3.96609 22.4655 6.31098 25.4708C8.67959 28.5065 11.6595 31.2249 14.1469 33.2533L14.9369 32.2845ZM3.33398 15.4341H4.58398C4.58398 10.8843 6.68049 7.8409 9.33506 6.73652C11.9556 5.6463 15.5887 6.25799 19.0855 10.0161L20.0007 9.16461L20.9158 8.31312C16.9128 4.01102 12.2126 2.83164 8.37478 4.42831C4.57094 6.01082 2.08398 10.1323 2.08398 15.4341H3.33398ZM25.0645 32.2846L25.8544 33.2533C28.3418 31.225 31.3217 28.5066 33.6903 25.4709C36.0352 22.4656 37.9173 18.9771 37.9173 15.434H36.6673H35.4173C35.4173 18.1369 33.9499 21.0742 31.7193 23.933C29.5124 26.7614 26.6909 29.3453 24.2745 31.3158L25.0645 32.2846ZM36.6673 15.434H37.9173C37.9173 10.1321 35.4304 6.01064 31.6265 4.42818C27.7886 2.83157 23.0885 4.01103 19.0855 8.31312L20.0007 9.16461L20.9158 10.0161C24.4126 6.25798 28.0457 5.64623 30.6663 6.73641C33.3208 7.84074 35.4173 10.8841 35.4173 15.434H36.6673ZM14.9369 32.2845L14.1469 33.2533C16.2652 34.9806 17.7356 36.25 20.0007 36.25L20.0007 35L20.0007 33.75C18.7981 33.75 18.0486 33.2091 15.7268 31.3158L14.9369 32.2845ZM25.0645 32.2846L24.2745 31.3158C21.9528 33.2091 21.2033 33.75 20.0007 33.75L20.0007 35L20.0007 36.25C22.2657 36.25 23.7362 34.9806 25.8544 33.2533L25.0645 32.2846Z" fill="#1D2126"/>
</svg>
