<svg width="52" height="52" viewBox="0 0 52 52" fill="none" xmlns="http://www.w3.org/2000/svg">
<rect width="52" height="52" rx="10" fill="url(#paint0_linear_2921_6563)"/>
<path d="M32.7886 41.2445L26 34.5709L37.1307 27L42.2143 31.9784C43.1865 32.9342 43.6726 33.4121 43.8408 33.8168C44.2241 34.7389 43.8961 35.7619 43.0615 36.247C42.6953 36.4599 42.0346 36.5262 40.7134 36.6589C39.9674 36.7338 39.5944 36.7713 39.282 36.885C38.5826 37.1395 38.0386 37.6743 37.7796 38.3619C37.664 38.669 37.6259 39.0357 37.5497 39.769C37.4147 41.0679 37.3473 41.7173 37.1307 42.0774C36.6372 42.8979 35.5967 43.2203 34.6586 42.8435C34.2469 42.6782 33.7608 42.2003 32.7886 41.2445Z" fill="url(#paint1_linear_2921_6563)"/>
<path d="M19.2114 41.2445L26 34.5709L14.8693 27L9.7857 31.9784C8.81349 32.9342 8.32739 33.4121 8.15917 33.8168C7.77586 34.7389 8.10389 35.7619 8.93849 36.247C9.30474 36.4599 9.96536 36.5262 11.2866 36.6589C12.0326 36.7338 12.4056 36.7713 12.718 36.885C13.4174 37.1395 13.9614 37.6743 14.2204 38.3619C14.336 38.669 14.3741 39.0357 14.4503 39.769C14.5853 41.0679 14.6527 41.7173 14.8693 42.0774C15.3628 42.8979 16.4033 43.2203 17.3414 42.8435C17.7531 42.6782 18.2392 42.2003 19.2114 41.2445Z" fill="url(#paint2_linear_2921_6563)"/>
<path d="M38 23C38 29.6274 32.6274 35 26 35C19.3726 35 14 29.6274 14 23C14 16.3726 19.3726 11 26 11C32.6274 11 38 16.3726 38 23Z" fill="url(#paint3_linear_2921_6563)"/>
<path d="M24.5766 19.7042C25.2099 18.5681 25.5266 18 26 18C26.4734 18 26.7901 18.5681 27.4234 19.7042L27.5873 19.9981C27.7672 20.321 27.8572 20.4824 27.9975 20.5889C28.1378 20.6954 28.3126 20.735 28.6621 20.814L28.9802 20.886C30.2101 21.1643 30.825 21.3034 30.9713 21.7739C31.1176 22.2443 30.6984 22.7345 29.86 23.715L29.643 23.9686C29.4048 24.2472 29.2857 24.3865 29.2321 24.5589C29.1785 24.7312 29.1965 24.9171 29.2325 25.2888L29.2653 25.6272C29.3921 26.9353 29.4554 27.5894 29.0724 27.8801C28.6894 28.1709 28.1137 27.9058 26.9622 27.3756L26.6643 27.2384C26.337 27.0878 26.1734 27.0124 26 27.0124C25.8266 27.0124 25.663 27.0878 25.3357 27.2384L25.0378 27.3756C23.8863 27.9058 23.3106 28.1709 22.9276 27.8801C22.5446 27.5894 22.6079 26.9353 22.7347 25.6272L22.7675 25.2888C22.8035 24.9171 22.8215 24.7312 22.7679 24.5589C22.7143 24.3865 22.5952 24.2472 22.357 23.9686L22.14 23.715C21.3016 22.7345 20.8824 22.2443 21.0287 21.7739C21.175 21.3034 21.7899 21.1643 23.0198 20.886L23.3379 20.814C23.6874 20.735 23.8622 20.6954 24.0025 20.5889C24.1428 20.4824 24.2328 20.321 24.4127 19.9981L24.5766 19.7042Z" fill="url(#paint4_linear_2921_6563)"/>
<defs>
<linearGradient id="paint0_linear_2921_6563" x1="26" y1="0" x2="26" y2="52.5" gradientUnits="userSpaceOnUse">
<stop offset="0.271345" stop-color="white"/>
<stop offset="1" stop-color="#C2EDFF"/>
</linearGradient>
<linearGradient id="paint1_linear_2921_6563" x1="27.5" y1="26.5" x2="36.8748" y2="43.0708" gradientUnits="userSpaceOnUse">
<stop offset="0.100214" stop-color="#0FC1A1"/>
<stop offset="0.993013" stop-color="#106EE8"/>
</linearGradient>
<linearGradient id="paint2_linear_2921_6563" x1="24.5" y1="26.5" x2="15.1252" y2="43.0708" gradientUnits="userSpaceOnUse">
<stop offset="0.12941" stop-color="#0FC1A1"/>
<stop offset="0.984833" stop-color="#106EE8"/>
</linearGradient>
<linearGradient id="paint3_linear_2921_6563" x1="19.1429" y1="13.0571" x2="31.4857" y2="34.3143" gradientUnits="userSpaceOnUse">
<stop stop-color="#AEEBE3"/>
<stop offset="1" stop-color="#9AD7FB"/>
</linearGradient>
<linearGradient id="paint4_linear_2921_6563" x1="24.6667" y1="18" x2="29.3333" y2="28" gradientUnits="userSpaceOnUse">
<stop stop-color="#0FC1A1"/>
<stop offset="1" stop-color="#106EE8"/>
</linearGradient>
</defs>
</svg>
