<svg width="365" height="200" viewBox="0 0 365 200" fill="none" xmlns="http://www.w3.org/2000/svg">
<path d="M64.0227 15.1818V85H54.3409L18.8523 33.7955H18.2045V85H7.67045V15.1818H17.4205L52.9432 66.4545H53.5909V15.1818H64.0227ZM101.139 86.0568C95.9801 86.0568 91.5369 84.9545 87.8097 82.75C84.1051 80.5227 81.2415 77.3977 79.2188 73.375C77.2188 69.3295 76.2188 64.5909 76.2188 59.1591C76.2188 53.7955 77.2188 49.0682 79.2188 44.9773C81.2415 40.8864 84.0597 37.6932 87.6733 35.3977C91.3097 33.1023 95.5597 31.9545 100.423 31.9545C103.378 31.9545 106.241 32.4432 109.014 33.4205C111.787 34.3977 114.276 35.9318 116.48 38.0227C118.685 40.1136 120.423 42.8295 121.696 46.1705C122.969 49.4886 123.605 53.5227 123.605 58.2727V61.8864H81.9801V54.25H113.616C113.616 51.5682 113.071 49.1932 111.98 47.125C110.889 45.0341 109.355 43.3864 107.378 42.1818C105.423 40.9773 103.128 40.375 100.491 40.375C97.6278 40.375 95.1278 41.0795 92.9915 42.4886C90.8778 43.875 89.2415 45.6932 88.0824 47.9432C86.946 50.1705 86.3778 52.5909 86.3778 55.2045V61.1705C86.3778 64.6705 86.9915 67.6477 88.2188 70.1023C89.4688 72.5568 91.2074 74.4318 93.4347 75.7273C95.6619 77 98.2642 77.6364 101.241 77.6364C103.173 77.6364 104.935 77.3636 106.526 76.8182C108.116 76.25 109.491 75.4091 110.651 74.2955C111.81 73.1818 112.696 71.8068 113.31 70.1705L122.957 71.9091C122.185 74.75 120.798 77.2386 118.798 79.375C116.821 81.4886 114.332 83.1364 111.332 84.3182C108.355 85.4773 104.957 86.0568 101.139 86.0568ZM168.085 63.2841V32.6364H178.312V85H168.29V75.9318H167.744C166.54 78.7273 164.608 81.0568 161.949 82.9205C159.313 84.7614 156.028 85.6818 152.097 85.6818C148.733 85.6818 145.756 84.9432 143.165 83.4659C140.597 81.9659 138.574 79.75 137.097 76.8182C135.642 73.8864 134.915 70.2614 134.915 65.9432V32.6364H145.108V64.7159C145.108 68.2841 146.097 71.125 148.074 73.2386C150.051 75.3523 152.619 76.4091 155.778 76.4091C157.688 76.4091 159.585 75.9318 161.472 74.9773C163.381 74.0227 164.96 72.5795 166.21 70.6477C167.483 68.7159 168.108 66.2614 168.085 63.2841ZM192.009 85V32.6364H201.861V40.9545H202.406C203.361 38.1364 205.043 35.9205 207.452 34.3068C209.884 32.6705 212.634 31.8523 215.702 31.8523C216.338 31.8523 217.088 31.875 217.952 31.9205C218.838 31.9659 219.531 32.0227 220.031 32.0909V41.8409C219.622 41.7273 218.895 41.6023 217.849 41.4659C216.804 41.3068 215.759 41.2273 214.713 41.2273C212.304 41.2273 210.156 41.7386 208.27 42.7614C206.406 43.7614 204.929 45.1591 203.838 46.9545C202.747 48.7273 202.202 50.75 202.202 53.0227V85H192.009ZM249.034 86.0568C244.125 86.0568 239.841 84.9318 236.182 82.6818C232.523 80.4318 229.682 77.2841 227.659 73.2386C225.636 69.1932 224.625 64.4659 224.625 59.0568C224.625 53.625 225.636 48.875 227.659 44.8068C229.682 40.7386 232.523 37.5795 236.182 35.3295C239.841 33.0795 244.125 31.9545 249.034 31.9545C253.943 31.9545 258.227 33.0795 261.886 35.3295C265.545 37.5795 268.386 40.7386 270.409 44.8068C272.432 48.875 273.443 53.625 273.443 59.0568C273.443 64.4659 272.432 69.1932 270.409 73.2386C268.386 77.2841 265.545 80.4318 261.886 82.6818C258.227 84.9318 253.943 86.0568 249.034 86.0568ZM249.068 77.5C252.25 77.5 254.886 76.6591 256.977 74.9773C259.068 73.2955 260.614 71.0568 261.614 68.2614C262.636 65.4659 263.148 62.3864 263.148 59.0227C263.148 55.6818 262.636 52.6136 261.614 49.8182C260.614 47 259.068 44.7386 256.977 43.0341C254.886 41.3295 252.25 40.4773 249.068 40.4773C245.864 40.4773 243.205 41.3295 241.091 43.0341C239 44.7386 237.443 47 236.42 49.8182C235.42 52.6136 234.92 55.6818 234.92 59.0227C234.92 62.3864 235.42 65.4659 236.42 68.2614C237.443 71.0568 239 73.2955 241.091 74.9773C243.205 76.6591 245.864 77.5 249.068 77.5ZM7.67045 185V115.182H33.2386C38.1932 115.182 42.2955 116 45.5455 117.636C48.7955 119.25 51.2273 121.443 52.8409 124.216C54.4545 126.966 55.2614 130.068 55.2614 133.523C55.2614 136.432 54.7273 138.886 53.6591 140.886C52.5909 142.864 51.1591 144.455 49.3636 145.659C47.5909 146.841 45.6364 147.705 43.5 148.25V148.932C45.8182 149.045 48.0795 149.795 50.2841 151.182C52.5114 152.545 54.3523 154.489 55.8068 157.011C57.2614 159.534 57.9886 162.602 57.9886 166.216C57.9886 169.784 57.1477 172.989 55.4659 175.83C53.8068 178.648 51.2386 180.886 47.7614 182.545C44.2841 184.182 39.8409 185 34.4318 185H7.67045ZM18.2045 175.966H33.4091C38.4545 175.966 42.0682 174.989 44.25 173.034C46.4318 171.08 47.5227 168.636 47.5227 165.705C47.5227 163.5 46.9659 161.477 45.8523 159.636C44.7386 157.795 43.1477 156.33 41.0795 155.239C39.0341 154.148 36.6023 153.602 33.7841 153.602H18.2045V175.966ZM18.2045 145.386H32.3182C34.6818 145.386 36.8068 144.932 38.6932 144.023C40.6023 143.114 42.1136 141.841 43.2273 140.205C44.3636 138.545 44.9318 136.591 44.9318 134.341C44.9318 131.455 43.9205 129.034 41.8977 127.08C39.875 125.125 36.7727 124.148 32.5909 124.148H18.2045V145.386ZM84.9034 186.159C81.5852 186.159 78.5852 185.545 75.9034 184.318C73.2216 183.068 71.0966 181.261 69.5284 178.898C67.983 176.534 67.2102 173.636 67.2102 170.205C67.2102 167.25 67.7784 164.818 68.9148 162.909C70.0511 161 71.5852 159.489 73.517 158.375C75.4489 157.261 77.608 156.42 79.9943 155.852C82.3807 155.284 84.8125 154.852 87.2898 154.557C90.4261 154.193 92.9716 153.898 94.9261 153.67C96.8807 153.42 98.3011 153.023 99.1875 152.477C100.074 151.932 100.517 151.045 100.517 149.818V149.58C100.517 146.602 99.6761 144.295 97.9943 142.659C96.3352 141.023 93.858 140.205 90.5625 140.205C87.1307 140.205 84.4261 140.966 82.4489 142.489C80.4943 143.989 79.142 145.659 78.392 147.5L68.8125 145.318C69.9489 142.136 71.608 139.568 73.7898 137.614C75.9943 135.636 78.5284 134.205 81.392 133.318C84.2557 132.409 87.267 131.955 90.4261 131.955C92.517 131.955 94.733 132.205 97.0739 132.705C99.4375 133.182 101.642 134.068 103.688 135.364C105.756 136.659 107.449 138.511 108.767 140.92C110.085 143.307 110.744 146.409 110.744 150.227V185H100.79V177.841H100.381C99.7216 179.159 98.733 180.455 97.4148 181.727C96.0966 183 94.4034 184.057 92.3352 184.898C90.267 185.739 87.7898 186.159 84.9034 186.159ZM87.1193 177.977C89.9375 177.977 92.3466 177.42 94.3466 176.307C96.3693 175.193 97.9034 173.739 98.9489 171.943C100.017 170.125 100.551 168.182 100.551 166.114V159.364C100.188 159.727 99.483 160.068 98.4375 160.386C97.4148 160.682 96.2443 160.943 94.9261 161.17C93.608 161.375 92.3239 161.568 91.0739 161.75C89.8239 161.909 88.7784 162.045 87.9375 162.159C85.9602 162.409 84.1534 162.83 82.517 163.42C80.9034 164.011 79.608 164.864 78.6307 165.977C77.6761 167.068 77.1989 168.523 77.1989 170.341C77.1989 172.864 78.1307 174.773 79.9943 176.068C81.858 177.341 84.233 177.977 87.1193 177.977ZM134.514 115.182V185H124.321V115.182H134.514ZM163.466 186.159C160.148 186.159 157.148 185.545 154.466 184.318C151.784 183.068 149.659 181.261 148.091 178.898C146.545 176.534 145.773 173.636 145.773 170.205C145.773 167.25 146.341 164.818 147.477 162.909C148.614 161 150.148 159.489 152.08 158.375C154.011 157.261 156.17 156.42 158.557 155.852C160.943 155.284 163.375 154.852 165.852 154.557C168.989 154.193 171.534 153.898 173.489 153.67C175.443 153.42 176.864 153.023 177.75 152.477C178.636 151.932 179.08 151.045 179.08 149.818V149.58C179.08 146.602 178.239 144.295 176.557 142.659C174.898 141.023 172.42 140.205 169.125 140.205C165.693 140.205 162.989 140.966 161.011 142.489C159.057 143.989 157.705 145.659 156.955 147.5L147.375 145.318C148.511 142.136 150.17 139.568 152.352 137.614C154.557 135.636 157.091 134.205 159.955 133.318C162.818 132.409 165.83 131.955 168.989 131.955C171.08 131.955 173.295 132.205 175.636 132.705C178 133.182 180.205 134.068 182.25 135.364C184.318 136.659 186.011 138.511 187.33 140.92C188.648 143.307 189.307 146.409 189.307 150.227V185H179.352V177.841H178.943C178.284 179.159 177.295 180.455 175.977 181.727C174.659 183 172.966 184.057 170.898 184.898C168.83 185.739 166.352 186.159 163.466 186.159ZM165.682 177.977C168.5 177.977 170.909 177.42 172.909 176.307C174.932 175.193 176.466 173.739 177.511 171.943C178.58 170.125 179.114 168.182 179.114 166.114V159.364C178.75 159.727 178.045 160.068 177 160.386C175.977 160.682 174.807 160.943 173.489 161.17C172.17 161.375 170.886 161.568 169.636 161.75C168.386 161.909 167.341 162.045 166.5 162.159C164.523 162.409 162.716 162.83 161.08 163.42C159.466 164.011 158.17 164.864 157.193 165.977C156.239 167.068 155.761 168.523 155.761 170.341C155.761 172.864 156.693 174.773 158.557 176.068C160.42 177.341 162.795 177.977 165.682 177.977ZM213.077 153.909V185H202.884V132.636H212.668V141.159H213.315C214.52 138.386 216.406 136.159 218.974 134.477C221.565 132.795 224.827 131.955 228.759 131.955C232.327 131.955 235.452 132.705 238.134 134.205C240.815 135.682 242.895 137.886 244.372 140.818C245.849 143.75 246.588 147.375 246.588 151.693V185H236.395V152.92C236.395 149.125 235.406 146.159 233.429 144.023C231.452 141.864 228.736 140.784 225.281 140.784C222.918 140.784 220.815 141.295 218.974 142.318C217.156 143.341 215.713 144.841 214.645 146.818C213.599 148.773 213.077 151.136 213.077 153.909ZM282.315 186.057C277.247 186.057 272.884 184.909 269.224 182.614C265.588 180.295 262.793 177.102 260.838 173.034C258.884 168.966 257.906 164.307 257.906 159.057C257.906 153.739 258.906 149.045 260.906 144.977C262.906 140.886 265.724 137.693 269.361 135.398C272.997 133.102 277.281 131.955 282.213 131.955C286.19 131.955 289.736 132.693 292.849 134.17C295.963 135.625 298.474 137.67 300.384 140.307C302.315 142.943 303.463 146.023 303.827 149.545H293.906C293.361 147.091 292.111 144.977 290.156 143.205C288.224 141.432 285.634 140.545 282.384 140.545C279.543 140.545 277.054 141.295 274.918 142.795C272.804 144.273 271.156 146.386 269.974 149.136C268.793 151.864 268.202 155.091 268.202 158.818C268.202 162.636 268.781 165.932 269.94 168.705C271.099 171.477 272.736 173.625 274.849 175.148C276.986 176.67 279.497 177.432 282.384 177.432C284.315 177.432 286.065 177.08 287.634 176.375C289.224 175.648 290.554 174.614 291.622 173.273C292.713 171.932 293.474 170.318 293.906 168.432H303.827C303.463 171.818 302.361 174.841 300.52 177.5C298.679 180.159 296.213 182.25 293.122 183.773C290.054 185.295 286.452 186.057 282.315 186.057ZM337.295 186.057C332.136 186.057 327.693 184.955 323.966 182.75C320.261 180.523 317.398 177.398 315.375 173.375C313.375 169.33 312.375 164.591 312.375 159.159C312.375 153.795 313.375 149.068 315.375 144.977C317.398 140.886 320.216 137.693 323.83 135.398C327.466 133.102 331.716 131.955 336.58 131.955C339.534 131.955 342.398 132.443 345.17 133.42C347.943 134.398 350.432 135.932 352.636 138.023C354.841 140.114 356.58 142.83 357.852 146.17C359.125 149.489 359.761 153.523 359.761 158.273V161.886H318.136V154.25H349.773C349.773 151.568 349.227 149.193 348.136 147.125C347.045 145.034 345.511 143.386 343.534 142.182C341.58 140.977 339.284 140.375 336.648 140.375C333.784 140.375 331.284 141.08 329.148 142.489C327.034 143.875 325.398 145.693 324.239 147.943C323.102 150.17 322.534 152.591 322.534 155.205V161.17C322.534 164.67 323.148 167.648 324.375 170.102C325.625 172.557 327.364 174.432 329.591 175.727C331.818 177 334.42 177.636 337.398 177.636C339.33 177.636 341.091 177.364 342.682 176.818C344.273 176.25 345.648 175.409 346.807 174.295C347.966 173.182 348.852 171.807 349.466 170.17L359.114 171.909C358.341 174.75 356.955 177.239 354.955 179.375C352.977 181.489 350.489 183.136 347.489 184.318C344.511 185.477 341.114 186.057 337.295 186.057Z" fill="#23492A"/>
<mask id="mask0_31_136" style="mask-type:alpha" maskUnits="userSpaceOnUse" x="7" y="15" width="353" height="172">
<path d="M64.0227 15.1818V85H54.3409L18.8523 33.7955H18.2045V85H7.67045V15.1818H17.4205L52.9432 66.4545H53.5909V15.1818H64.0227ZM101.139 86.0568C95.9801 86.0568 91.5369 84.9545 87.8097 82.75C84.1051 80.5227 81.2415 77.3977 79.2188 73.375C77.2188 69.3295 76.2188 64.5909 76.2188 59.1591C76.2188 53.7955 77.2188 49.0682 79.2188 44.9773C81.2415 40.8864 84.0597 37.6932 87.6733 35.3977C91.3097 33.1023 95.5597 31.9545 100.423 31.9545C103.378 31.9545 106.241 32.4432 109.014 33.4205C111.787 34.3977 114.276 35.9318 116.48 38.0227C118.685 40.1136 120.423 42.8295 121.696 46.1705C122.969 49.4886 123.605 53.5227 123.605 58.2727V61.8864H81.9801V54.25H113.616C113.616 51.5682 113.071 49.1932 111.98 47.125C110.889 45.0341 109.355 43.3864 107.378 42.1818C105.423 40.9773 103.128 40.375 100.491 40.375C97.6278 40.375 95.1278 41.0795 92.9915 42.4886C90.8778 43.875 89.2415 45.6932 88.0824 47.9432C86.946 50.1705 86.3778 52.5909 86.3778 55.2045V61.1705C86.3778 64.6705 86.9915 67.6477 88.2188 70.1023C89.4688 72.5568 91.2074 74.4318 93.4347 75.7273C95.6619 77 98.2642 77.6364 101.241 77.6364C103.173 77.6364 104.935 77.3636 106.526 76.8182C108.116 76.25 109.491 75.4091 110.651 74.2955C111.81 73.1818 112.696 71.8068 113.31 70.1705L122.957 71.9091C122.185 74.75 120.798 77.2386 118.798 79.375C116.821 81.4886 114.332 83.1364 111.332 84.3182C108.355 85.4773 104.957 86.0568 101.139 86.0568ZM168.085 63.2841V32.6364H178.312V85H168.29V75.9318H167.744C166.54 78.7273 164.608 81.0568 161.949 82.9205C159.313 84.7614 156.028 85.6818 152.097 85.6818C148.733 85.6818 145.756 84.9432 143.165 83.4659C140.597 81.9659 138.574 79.75 137.097 76.8182C135.642 73.8864 134.915 70.2614 134.915 65.9432V32.6364H145.108V64.7159C145.108 68.2841 146.097 71.125 148.074 73.2386C150.051 75.3523 152.619 76.4091 155.778 76.4091C157.688 76.4091 159.585 75.9318 161.472 74.9773C163.381 74.0227 164.96 72.5795 166.21 70.6477C167.483 68.7159 168.108 66.2614 168.085 63.2841ZM192.009 85V32.6364H201.861V40.9545H202.406C203.361 38.1364 205.043 35.9205 207.452 34.3068C209.884 32.6705 212.634 31.8523 215.702 31.8523C216.338 31.8523 217.088 31.875 217.952 31.9205C218.838 31.9659 219.531 32.0227 220.031 32.0909V41.8409C219.622 41.7273 218.895 41.6023 217.849 41.4659C216.804 41.3068 215.759 41.2273 214.713 41.2273C212.304 41.2273 210.156 41.7386 208.27 42.7614C206.406 43.7614 204.929 45.1591 203.838 46.9545C202.747 48.7273 202.202 50.75 202.202 53.0227V85H192.009ZM249.034 86.0568C244.125 86.0568 239.841 84.9318 236.182 82.6818C232.523 80.4318 229.682 77.2841 227.659 73.2386C225.636 69.1932 224.625 64.4659 224.625 59.0568C224.625 53.625 225.636 48.875 227.659 44.8068C229.682 40.7386 232.523 37.5795 236.182 35.3295C239.841 33.0795 244.125 31.9545 249.034 31.9545C253.943 31.9545 258.227 33.0795 261.886 35.3295C265.545 37.5795 268.386 40.7386 270.409 44.8068C272.432 48.875 273.443 53.625 273.443 59.0568C273.443 64.4659 272.432 69.1932 270.409 73.2386C268.386 77.2841 265.545 80.4318 261.886 82.6818C258.227 84.9318 253.943 86.0568 249.034 86.0568ZM249.068 77.5C252.25 77.5 254.886 76.6591 256.977 74.9773C259.068 73.2955 260.614 71.0568 261.614 68.2614C262.636 65.4659 263.148 62.3864 263.148 59.0227C263.148 55.6818 262.636 52.6136 261.614 49.8182C260.614 47 259.068 44.7386 256.977 43.0341C254.886 41.3295 252.25 40.4773 249.068 40.4773C245.864 40.4773 243.205 41.3295 241.091 43.0341C239 44.7386 237.443 47 236.42 49.8182C235.42 52.6136 234.92 55.6818 234.92 59.0227C234.92 62.3864 235.42 65.4659 236.42 68.2614C237.443 71.0568 239 73.2955 241.091 74.9773C243.205 76.6591 245.864 77.5 249.068 77.5ZM7.67045 185V115.182H33.2386C38.1932 115.182 42.2955 116 45.5455 117.636C48.7955 119.25 51.2273 121.443 52.8409 124.216C54.4545 126.966 55.2614 130.068 55.2614 133.523C55.2614 136.432 54.7273 138.886 53.6591 140.886C52.5909 142.864 51.1591 144.455 49.3636 145.659C47.5909 146.841 45.6364 147.705 43.5 148.25V148.932C45.8182 149.045 48.0795 149.795 50.2841 151.182C52.5114 152.545 54.3523 154.489 55.8068 157.011C57.2614 159.534 57.9886 162.602 57.9886 166.216C57.9886 169.784 57.1477 172.989 55.4659 175.83C53.8068 178.648 51.2386 180.886 47.7614 182.545C44.2841 184.182 39.8409 185 34.4318 185H7.67045ZM18.2045 175.966H33.4091C38.4545 175.966 42.0682 174.989 44.25 173.034C46.4318 171.08 47.5227 168.636 47.5227 165.705C47.5227 163.5 46.9659 161.477 45.8523 159.636C44.7386 157.795 43.1477 156.33 41.0795 155.239C39.0341 154.148 36.6023 153.602 33.7841 153.602H18.2045V175.966ZM18.2045 145.386H32.3182C34.6818 145.386 36.8068 144.932 38.6932 144.023C40.6023 143.114 42.1136 141.841 43.2273 140.205C44.3636 138.545 44.9318 136.591 44.9318 134.341C44.9318 131.455 43.9205 129.034 41.8977 127.08C39.875 125.125 36.7727 124.148 32.5909 124.148H18.2045V145.386ZM84.9034 186.159C81.5852 186.159 78.5852 185.545 75.9034 184.318C73.2216 183.068 71.0966 181.261 69.5284 178.898C67.983 176.534 67.2102 173.636 67.2102 170.205C67.2102 167.25 67.7784 164.818 68.9148 162.909C70.0511 161 71.5852 159.489 73.517 158.375C75.4489 157.261 77.608 156.42 79.9943 155.852C82.3807 155.284 84.8125 154.852 87.2898 154.557C90.4261 154.193 92.9716 153.898 94.9261 153.67C96.8807 153.42 98.3011 153.023 99.1875 152.477C100.074 151.932 100.517 151.045 100.517 149.818V149.58C100.517 146.602 99.6761 144.295 97.9943 142.659C96.3352 141.023 93.858 140.205 90.5625 140.205C87.1307 140.205 84.4261 140.966 82.4489 142.489C80.4943 143.989 79.142 145.659 78.392 147.5L68.8125 145.318C69.9489 142.136 71.608 139.568 73.7898 137.614C75.9943 135.636 78.5284 134.205 81.392 133.318C84.2557 132.409 87.267 131.955 90.4261 131.955C92.517 131.955 94.733 132.205 97.0739 132.705C99.4375 133.182 101.642 134.068 103.688 135.364C105.756 136.659 107.449 138.511 108.767 140.92C110.085 143.307 110.744 146.409 110.744 150.227V185H100.79V177.841H100.381C99.7216 179.159 98.733 180.455 97.4148 181.727C96.0966 183 94.4034 184.057 92.3352 184.898C90.267 185.739 87.7898 186.159 84.9034 186.159ZM87.1193 177.977C89.9375 177.977 92.3466 177.42 94.3466 176.307C96.3693 175.193 97.9034 173.739 98.9489 171.943C100.017 170.125 100.551 168.182 100.551 166.114V159.364C100.188 159.727 99.483 160.068 98.4375 160.386C97.4148 160.682 96.2443 160.943 94.9261 161.17C93.608 161.375 92.3239 161.568 91.0739 161.75C89.8239 161.909 88.7784 162.045 87.9375 162.159C85.9602 162.409 84.1534 162.83 82.517 163.42C80.9034 164.011 79.608 164.864 78.6307 165.977C77.6761 167.068 77.1989 168.523 77.1989 170.341C77.1989 172.864 78.1307 174.773 79.9943 176.068C81.858 177.341 84.233 177.977 87.1193 177.977ZM134.514 115.182V185H124.321V115.182H134.514ZM163.466 186.159C160.148 186.159 157.148 185.545 154.466 184.318C151.784 183.068 149.659 181.261 148.091 178.898C146.545 176.534 145.773 173.636 145.773 170.205C145.773 167.25 146.341 164.818 147.477 162.909C148.614 161 150.148 159.489 152.08 158.375C154.011 157.261 156.17 156.42 158.557 155.852C160.943 155.284 163.375 154.852 165.852 154.557C168.989 154.193 171.534 153.898 173.489 153.67C175.443 153.42 176.864 153.023 177.75 152.477C178.636 151.932 179.08 151.045 179.08 149.818V149.58C179.08 146.602 178.239 144.295 176.557 142.659C174.898 141.023 172.42 140.205 169.125 140.205C165.693 140.205 162.989 140.966 161.011 142.489C159.057 143.989 157.705 145.659 156.955 147.5L147.375 145.318C148.511 142.136 150.17 139.568 152.352 137.614C154.557 135.636 157.091 134.205 159.955 133.318C162.818 132.409 165.83 131.955 168.989 131.955C171.08 131.955 173.295 132.205 175.636 132.705C178 133.182 180.205 134.068 182.25 135.364C184.318 136.659 186.011 138.511 187.33 140.92C188.648 143.307 189.307 146.409 189.307 150.227V185H179.352V177.841H178.943C178.284 179.159 177.295 180.455 175.977 181.727C174.659 183 172.966 184.057 170.898 184.898C168.83 185.739 166.352 186.159 163.466 186.159ZM165.682 177.977C168.5 177.977 170.909 177.42 172.909 176.307C174.932 175.193 176.466 173.739 177.511 171.943C178.58 170.125 179.114 168.182 179.114 166.114V159.364C178.75 159.727 178.045 160.068 177 160.386C175.977 160.682 174.807 160.943 173.489 161.17C172.17 161.375 170.886 161.568 169.636 161.75C168.386 161.909 167.341 162.045 166.5 162.159C164.523 162.409 162.716 162.83 161.08 163.42C159.466 164.011 158.17 164.864 157.193 165.977C156.239 167.068 155.761 168.523 155.761 170.341C155.761 172.864 156.693 174.773 158.557 176.068C160.42 177.341 162.795 177.977 165.682 177.977ZM213.077 153.909V185H202.884V132.636H212.668V141.159H213.315C214.52 138.386 216.406 136.159 218.974 134.477C221.565 132.795 224.827 131.955 228.759 131.955C232.327 131.955 235.452 132.705 238.134 134.205C240.815 135.682 242.895 137.886 244.372 140.818C245.849 143.75 246.588 147.375 246.588 151.693V185H236.395V152.92C236.395 149.125 235.406 146.159 233.429 144.023C231.452 141.864 228.736 140.784 225.281 140.784C222.918 140.784 220.815 141.295 218.974 142.318C217.156 143.341 215.713 144.841 214.645 146.818C213.599 148.773 213.077 151.136 213.077 153.909ZM282.315 186.057C277.247 186.057 272.884 184.909 269.224 182.614C265.588 180.295 262.793 177.102 260.838 173.034C258.884 168.966 257.906 164.307 257.906 159.057C257.906 153.739 258.906 149.045 260.906 144.977C262.906 140.886 265.724 137.693 269.361 135.398C272.997 133.102 277.281 131.955 282.213 131.955C286.19 131.955 289.736 132.693 292.849 134.17C295.963 135.625 298.474 137.67 300.384 140.307C302.315 142.943 303.463 146.023 303.827 149.545H293.906C293.361 147.091 292.111 144.977 290.156 143.205C288.224 141.432 285.634 140.545 282.384 140.545C279.543 140.545 277.054 141.295 274.918 142.795C272.804 144.273 271.156 146.386 269.974 149.136C268.793 151.864 268.202 155.091 268.202 158.818C268.202 162.636 268.781 165.932 269.94 168.705C271.099 171.477 272.736 173.625 274.849 175.148C276.986 176.67 279.497 177.432 282.384 177.432C284.315 177.432 286.065 177.08 287.634 176.375C289.224 175.648 290.554 174.614 291.622 173.273C292.713 171.932 293.474 170.318 293.906 168.432H303.827C303.463 171.818 302.361 174.841 300.52 177.5C298.679 180.159 296.213 182.25 293.122 183.773C290.054 185.295 286.452 186.057 282.315 186.057ZM337.295 186.057C332.136 186.057 327.693 184.955 323.966 182.75C320.261 180.523 317.398 177.398 315.375 173.375C313.375 169.33 312.375 164.591 312.375 159.159C312.375 153.795 313.375 149.068 315.375 144.977C317.398 140.886 320.216 137.693 323.83 135.398C327.466 133.102 331.716 131.955 336.58 131.955C339.534 131.955 342.398 132.443 345.17 133.42C347.943 134.398 350.432 135.932 352.636 138.023C354.841 140.114 356.58 142.83 357.852 146.17C359.125 149.489 359.761 153.523 359.761 158.273V161.886H318.136V154.25H349.773C349.773 151.568 349.227 149.193 348.136 147.125C347.045 145.034 345.511 143.386 343.534 142.182C341.58 140.977 339.284 140.375 336.648 140.375C333.784 140.375 331.284 141.08 329.148 142.489C327.034 143.875 325.398 145.693 324.239 147.943C323.102 150.17 322.534 152.591 322.534 155.205V161.17C322.534 164.67 323.148 167.648 324.375 170.102C325.625 172.557 327.364 174.432 329.591 175.727C331.818 177 334.42 177.636 337.398 177.636C339.33 177.636 341.091 177.364 342.682 176.818C344.273 176.25 345.648 175.409 346.807 174.295C347.966 173.182 348.852 171.807 349.466 170.17L359.114 171.909C358.341 174.75 356.955 177.239 354.955 179.375C352.977 181.489 350.489 183.136 347.489 184.318C344.511 185.477 341.114 186.057 337.295 186.057Z" fill="#215E32"/>
</mask>
<g mask="url(#mask0_31_136)">
<g filter="url(#filter0_f_31_136)">
<ellipse cx="30" cy="184.5" rx="143" ry="40.5" fill="#464726"/>
</g>
<g filter="url(#filter1_f_31_136)">
<ellipse cx="47" cy="8.5" rx="137" ry="27.5" fill="#ACCA83"/>
</g>
<g filter="url(#filter2_f_31_136)">
<ellipse cx="291" cy="34.5" rx="124" ry="21.5" fill="#C8DA96"/>
</g>
<g filter="url(#filter3_f_31_136)">
<ellipse cx="110.5" cy="175" rx="192.5" ry="25" fill="#24542F"/>
</g>
<g filter="url(#filter4_f_31_136)">
<ellipse cx="240" cy="109" rx="167" ry="39" fill="#76A449"/>
</g>
<g filter="url(#filter5_f_31_136)">
<ellipse cx="198" cy="197" rx="167" ry="27" fill="#3A6235"/>
</g>
</g>
<defs>
<filter id="filter0_f_31_136" x="-143" y="114" width="346" height="141" filterUnits="userSpaceOnUse" color-interpolation-filters="sRGB">
<feFlood flood-opacity="0" result="BackgroundImageFix"/>
<feBlend mode="normal" in="SourceGraphic" in2="BackgroundImageFix" result="shape"/>
<feGaussianBlur stdDeviation="15" result="effect1_foregroundBlur_31_136"/>
</filter>
<filter id="filter1_f_31_136" x="-120" y="-49" width="334" height="115" filterUnits="userSpaceOnUse" color-interpolation-filters="sRGB">
<feFlood flood-opacity="0" result="BackgroundImageFix"/>
<feBlend mode="normal" in="SourceGraphic" in2="BackgroundImageFix" result="shape"/>
<feGaussianBlur stdDeviation="15" result="effect1_foregroundBlur_31_136"/>
</filter>
<filter id="filter2_f_31_136" x="137" y="-17" width="308" height="103" filterUnits="userSpaceOnUse" color-interpolation-filters="sRGB">
<feFlood flood-opacity="0" result="BackgroundImageFix"/>
<feBlend mode="normal" in="SourceGraphic" in2="BackgroundImageFix" result="shape"/>
<feGaussianBlur stdDeviation="15" result="effect1_foregroundBlur_31_136"/>
</filter>
<filter id="filter3_f_31_136" x="-112" y="120" width="445" height="110" filterUnits="userSpaceOnUse" color-interpolation-filters="sRGB">
<feFlood flood-opacity="0" result="BackgroundImageFix"/>
<feBlend mode="normal" in="SourceGraphic" in2="BackgroundImageFix" result="shape"/>
<feGaussianBlur stdDeviation="15" result="effect1_foregroundBlur_31_136"/>
</filter>
<filter id="filter4_f_31_136" x="23" y="20" width="434" height="178" filterUnits="userSpaceOnUse" color-interpolation-filters="sRGB">
<feFlood flood-opacity="0" result="BackgroundImageFix"/>
<feBlend mode="normal" in="SourceGraphic" in2="BackgroundImageFix" result="shape"/>
<feGaussianBlur stdDeviation="25" result="effect1_foregroundBlur_31_136"/>
</filter>
<filter id="filter5_f_31_136" x="-19" y="120" width="434" height="154" filterUnits="userSpaceOnUse" color-interpolation-filters="sRGB">
<feFlood flood-opacity="0" result="BackgroundImageFix"/>
<feBlend mode="normal" in="SourceGraphic" in2="BackgroundImageFix" result="shape"/>
<feGaussianBlur stdDeviation="25" result="effect1_foregroundBlur_31_136"/>
</filter>
</defs>
</svg>
