<svg width="570" height="284" viewBox="0 0 570 284" fill="none" xmlns="http://www.w3.org/2000/svg">
<path d="M80.0284 21.7273V109H67.9261L23.5653 44.9943H22.7557V109H9.58807V21.7273H21.7756L66.179 85.8182H66.9886V21.7273H80.0284ZM126.424 110.321C119.975 110.321 114.421 108.943 109.762 106.188C105.131 103.403 101.552 99.4972 99.0234 94.4688C96.5234 89.4119 95.2734 83.4886 95.2734 76.6989C95.2734 69.9943 96.5234 64.0852 99.0234 58.9716C101.552 53.858 105.075 49.8665 109.592 46.9972C114.137 44.1278 119.45 42.6932 125.529 42.6932C129.222 42.6932 132.802 43.304 136.268 44.5256C139.734 45.7472 142.844 47.6648 145.6 50.2784C148.356 52.892 150.529 56.2869 152.12 60.4631C153.711 64.6108 154.506 69.6534 154.506 75.5909V80.108H102.475V70.5625H142.021C142.021 67.2102 141.339 64.2415 139.975 61.6562C138.612 59.0426 136.694 56.983 134.222 55.4773C131.779 53.9716 128.91 53.2188 125.614 53.2188C122.035 53.2188 118.91 54.0994 116.239 55.8608C113.597 57.5937 111.552 59.8665 110.103 62.679C108.683 65.4631 107.972 68.4886 107.972 71.7557V79.2131C107.972 83.5881 108.739 87.3097 110.273 90.3778C111.836 93.446 114.009 95.7898 116.793 97.4091C119.577 99 122.83 99.7955 126.552 99.7955C128.967 99.7955 131.168 99.4545 133.157 98.7727C135.146 98.0625 136.864 97.0114 138.313 95.6193C139.762 94.2273 140.87 92.5085 141.637 90.4631L153.697 92.6364C152.731 96.1875 150.998 99.2983 148.498 101.969C146.026 104.611 142.915 106.67 139.165 108.148C135.444 109.597 131.197 110.321 126.424 110.321ZM210.107 81.8551V43.5455H222.891V109H210.362V97.6648H209.68C208.175 101.159 205.76 104.071 202.436 106.401C199.141 108.702 195.036 109.852 190.121 109.852C185.916 109.852 182.195 108.929 178.956 107.082C175.746 105.207 173.217 102.438 171.371 98.7727C169.553 95.108 168.643 90.5767 168.643 85.179V43.5455H181.385V83.6449C181.385 88.1051 182.621 91.6562 185.092 94.2983C187.564 96.9403 190.774 98.2614 194.723 98.2614C197.109 98.2614 199.482 97.6648 201.839 96.4716C204.226 95.2784 206.2 93.4744 207.763 91.0597C209.354 88.6449 210.135 85.5767 210.107 81.8551ZM240.011 109V43.5455H252.326V53.9432H253.008C254.201 50.4205 256.303 47.6506 259.315 45.6335C262.354 43.5881 265.792 42.5653 269.627 42.5653C270.423 42.5653 271.36 42.5937 272.44 42.6506C273.548 42.7074 274.414 42.7784 275.039 42.8636V55.0511C274.528 54.9091 273.619 54.7528 272.312 54.5824C271.005 54.3835 269.698 54.2841 268.391 54.2841C265.38 54.2841 262.695 54.9233 260.337 56.2017C258.008 57.4517 256.161 59.1989 254.798 61.4432C253.434 63.6591 252.752 66.1875 252.752 69.0284V109H240.011ZM311.293 110.321C305.156 110.321 299.801 108.915 295.227 106.102C290.653 103.29 287.102 99.3551 284.574 94.2983C282.045 89.2415 280.781 83.3324 280.781 76.571C280.781 69.7812 282.045 63.8437 284.574 58.7585C287.102 53.6733 290.653 49.7244 295.227 46.9119C299.801 44.0994 305.156 42.6932 311.293 42.6932C317.429 42.6932 322.784 44.0994 327.358 46.9119C331.932 49.7244 335.483 53.6733 338.011 58.7585C340.54 63.8437 341.804 69.7812 341.804 76.571C341.804 83.3324 340.54 89.2415 338.011 94.2983C335.483 99.3551 331.932 103.29 327.358 106.102C322.784 108.915 317.429 110.321 311.293 110.321ZM311.335 99.625C315.313 99.625 318.608 98.5739 321.222 96.4716C323.835 94.3693 325.767 91.571 327.017 88.0767C328.295 84.5824 328.935 80.733 328.935 76.5284C328.935 72.3523 328.295 68.517 327.017 65.0227C325.767 61.5 323.835 58.6733 321.222 56.5426C318.608 54.4119 315.313 53.3466 311.335 53.3466C307.33 53.3466 304.006 54.4119 301.364 56.5426C298.75 58.6733 296.804 61.5 295.526 65.0227C294.276 68.517 293.651 72.3523 293.651 76.5284C293.651 80.733 294.276 84.5824 295.526 88.0767C296.804 91.571 298.75 94.3693 301.364 96.4716C304.006 98.5739 307.33 99.625 311.335 99.625ZM9.58807 239V151.727H41.5483C47.7415 151.727 52.8693 152.75 56.9318 154.795C60.9943 156.812 64.0341 159.554 66.0511 163.02C68.0682 166.457 69.0767 170.335 69.0767 174.653C69.0767 178.29 68.4091 181.358 67.0739 183.858C65.7386 186.33 63.9489 188.318 61.7045 189.824C59.4886 191.301 57.0455 192.381 54.375 193.062V193.915C57.2727 194.057 60.0994 194.994 62.8551 196.727C65.6392 198.432 67.9403 200.861 69.7585 204.014C71.5767 207.168 72.4858 211.003 72.4858 215.52C72.4858 219.98 71.4347 223.986 69.3324 227.537C67.2585 231.06 64.0483 233.858 59.7017 235.932C55.3551 237.977 49.8011 239 43.0398 239H9.58807ZM22.7557 227.707H41.7614C48.0682 227.707 52.5852 226.486 55.3125 224.043C58.0398 221.599 59.4034 218.545 59.4034 214.881C59.4034 212.125 58.7074 209.597 57.3153 207.295C55.9233 204.994 53.9347 203.162 51.3494 201.798C48.7926 200.435 45.7528 199.753 42.2301 199.753H22.7557V227.707ZM22.7557 189.483H40.3977C43.3523 189.483 46.0085 188.915 48.3665 187.778C50.7528 186.642 52.642 185.051 54.0341 183.006C55.4545 180.932 56.1648 178.489 56.1648 175.676C56.1648 172.068 54.9006 169.043 52.3722 166.599C49.8438 164.156 45.9659 162.935 40.7386 162.935H22.7557V189.483ZM106.129 240.449C101.982 240.449 98.2315 239.682 94.8793 238.148C91.527 236.585 88.8707 234.327 86.9105 231.372C84.9787 228.418 84.0128 224.795 84.0128 220.506C84.0128 216.812 84.723 213.773 86.1435 211.386C87.5639 209 89.4815 207.111 91.8963 205.719C94.3111 204.327 97.0099 203.276 99.9929 202.565C102.976 201.855 106.016 201.315 109.112 200.946C113.033 200.491 116.214 200.122 118.658 199.838C121.101 199.526 122.876 199.028 123.984 198.347C125.092 197.665 125.646 196.557 125.646 195.023V194.724C125.646 191.003 124.595 188.119 122.493 186.074C120.419 184.028 117.322 183.006 113.203 183.006C108.913 183.006 105.533 183.957 103.061 185.861C100.618 187.736 98.9276 189.824 97.9901 192.125L86.0156 189.398C87.4361 185.42 89.5099 182.21 92.2372 179.767C94.9929 177.295 98.1605 175.506 101.74 174.398C105.32 173.261 109.084 172.693 113.033 172.693C115.646 172.693 118.416 173.006 121.342 173.631C124.297 174.227 127.053 175.335 129.609 176.955C132.195 178.574 134.311 180.889 135.959 183.901C137.607 186.884 138.43 190.761 138.43 195.534V239H125.987V230.051H125.476C124.652 231.699 123.416 233.318 121.768 234.909C120.121 236.5 118.004 237.821 115.419 238.872C112.834 239.923 109.737 240.449 106.129 240.449ZM108.899 230.222C112.422 230.222 115.433 229.526 117.933 228.134C120.462 226.741 122.379 224.923 123.686 222.679C125.021 220.406 125.689 217.977 125.689 215.392V206.955C125.234 207.409 124.354 207.835 123.047 208.233C121.768 208.602 120.305 208.929 118.658 209.213C117.01 209.469 115.405 209.71 113.842 209.938C112.28 210.136 110.973 210.307 109.922 210.449C107.45 210.761 105.192 211.287 103.146 212.026C101.129 212.764 99.5099 213.83 98.2884 215.222C97.0952 216.585 96.4986 218.403 96.4986 220.676C96.4986 223.83 97.6634 226.216 99.9929 227.835C102.322 229.426 105.291 230.222 108.899 230.222ZM168.143 151.727V239H155.401V151.727H168.143ZM204.332 240.449C200.185 240.449 196.435 239.682 193.082 238.148C189.73 236.585 187.074 234.327 185.114 231.372C183.182 228.418 182.216 224.795 182.216 220.506C182.216 216.812 182.926 213.773 184.347 211.386C185.767 209 187.685 207.111 190.099 205.719C192.514 204.327 195.213 203.276 198.196 202.565C201.179 201.855 204.219 201.315 207.315 200.946C211.236 200.491 214.418 200.122 216.861 199.838C219.304 199.526 221.08 199.028 222.188 198.347C223.295 197.665 223.849 196.557 223.849 195.023V194.724C223.849 191.003 222.798 188.119 220.696 186.074C218.622 184.028 215.526 183.006 211.406 183.006C207.116 183.006 203.736 183.957 201.264 185.861C198.821 187.736 197.131 189.824 196.193 192.125L184.219 189.398C185.639 185.42 187.713 182.21 190.44 179.767C193.196 177.295 196.364 175.506 199.943 174.398C203.523 173.261 207.287 172.693 211.236 172.693C213.849 172.693 216.619 173.006 219.545 173.631C222.5 174.227 225.256 175.335 227.812 176.955C230.398 178.574 232.514 180.889 234.162 183.901C235.81 186.884 236.634 190.761 236.634 195.534V239H224.19V230.051H223.679C222.855 231.699 221.619 233.318 219.972 234.909C218.324 236.5 216.207 237.821 213.622 238.872C211.037 239.923 207.94 240.449 204.332 240.449ZM207.102 230.222C210.625 230.222 213.636 229.526 216.136 228.134C218.665 226.741 220.582 224.923 221.889 222.679C223.224 220.406 223.892 217.977 223.892 215.392V206.955C223.438 207.409 222.557 207.835 221.25 208.233C219.972 208.602 218.509 208.929 216.861 209.213C215.213 209.469 213.608 209.71 212.045 209.938C210.483 210.136 209.176 210.307 208.125 210.449C205.653 210.761 203.395 211.287 201.349 212.026C199.332 212.764 197.713 213.83 196.491 215.222C195.298 216.585 194.702 218.403 194.702 220.676C194.702 223.83 195.866 226.216 198.196 227.835C200.526 229.426 203.494 230.222 207.102 230.222ZM266.346 200.136V239H253.604V173.545H265.835V184.199H266.644C268.15 180.733 270.508 177.949 273.718 175.847C276.957 173.744 281.033 172.693 285.948 172.693C290.408 172.693 294.315 173.631 297.667 175.506C301.019 177.352 303.619 180.108 305.465 183.773C307.312 187.437 308.235 191.969 308.235 197.366V239H295.494V198.901C295.494 194.156 294.258 190.449 291.786 187.778C289.315 185.08 285.92 183.73 281.602 183.73C278.647 183.73 276.019 184.369 273.718 185.648C271.445 186.926 269.641 188.801 268.306 191.273C266.999 193.716 266.346 196.67 266.346 200.136ZM352.894 240.321C346.559 240.321 341.104 238.886 336.531 236.017C331.985 233.119 328.491 229.128 326.048 224.043C323.604 218.957 322.383 213.134 322.383 206.571C322.383 199.923 323.633 194.057 326.133 188.972C328.633 183.858 332.156 179.866 336.701 176.997C341.246 174.128 346.602 172.693 352.766 172.693C357.738 172.693 362.17 173.616 366.062 175.463C369.954 177.281 373.093 179.838 375.479 183.134C377.894 186.429 379.329 190.278 379.783 194.682H367.383C366.701 191.614 365.138 188.972 362.695 186.756C360.281 184.54 357.042 183.432 352.979 183.432C349.428 183.432 346.317 184.369 343.647 186.244C341.005 188.091 338.945 190.733 337.468 194.17C335.991 197.58 335.252 201.614 335.252 206.273C335.252 211.045 335.977 215.165 337.425 218.631C338.874 222.097 340.92 224.781 343.562 226.685C346.232 228.588 349.371 229.54 352.979 229.54C355.394 229.54 357.582 229.099 359.542 228.219C361.531 227.31 363.192 226.017 364.528 224.341C365.891 222.665 366.843 220.648 367.383 218.29H379.783C379.329 222.523 377.951 226.301 375.65 229.625C373.349 232.949 370.266 235.562 366.403 237.466C362.567 239.369 358.065 240.321 352.894 240.321ZM421.619 240.321C415.17 240.321 409.616 238.943 404.957 236.188C400.327 233.403 396.747 229.497 394.219 224.469C391.719 219.412 390.469 213.489 390.469 206.699C390.469 199.994 391.719 194.085 394.219 188.972C396.747 183.858 400.27 179.866 404.787 176.997C409.332 174.128 414.645 172.693 420.724 172.693C424.418 172.693 427.997 173.304 431.463 174.526C434.929 175.747 438.04 177.665 440.795 180.278C443.551 182.892 445.724 186.287 447.315 190.463C448.906 194.611 449.702 199.653 449.702 205.591V210.108H397.67V200.562H437.216C437.216 197.21 436.534 194.241 435.17 191.656C433.807 189.043 431.889 186.983 429.418 185.477C426.974 183.972 424.105 183.219 420.81 183.219C417.23 183.219 414.105 184.099 411.435 185.861C408.793 187.594 406.747 189.866 405.298 192.679C403.878 195.463 403.168 198.489 403.168 201.756V209.213C403.168 213.588 403.935 217.31 405.469 220.378C407.031 223.446 409.205 225.79 411.989 227.409C414.773 229 418.026 229.795 421.747 229.795C424.162 229.795 426.364 229.455 428.352 228.773C430.341 228.062 432.06 227.011 433.509 225.619C434.957 224.227 436.065 222.509 436.832 220.463L448.892 222.636C447.926 226.187 446.193 229.298 443.693 231.969C441.222 234.611 438.111 236.67 434.361 238.148C430.639 239.597 426.392 240.321 421.619 240.321Z" fill="white"/>
<mask id="mask0_2917_6575" style="mask-type:alpha" maskUnits="userSpaceOnUse" x="9" y="21" width="441" height="220">
<path d="M80.0284 21.7273V109H67.9261L23.5653 44.9943H22.7557V109H9.58807V21.7273H21.7756L66.179 85.8182H66.9886V21.7273H80.0284ZM126.424 110.321C119.975 110.321 114.421 108.943 109.762 106.188C105.131 103.403 101.552 99.4972 99.0234 94.4688C96.5234 89.4119 95.2734 83.4886 95.2734 76.6989C95.2734 69.9943 96.5234 64.0852 99.0234 58.9716C101.552 53.858 105.075 49.8665 109.592 46.9972C114.137 44.1278 119.45 42.6932 125.529 42.6932C129.222 42.6932 132.802 43.304 136.268 44.5256C139.734 45.7472 142.844 47.6648 145.6 50.2784C148.356 52.892 150.529 56.2869 152.12 60.4631C153.711 64.6108 154.506 69.6534 154.506 75.5909V80.108H102.475V70.5625H142.021C142.021 67.2102 141.339 64.2415 139.975 61.6562C138.612 59.0426 136.694 56.983 134.222 55.4773C131.779 53.9716 128.91 53.2188 125.614 53.2188C122.035 53.2188 118.91 54.0994 116.239 55.8608C113.597 57.5937 111.552 59.8665 110.103 62.679C108.683 65.4631 107.972 68.4886 107.972 71.7557V79.2131C107.972 83.5881 108.739 87.3097 110.273 90.3778C111.836 93.446 114.009 95.7898 116.793 97.4091C119.577 99 122.83 99.7955 126.552 99.7955C128.967 99.7955 131.168 99.4545 133.157 98.7727C135.146 98.0625 136.864 97.0114 138.313 95.6193C139.762 94.2273 140.87 92.5085 141.637 90.4631L153.697 92.6364C152.731 96.1875 150.998 99.2983 148.498 101.969C146.026 104.611 142.915 106.67 139.165 108.148C135.444 109.597 131.197 110.321 126.424 110.321ZM210.107 81.8551V43.5455H222.891V109H210.362V97.6648H209.68C208.175 101.159 205.76 104.071 202.436 106.401C199.141 108.702 195.036 109.852 190.121 109.852C185.916 109.852 182.195 108.929 178.956 107.082C175.746 105.207 173.217 102.438 171.371 98.7727C169.553 95.108 168.643 90.5767 168.643 85.179V43.5455H181.385V83.6449C181.385 88.1051 182.621 91.6562 185.092 94.2983C187.564 96.9403 190.774 98.2614 194.723 98.2614C197.109 98.2614 199.482 97.6648 201.839 96.4716C204.226 95.2784 206.2 93.4744 207.763 91.0597C209.354 88.6449 210.135 85.5767 210.107 81.8551ZM240.011 109V43.5455H252.326V53.9432H253.008C254.201 50.4205 256.303 47.6506 259.315 45.6335C262.354 43.5881 265.792 42.5653 269.627 42.5653C270.423 42.5653 271.36 42.5937 272.44 42.6506C273.548 42.7074 274.414 42.7784 275.039 42.8636V55.0511C274.528 54.9091 273.619 54.7528 272.312 54.5824C271.005 54.3835 269.698 54.2841 268.391 54.2841C265.38 54.2841 262.695 54.9233 260.337 56.2017C258.008 57.4517 256.161 59.1989 254.798 61.4432C253.434 63.6591 252.752 66.1875 252.752 69.0284V109H240.011ZM311.293 110.321C305.156 110.321 299.801 108.915 295.227 106.102C290.653 103.29 287.102 99.3551 284.574 94.2983C282.045 89.2415 280.781 83.3324 280.781 76.571C280.781 69.7812 282.045 63.8437 284.574 58.7585C287.102 53.6733 290.653 49.7244 295.227 46.9119C299.801 44.0994 305.156 42.6932 311.293 42.6932C317.429 42.6932 322.784 44.0994 327.358 46.9119C331.932 49.7244 335.483 53.6733 338.011 58.7585C340.54 63.8437 341.804 69.7812 341.804 76.571C341.804 83.3324 340.54 89.2415 338.011 94.2983C335.483 99.3551 331.932 103.29 327.358 106.102C322.784 108.915 317.429 110.321 311.293 110.321ZM311.335 99.625C315.313 99.625 318.608 98.5739 321.222 96.4716C323.835 94.3693 325.767 91.571 327.017 88.0767C328.295 84.5824 328.935 80.733 328.935 76.5284C328.935 72.3523 328.295 68.517 327.017 65.0227C325.767 61.5 323.835 58.6733 321.222 56.5426C318.608 54.4119 315.313 53.3466 311.335 53.3466C307.33 53.3466 304.006 54.4119 301.364 56.5426C298.75 58.6733 296.804 61.5 295.526 65.0227C294.276 68.517 293.651 72.3523 293.651 76.5284C293.651 80.733 294.276 84.5824 295.526 88.0767C296.804 91.571 298.75 94.3693 301.364 96.4716C304.006 98.5739 307.33 99.625 311.335 99.625ZM9.58807 239V151.727H41.5483C47.7415 151.727 52.8693 152.75 56.9318 154.795C60.9943 156.812 64.0341 159.554 66.0511 163.02C68.0682 166.457 69.0767 170.335 69.0767 174.653C69.0767 178.29 68.4091 181.358 67.0739 183.858C65.7386 186.33 63.9489 188.318 61.7045 189.824C59.4886 191.301 57.0455 192.381 54.375 193.062V193.915C57.2727 194.057 60.0994 194.994 62.8551 196.727C65.6392 198.432 67.9403 200.861 69.7585 204.014C71.5767 207.168 72.4858 211.003 72.4858 215.52C72.4858 219.98 71.4347 223.986 69.3324 227.537C67.2585 231.06 64.0483 233.858 59.7017 235.932C55.3551 237.977 49.8011 239 43.0398 239H9.58807ZM22.7557 227.707H41.7614C48.0682 227.707 52.5852 226.486 55.3125 224.043C58.0398 221.599 59.4034 218.545 59.4034 214.881C59.4034 212.125 58.7074 209.597 57.3153 207.295C55.9233 204.994 53.9347 203.162 51.3494 201.798C48.7926 200.435 45.7528 199.753 42.2301 199.753H22.7557V227.707ZM22.7557 189.483H40.3977C43.3523 189.483 46.0085 188.915 48.3665 187.778C50.7528 186.642 52.642 185.051 54.0341 183.006C55.4545 180.932 56.1648 178.489 56.1648 175.676C56.1648 172.068 54.9006 169.043 52.3722 166.599C49.8438 164.156 45.9659 162.935 40.7386 162.935H22.7557V189.483ZM106.129 240.449C101.982 240.449 98.2315 239.682 94.8793 238.148C91.527 236.585 88.8707 234.327 86.9105 231.372C84.9787 228.418 84.0128 224.795 84.0128 220.506C84.0128 216.812 84.723 213.773 86.1435 211.386C87.5639 209 89.4815 207.111 91.8963 205.719C94.3111 204.327 97.0099 203.276 99.9929 202.565C102.976 201.855 106.016 201.315 109.112 200.946C113.033 200.491 116.214 200.122 118.658 199.838C121.101 199.526 122.876 199.028 123.984 198.347C125.092 197.665 125.646 196.557 125.646 195.023V194.724C125.646 191.003 124.595 188.119 122.493 186.074C120.419 184.028 117.322 183.006 113.203 183.006C108.913 183.006 105.533 183.957 103.061 185.861C100.618 187.736 98.9276 189.824 97.9901 192.125L86.0156 189.398C87.4361 185.42 89.5099 182.21 92.2372 179.767C94.9929 177.295 98.1605 175.506 101.74 174.398C105.32 173.261 109.084 172.693 113.033 172.693C115.646 172.693 118.416 173.006 121.342 173.631C124.297 174.227 127.053 175.335 129.609 176.955C132.195 178.574 134.311 180.889 135.959 183.901C137.607 186.884 138.43 190.761 138.43 195.534V239H125.987V230.051H125.476C124.652 231.699 123.416 233.318 121.768 234.909C120.121 236.5 118.004 237.821 115.419 238.872C112.834 239.923 109.737 240.449 106.129 240.449ZM108.899 230.222C112.422 230.222 115.433 229.526 117.933 228.134C120.462 226.741 122.379 224.923 123.686 222.679C125.021 220.406 125.689 217.977 125.689 215.392V206.955C125.234 207.409 124.354 207.835 123.047 208.233C121.768 208.602 120.305 208.929 118.658 209.213C117.01 209.469 115.405 209.71 113.842 209.938C112.28 210.136 110.973 210.307 109.922 210.449C107.45 210.761 105.192 211.287 103.146 212.026C101.129 212.764 99.5099 213.83 98.2884 215.222C97.0952 216.585 96.4986 218.403 96.4986 220.676C96.4986 223.83 97.6634 226.216 99.9929 227.835C102.322 229.426 105.291 230.222 108.899 230.222ZM168.143 151.727V239H155.401V151.727H168.143ZM204.332 240.449C200.185 240.449 196.435 239.682 193.082 238.148C189.73 236.585 187.074 234.327 185.114 231.372C183.182 228.418 182.216 224.795 182.216 220.506C182.216 216.812 182.926 213.773 184.347 211.386C185.767 209 187.685 207.111 190.099 205.719C192.514 204.327 195.213 203.276 198.196 202.565C201.179 201.855 204.219 201.315 207.315 200.946C211.236 200.491 214.418 200.122 216.861 199.838C219.304 199.526 221.08 199.028 222.188 198.347C223.295 197.665 223.849 196.557 223.849 195.023V194.724C223.849 191.003 222.798 188.119 220.696 186.074C218.622 184.028 215.526 183.006 211.406 183.006C207.116 183.006 203.736 183.957 201.264 185.861C198.821 187.736 197.131 189.824 196.193 192.125L184.219 189.398C185.639 185.42 187.713 182.21 190.44 179.767C193.196 177.295 196.364 175.506 199.943 174.398C203.523 173.261 207.287 172.693 211.236 172.693C213.849 172.693 216.619 173.006 219.545 173.631C222.5 174.227 225.256 175.335 227.812 176.955C230.398 178.574 232.514 180.889 234.162 183.901C235.81 186.884 236.634 190.761 236.634 195.534V239H224.19V230.051H223.679C222.855 231.699 221.619 233.318 219.972 234.909C218.324 236.5 216.207 237.821 213.622 238.872C211.037 239.923 207.94 240.449 204.332 240.449ZM207.102 230.222C210.625 230.222 213.636 229.526 216.136 228.134C218.665 226.741 220.582 224.923 221.889 222.679C223.224 220.406 223.892 217.977 223.892 215.392V206.955C223.438 207.409 222.557 207.835 221.25 208.233C219.972 208.602 218.509 208.929 216.861 209.213C215.213 209.469 213.608 209.71 212.045 209.938C210.483 210.136 209.176 210.307 208.125 210.449C205.653 210.761 203.395 211.287 201.349 212.026C199.332 212.764 197.713 213.83 196.491 215.222C195.298 216.585 194.702 218.403 194.702 220.676C194.702 223.83 195.866 226.216 198.196 227.835C200.526 229.426 203.494 230.222 207.102 230.222ZM266.346 200.136V239H253.604V173.545H265.835V184.199H266.644C268.15 180.733 270.508 177.949 273.718 175.847C276.957 173.744 281.033 172.693 285.948 172.693C290.408 172.693 294.315 173.631 297.667 175.506C301.019 177.352 303.619 180.108 305.465 183.773C307.312 187.437 308.235 191.969 308.235 197.366V239H295.494V198.901C295.494 194.156 294.258 190.449 291.786 187.778C289.315 185.08 285.92 183.73 281.602 183.73C278.647 183.73 276.019 184.369 273.718 185.648C271.445 186.926 269.641 188.801 268.306 191.273C266.999 193.716 266.346 196.67 266.346 200.136ZM352.894 240.321C346.559 240.321 341.104 238.886 336.531 236.017C331.985 233.119 328.491 229.128 326.048 224.043C323.604 218.957 322.383 213.134 322.383 206.571C322.383 199.923 323.633 194.057 326.133 188.972C328.633 183.858 332.156 179.866 336.701 176.997C341.246 174.128 346.602 172.693 352.766 172.693C357.738 172.693 362.17 173.616 366.062 175.463C369.954 177.281 373.093 179.838 375.479 183.134C377.894 186.429 379.329 190.278 379.783 194.682H367.383C366.701 191.614 365.138 188.972 362.695 186.756C360.281 184.54 357.042 183.432 352.979 183.432C349.428 183.432 346.317 184.369 343.647 186.244C341.005 188.091 338.945 190.733 337.468 194.17C335.991 197.58 335.252 201.614 335.252 206.273C335.252 211.045 335.977 215.165 337.425 218.631C338.874 222.097 340.92 224.781 343.562 226.685C346.232 228.588 349.371 229.54 352.979 229.54C355.394 229.54 357.582 229.099 359.542 228.219C361.531 227.31 363.192 226.017 364.528 224.341C365.891 222.665 366.843 220.648 367.383 218.29H379.783C379.329 222.523 377.951 226.301 375.65 229.625C373.349 232.949 370.266 235.562 366.403 237.466C362.567 239.369 358.065 240.321 352.894 240.321ZM421.619 240.321C415.17 240.321 409.616 238.943 404.957 236.188C400.327 233.403 396.747 229.497 394.219 224.469C391.719 219.412 390.469 213.489 390.469 206.699C390.469 199.994 391.719 194.085 394.219 188.972C396.747 183.858 400.27 179.866 404.787 176.997C409.332 174.128 414.645 172.693 420.724 172.693C424.418 172.693 427.997 173.304 431.463 174.526C434.929 175.747 438.04 177.665 440.795 180.278C443.551 182.892 445.724 186.287 447.315 190.463C448.906 194.611 449.702 199.653 449.702 205.591V210.108H397.67V200.562H437.216C437.216 197.21 436.534 194.241 435.17 191.656C433.807 189.043 431.889 186.983 429.418 185.477C426.974 183.972 424.105 183.219 420.81 183.219C417.23 183.219 414.105 184.099 411.435 185.861C408.793 187.594 406.747 189.866 405.298 192.679C403.878 195.463 403.168 198.489 403.168 201.756V209.213C403.168 213.588 403.935 217.31 405.469 220.378C407.031 223.446 409.205 225.79 411.989 227.409C414.773 229 418.026 229.795 421.747 229.795C424.162 229.795 426.364 229.455 428.352 228.773C430.341 228.062 432.06 227.011 433.509 225.619C434.957 224.227 436.065 222.509 436.832 220.463L448.892 222.636C447.926 226.187 446.193 229.298 443.693 231.969C441.222 234.611 438.111 236.67 434.361 238.148C430.639 239.597 426.392 240.321 421.619 240.321Z" fill="white"/>
</mask>
<g mask="url(#mask0_2917_6575)">
<g filter="url(#filter0_f_2917_6575)">
<ellipse cx="33" cy="318.5" rx="378" ry="127.5" fill="#CBF2FF"/>
</g>
<g filter="url(#filter1_f_2917_6575)">
<ellipse cx="390.5" cy="129.5" rx="222.5" ry="65.5" fill="#CBF2FF"/>
</g>
</g>
<defs>
<filter id="filter0_f_2917_6575" x="-395" y="141" width="856" height="355" filterUnits="userSpaceOnUse" color-interpolation-filters="sRGB">
<feFlood flood-opacity="0" result="BackgroundImageFix"/>
<feBlend mode="normal" in="SourceGraphic" in2="BackgroundImageFix" result="shape"/>
<feGaussianBlur stdDeviation="25" result="effect1_foregroundBlur_2917_6575"/>
</filter>
<filter id="filter1_f_2917_6575" x="118" y="14" width="545" height="231" filterUnits="userSpaceOnUse" color-interpolation-filters="sRGB">
<feFlood flood-opacity="0" result="BackgroundImageFix"/>
<feBlend mode="normal" in="SourceGraphic" in2="BackgroundImageFix" result="shape"/>
<feGaussianBlur stdDeviation="25" result="effect1_foregroundBlur_2917_6575"/>
</filter>
</defs>
</svg>
