<svg width="1828" height="783" viewBox="0 0 1828 783" fill="none" xmlns="http://www.w3.org/2000/svg">
<g filter="url(#filter0_if_1162_7690)">
<path d="M15.0007 15.5C15.0007 114.32 38.2522 212.172 83.4275 303.469C128.603 394.767 194.817 477.722 278.291 547.598C361.764 617.474 460.861 672.903 569.923 710.719C678.986 748.536 795.879 768 913.928 768C1031.98 768 1148.87 748.536 1257.93 710.719C1367 672.903 1466.09 617.474 1549.57 547.598C1633.04 477.722 1699.25 394.767 1744.43 303.469C1789.6 212.172 1812.86 114.32 1812.86 15.4999L913.928 15.5H15.0007Z" fill="url(#paint0_radial_1162_7690)" fill-opacity="0.25"/>
</g>
<defs>
<filter id="filter0_if_1162_7690" x="0" y="-34.5" width="1827.86" height="817.5" filterUnits="userSpaceOnUse" color-interpolation-filters="sRGB">
<feFlood flood-opacity="0" result="BackgroundImageFix"/>
<feBlend mode="normal" in="SourceGraphic" in2="BackgroundImageFix" result="shape"/>
<feColorMatrix in="SourceAlpha" type="matrix" values="0 0 0 0 0 0 0 0 0 0 0 0 0 0 0 0 0 0 127 0" result="hardAlpha"/>
<feOffset dy="-50"/>
<feGaussianBlur stdDeviation="50"/>
<feComposite in2="hardAlpha" operator="arithmetic" k2="-1" k3="1"/>
<feColorMatrix type="matrix" values="0 0 0 0 1 0 0 0 0 1 0 0 0 0 1 0 0 0 0.5 0"/>
<feBlend mode="normal" in2="shape" result="effect1_innerShadow_1162_7690"/>
<feGaussianBlur stdDeviation="7.5" result="effect2_foregroundBlur_1162_7690"/>
</filter>
<radialGradient id="paint0_radial_1162_7690" cx="0" cy="0" r="1" gradientUnits="userSpaceOnUse" gradientTransform="translate(939.391 15.5) rotate(90) scale(752.5 2281.28)">
<stop offset="0.100962" stop-color="white" stop-opacity="0"/>
<stop offset="0.423077" stop-color="#106EE8" stop-opacity="0.1"/>
<stop offset="0.658654" stop-color="#106EE8" stop-opacity="0.25"/>
<stop offset="0.870192" stop-color="#0FC1A1" stop-opacity="0.5"/>
<stop offset="1" stop-color="#90E0AB" stop-opacity="0.4"/>
</radialGradient>
</defs>
</svg>
